<svg width="505" height="186" viewBox="0 0 505 186" fill="none" xmlns="http://www.w3.org/2000/svg">
<path fill-rule="evenodd" clip-rule="evenodd" d="M289.64 84.7628C280.927 84.7628 273.858 77.7658 273.858 69.1187C273.858 60.4818 280.927 53.4743 289.64 53.4743C298.353 53.4743 305.421 60.4818 305.421 69.1187C305.421 77.7658 298.353 84.7628 289.64 84.7628ZM200.209 69.1187C200.209 60.4818 207.278 53.4743 215.991 53.4743C224.704 53.4743 231.773 60.4818 231.773 69.1187C231.773 77.7658 224.704 84.7628 215.991 84.7628C207.278 84.7628 200.209 77.7658 200.209 69.1187ZM252.81 0C173.901 0 173.924 73.0063 173.924 73.0063V184.387L193.66 158.341L213.362 184.387L233.066 158.341L252.771 184.387L272.477 158.341L292.183 184.387L311.904 158.341L331.697 184.387V73.0063C331.697 73.0063 331.719 0 252.81 0Z" fill="#FF1E70"/>
<path d="M88.8004 164.081C88.8004 177.631 96.5221 186 109.17 186C121.818 186 129.806 177.498 129.806 164.081V153.187H135.53C146.714 153.187 153.37 146.678 153.37 136.183C153.37 125.555 146.447 118.514 135.53 118.514H129.806V29.5071C129.806 11.44 116.359 0.148071 94.7914 0.148071C78.1496 0.148071 67.8983 6.79039 54.5849 25.7874C35.1474 54.3494 19.4376 81.7158 6.6567 107.355C1.59761 118.249 0 123.562 0 130.205C0 144.951 9.05311 153.187 24.7629 153.187H88.8004V164.081ZM39.5408 118.514V117.584C47.662 102.44 74.6882 54.6151 86.6702 36.1494H88.8004V118.514H39.5408Z" fill="#FF1E70"/>
<path d="M440.43 164.08C440.43 177.63 448.152 186 460.799 186C473.447 186 481.435 177.497 481.435 164.08V153.187H487.16C498.343 153.187 505 146.677 505 136.182C505 125.554 498.077 118.514 487.16 118.514H481.435V29.5065C481.435 11.4394 467.989 0.147461 446.421 0.147461C429.779 0.147461 419.528 6.78978 406.215 25.7868C386.777 54.3488 371.067 81.7152 358.286 107.355C353.227 118.248 351.63 123.562 351.63 130.204C351.63 144.95 360.683 153.187 376.393 153.187H440.43V164.08ZM391.17 118.514V117.584C399.292 102.439 426.318 54.6145 438.3 36.1488H440.43V118.514H391.17Z" fill="#FF1E70"/>
</svg>
