<svg width="49" height="47" viewBox="0 0 49 47" fill="none" xmlns="http://www.w3.org/2000/svg">
<g filter="url(#filter0_dd_1219_37)">
<path fill-rule="evenodd" clip-rule="evenodd" d="M23.1304 3.17756C21.5508 3.64754 20.7129 4.94569 20.3865 5.45139L20.3764 5.46703C20.1807 5.77013 19.9786 6.11419 19.7987 6.42042L19.7984 6.42092C19.7718 6.4661 19.7457 6.51046 19.7203 6.55374C19.5073 6.9155 19.2911 7.27776 19.043 7.65949C18.1983 8.95936 16.9046 10.6094 14.4578 12.2831C12.8048 13.2917 11.3799 13.7822 10.2294 14.0893C9.78532 14.2078 9.36969 14.3022 8.95549 14.3938L8.80287 14.4274C8.45237 14.5046 8.05857 14.5912 7.70635 14.6842L7.68817 14.689C7.10057 14.8439 5.59217 15.2416 4.66292 16.585C4.27932 17.0916 4.04542 17.7147 4.02577 18.3907L4.0174 18.3899C3.85411 20.1127 4.88385 21.3994 5.27547 21.8888L5.28712 21.9033C5.51281 22.1855 5.7756 22.4871 6.00951 22.7555C6.04416 22.7953 6.07823 22.8344 6.1114 22.8725C6.38758 23.1902 6.66321 23.5109 6.94694 23.8677C8.02925 25.2287 9.34638 27.2589 10.1315 30.7268L10.1332 30.7264C10.4387 32.2099 10.4679 33.4328 10.4281 34.4299C10.4101 34.8828 10.3771 35.3018 10.3419 35.7185C10.3377 35.7684 10.3333 35.8195 10.3288 35.8715L10.3288 35.8721C10.2986 36.2246 10.2647 36.6208 10.2494 36.9797L10.2486 36.9982C10.2228 37.597 10.1566 39.1339 11.1797 40.4094C11.5556 40.9216 12.0891 41.328 12.738 41.5487L12.7347 41.5563C14.3544 42.2253 15.9087 41.6423 16.4998 41.4206L16.5174 41.414C16.8582 41.2862 17.229 41.1294 17.559 40.9898C17.6078 40.9692 17.6559 40.9489 17.7028 40.9291C18.093 40.7645 18.4861 40.6013 18.9165 40.4414C19.8308 40.1016 20.9678 39.7555 22.4163 39.5671C26.01 39.2676 28.3759 39.9632 30.0179 40.5734C30.4484 40.7334 30.8415 40.8965 31.2317 41.0611C31.2786 41.0809 31.3266 41.1012 31.3754 41.1219C31.7054 41.2615 32.0763 41.4183 32.417 41.546L32.4346 41.5526C33.0257 41.7744 34.5801 42.3574 36.1998 41.6884L36.1965 41.6808C36.8453 41.46 37.3789 41.0537 37.7548 40.5415C38.7778 39.266 38.7117 37.729 38.6859 37.1303L38.6851 37.1118C38.6697 36.7528 38.6358 36.3567 38.6057 36.0041L38.6056 36.0036C38.6012 35.9515 38.5968 35.9005 38.5926 35.8506C38.5574 35.4338 38.5244 35.0149 38.5064 34.5619C38.4646 33.514 38.4989 32.2167 38.8502 30.6295L38.8685 30.6335C39.0648 29.7664 39.2944 28.9891 39.5452 28.2898C39.6797 27.9264 39.8305 27.5513 39.9994 27.1641L39.995 27.1623C40.6533 25.6722 41.3964 24.6002 42.0531 23.7744C42.3368 23.4176 42.6124 23.0969 42.8886 22.7793C42.9218 22.7411 42.9558 22.7021 42.9904 22.6623C43.2243 22.3939 43.4872 22.0922 43.7129 21.8101L43.7245 21.7955C44.1161 21.3062 45.1459 20.0195 44.9826 18.2967L44.9742 18.2974C44.9546 17.6215 44.7207 16.9983 44.3371 16.4917C43.4078 15.1483 41.8994 14.7506 41.3118 14.5957L41.2936 14.5909C40.9414 14.498 40.5476 14.4113 40.1971 14.3342L40.1966 14.334C40.1448 14.3227 40.0941 14.3115 40.0445 14.3005C39.6303 14.2089 39.2147 14.1146 38.7706 13.996C37.7523 13.7242 36.5192 13.3088 35.1032 12.5176C32.0328 10.7524 30.4805 8.92408 29.4959 7.51027C29.2356 7.13651 29.0078 6.78122 28.7832 6.42633C28.7563 6.38371 28.7286 6.33996 28.7005 6.29546C28.5109 5.99507 28.2977 5.6575 28.0923 5.36075L28.0817 5.34543C27.7255 4.8305 26.7888 3.47652 25.0718 3.11278L25.07 3.12088C24.4096 2.93642 23.7361 2.96917 23.1304 3.17756ZM24.5101 29.6148C21.477 29.6148 19.0183 27.1924 19.0183 24.2042C19.0183 21.2161 21.477 18.7937 24.5101 18.7937C27.5431 18.7937 30.0019 21.2161 30.0019 24.2042C30.0019 27.1924 27.5431 29.6148 24.5101 29.6148Z" fill="url(#paint0_linear_1219_37)"/>
</g>
<defs>
<filter id="filter0_dd_1219_37" x="0" y="0" width="49" height="47" filterUnits="userSpaceOnUse" color-interpolation-filters="sRGB">
<feFlood flood-opacity="0" result="BackgroundImageFix"/>
<feColorMatrix in="SourceAlpha" type="matrix" values="0 0 0 0 0 0 0 0 0 0 0 0 0 0 0 0 0 0 127 0" result="hardAlpha"/>
<feOffset dy="1"/>
<feGaussianBlur stdDeviation="2"/>
<feComposite in2="hardAlpha" operator="out"/>
<feColorMatrix type="matrix" values="0 0 0 0 0.94902 0 0 0 0 0.12549 0 0 0 0 0.670588 0 0 0 0.44 0"/>
<feBlend mode="normal" in2="BackgroundImageFix" result="effect1_dropShadow_1219_37"/>
<feColorMatrix in="SourceAlpha" type="matrix" values="0 0 0 0 0 0 0 0 0 0 0 0 0 0 0 0 0 0 127 0" result="hardAlpha"/>
<feOffset dy="1"/>
<feGaussianBlur stdDeviation="1"/>
<feComposite in2="hardAlpha" operator="out"/>
<feColorMatrix type="matrix" values="0 0 0 0 1 0 0 0 0 0.176471 0 0 0 0 0.333333 0 0 0 0.24 0"/>
<feBlend mode="normal" in2="effect1_dropShadow_1219_37" result="effect2_dropShadow_1219_37"/>
<feBlend mode="normal" in="SourceGraphic" in2="effect2_dropShadow_1219_37" result="shape"/>
</filter>
<linearGradient id="paint0_linear_1219_37" x1="37.5871" y1="42" x2="14.0862" y2="7.88547" gradientUnits="userSpaceOnUse">
<stop stop-color="#FF652D"/>
<stop offset="0.395833" stop-color="#FF2D55"/>
<stop offset="0.666667" stop-color="#FF2D55"/>
<stop offset="1" stop-color="#EF1DC1"/>
</linearGradient>
</defs>
</svg>
