<svg width="38" height="38" viewBox="0 0 38 38" fill="none" xmlns="http://www.w3.org/2000/svg">
<rect width="38" height="38" rx="9" fill="#37AEE2"/>
<rect x="8" y="10" width="22" height="20" fill="white"/>
<path fill-rule="evenodd" clip-rule="evenodd" d="M37 19C37 28.9405 28.9405 37 19 37C9.0595 37 1 28.9405 1 19C1 9.0595 9.0595 1 19 1C28.9405 1 37 9.0595 37 19ZM19.645 14.2885C17.8945 15.016 14.395 16.5235 9.148 18.8095C8.296 19.1485 7.849 19.48 7.8085 19.804C7.7395 20.353 8.4265 20.569 9.3595 20.8615C9.487 20.902 9.619 20.9425 9.754 20.9875C10.6735 21.286 11.9095 21.6355 12.5515 21.649C13.135 21.661 13.786 21.421 14.5045 20.929C19.4065 17.6185 21.937 15.946 22.096 15.91C22.2085 15.8845 22.3645 15.8515 22.4695 15.946C22.5745 16.039 22.564 16.216 22.5535 16.264C22.4845 16.5535 19.7935 19.057 18.3985 20.353C17.9635 20.7565 17.656 21.043 17.593 21.109C17.452 21.2545 17.308 21.394 17.17 21.5275C16.315 22.3495 15.676 22.9675 17.206 23.9755C17.941 24.46 18.529 24.8605 19.1155 25.2595C19.756 25.696 20.395 26.131 21.223 26.674C21.433 26.812 21.634 26.9545 21.8305 27.094C22.576 27.6265 23.2465 28.1035 24.0745 28.0285C24.5545 27.9835 25.0525 27.532 25.3045 26.1835C25.9 22.9945 27.073 16.0885 27.3445 13.2415C27.361 13.0051 27.351 12.7676 27.3145 12.5335C27.2927 12.3444 27.2006 12.1704 27.0565 12.046C26.842 11.8705 26.509 11.833 26.359 11.836C25.6825 11.848 24.6445 12.2095 19.645 14.2885Z" fill="#37AEE2"/>
</svg>
