<svg width="38" height="38" viewBox="0 0 38 38" fill="none" xmlns="http://www.w3.org/2000/svg">
<rect width="38" height="38" fill="#01A2F0"/>
<path d="M29.4252 14.1368V14.7969C29.437 16.714 29.0684 18.6143 28.3408 20.3878C27.6132 22.1612 26.5411 23.7724 25.1866 25.128C23.8321 26.4836 22.2222 27.5566 20.4502 28.2848C18.6783 29.013 16.7795 29.3819 14.864 29.3701C12.0763 29.3782 9.34552 28.5804 7 27.0724H8.26839C10.5686 27.0725 12.8021 26.299 14.6103 24.8763C13.5385 24.8667 12.4972 24.5176 11.6358 23.879C10.7745 23.2404 10.1374 22.3452 9.81583 21.3218C10.1388 21.3734 10.4654 21.3989 10.7925 21.398C11.2455 21.3948 11.6966 21.3394 12.137 21.233C10.991 20.9989 9.96104 20.3757 9.2214 19.4689C8.48177 18.5621 8.07789 17.4274 8.07813 16.2568C8.78727 16.6483 9.57746 16.8699 10.3866 16.9042C9.67265 16.4315 9.08769 15.7882 8.68463 15.0324C8.28156 14.2766 8.07311 13.4321 8.07813 12.5754C8.07971 11.6836 8.31595 10.8079 8.76306 10.0365C10.0463 11.6203 11.6477 12.9167 13.4634 13.8417C15.2791 14.7668 17.2688 15.2998 19.3034 15.4063C19.2229 15.0221 19.1804 14.6309 19.1766 14.2384C19.1435 13.1935 19.4335 12.1638 20.007 11.29C20.5805 10.4162 21.4095 9.7409 22.3808 9.35623C23.352 8.97157 24.4183 8.89632 25.4339 9.14076C26.4495 9.3852 27.365 9.93743 28.0553 10.722C29.2032 10.4912 30.3021 10.0617 31.3024 9.45258C30.9204 10.6372 30.1169 11.6401 29.0446 12.2707C30.0641 12.1605 31.0607 11.8951 32 11.4837C31.3045 12.5005 30.4476 13.3966 29.4632 14.1368H29.4252Z" fill="white"/>
</svg>
