<svg width="38" height="38" viewBox="0 0 38 38" fill="none" xmlns="http://www.w3.org/2000/svg">
<rect width="38" height="38" rx="9" fill="#8762FE"/>
<path d="M18.3157 6.00393C16.1173 6.03009 11.3909 6.3862 8.74738 8.77683C6.78099 10.6974 6.09442 13.537 6.01395 17.0483C5.94717 20.5469 5.8667 27.1172 12.2915 28.9061V31.6309C12.2915 31.6309 12.2513 32.7212 12.9824 32.9448C13.883 33.2258 14.3957 32.387 15.2518 31.4858L16.8484 29.7061C21.2443 30.0664 24.6113 29.2361 24.9991 29.1129C25.8911 28.8319 30.9154 28.199 31.7363 21.6279C32.5787 14.8416 31.3263 10.5658 29.0654 8.63169H29.0517C28.3694 8.0123 25.6274 6.04275 19.5014 6.02081C19.5014 6.02081 19.0468 5.99043 18.3157 6.00309V6.00393ZM18.391 7.91188C19.0151 7.90766 19.3944 7.93382 19.3944 7.93382C24.5796 7.94733 27.0545 9.48567 27.6383 10.0038C29.5422 11.6122 30.5233 15.4669 29.805 21.1325C29.1228 26.626 25.0479 26.9737 24.2937 27.2108C23.9726 27.3121 21.0072 28.0327 17.2713 27.7956C17.2713 27.7956 14.4891 31.1052 13.6193 31.9575C13.4815 32.1069 13.3205 32.1507 13.2178 32.1288C13.0705 32.0934 13.026 31.9136 13.0346 31.6672L13.0611 27.145C7.61223 25.6598 7.93326 20.0558 7.99147 17.1285C8.05825 14.2011 8.61555 11.8063 10.2746 10.1844C12.5081 8.19373 16.5214 7.92539 18.3893 7.91188H18.391ZM18.802 10.8384C18.7571 10.8379 18.7126 10.8462 18.671 10.8628C18.6295 10.8794 18.5916 10.9039 18.5597 10.935C18.5278 10.9661 18.5024 11.003 18.4851 11.0438C18.4678 11.0846 18.4588 11.1283 18.4587 11.1725C18.4587 11.3616 18.6145 11.5109 18.802 11.5109C19.6507 11.495 20.4943 11.6449 21.2841 11.9519C22.0738 12.259 22.7941 12.7171 23.4033 13.2999C24.6472 14.4906 25.2533 16.0905 25.2764 18.1824C25.2764 18.3672 25.4279 18.5208 25.6197 18.5208V18.5073C25.7101 18.5075 25.7969 18.4725 25.8612 18.4099C25.9255 18.3473 25.9621 18.2622 25.963 18.1731C26.0046 17.1885 25.8426 16.2058 25.4869 15.2848C25.1312 14.3638 24.5892 13.5236 23.8939 12.8155C22.5387 11.5101 20.8214 10.8375 18.802 10.8375V10.8384ZM14.2896 11.6122C14.0473 11.5773 13.8002 11.6252 13.5893 11.748H13.5714C13.0819 12.0309 12.641 12.3883 12.265 12.8071C11.9525 13.1632 11.783 13.5235 11.7385 13.8703C11.712 14.0771 11.7299 14.2838 11.7924 14.4813L11.8147 14.4948C12.1665 15.5142 12.6262 16.4947 13.1878 17.4179C13.9112 18.7149 14.8015 19.9143 15.8365 20.9866L15.8673 21.0304L15.9161 21.0659L15.9469 21.1013L15.9829 21.1317C17.0746 22.155 18.2944 23.0366 19.6126 23.7552C21.1193 24.5637 22.0336 24.9459 22.5824 25.1046V25.113C22.7433 25.1611 22.8897 25.183 23.0369 25.183C23.5046 25.1493 23.9473 24.9621 24.2945 24.6514C24.7174 24.2807 25.076 23.8443 25.356 23.3595V23.351C25.6189 22.8633 25.5298 22.4017 25.1506 22.0895C24.3911 21.4351 23.5698 20.8538 22.6979 20.3537C22.1141 20.0414 21.5208 20.2305 21.2803 20.5469L20.7675 21.184C20.5047 21.5005 20.027 21.4566 20.027 21.4566L20.0133 21.465C16.4512 20.568 15.5009 17.0128 15.5009 17.0128C15.5009 17.0128 15.4564 16.5293 15.786 16.2829L16.4281 15.7732C16.7354 15.5268 16.9494 14.9429 16.6198 14.3665C16.1159 13.5059 15.5276 12.6962 14.8632 11.9489C14.7179 11.7727 14.5141 11.6528 14.2879 11.6105L14.2896 11.6122ZM19.3944 12.6147C18.9398 12.6147 18.9398 13.2915 19.3986 13.2915C19.9639 13.3005 20.5218 13.4192 21.0404 13.6409C21.5591 13.8626 22.0284 14.1829 22.4214 14.5834C22.78 14.9733 23.0555 15.4301 23.2316 15.9268C23.4078 16.4236 23.481 16.9501 23.447 17.4753C23.4486 17.5642 23.4854 17.6489 23.5495 17.7114C23.6137 17.7738 23.7001 17.809 23.7903 17.8094L23.804 17.8272C23.8948 17.8265 23.9817 17.7906 24.046 17.7273C24.1102 17.664 24.1466 17.5783 24.1473 17.4888C24.1781 16.1479 23.7552 15.023 22.9256 14.1218C22.0918 13.2206 20.9284 12.7151 19.4431 12.6147H19.3944ZM19.9568 14.434C19.4885 14.4205 19.4705 15.1108 19.9345 15.1243C21.0628 15.1817 21.6107 15.7437 21.6826 16.8998C21.6842 16.9875 21.7205 17.0712 21.7839 17.1329C21.8473 17.1945 21.9326 17.2293 22.0216 17.2297H22.0353C22.0811 17.2278 22.126 17.2169 22.1675 17.1976C22.2089 17.1784 22.2461 17.1512 22.2768 17.1177C22.3075 17.0841 22.3311 17.0449 22.3462 17.0023C22.3613 16.9597 22.3677 16.9145 22.3649 16.8694C22.2845 15.3623 21.4506 14.5134 19.9705 14.4349H19.9568V14.434Z" fill="white"/>
</svg>
