<svg width="90" height="90" viewBox="0 0 90 90" fill="none" xmlns="http://www.w3.org/2000/svg">
<path d="M57.9742 21.572H79.1487V26.7794H57.9742V21.572ZM36.7573 42.1757C41.438 39.9056 43.8897 36.4519 43.8897 31.1154C43.8897 20.5607 36.1417 18 27.1943 18H2.57031V70.9779H27.8842C37.3729 70.9779 46.2778 66.3515 46.2778 55.5924C46.2778 48.9432 43.1786 44.0263 36.7573 42.1757V42.1757ZM14.0544 27.0377H24.8274C28.9774 27.0377 32.7028 28.2104 32.7028 33.095C32.7028 37.5924 29.8053 39.3999 25.6977 39.3999H14.0544V27.0377ZM26.3133 61.9833H14.0438V47.3939H26.5574C31.6096 47.3939 34.8044 49.535 34.8044 54.9576C34.8044 60.2941 30.994 61.9833 26.3133 61.9833V61.9833ZM87.4275 52.3539C87.4275 41.003 80.8788 31.5457 69.0338 31.5457C57.5178 31.5457 49.6849 40.3359 49.6849 51.8589C49.6849 63.8016 57.1039 72 69.0338 72C78.0661 72 83.9143 67.8793 86.727 59.0891H77.5673C76.5696 62.3706 72.5151 64.0921 69.3628 64.0921C63.2705 64.0921 60.0864 60.477 60.0864 54.3335H87.3532C87.385 53.6987 87.4275 53.0317 87.4275 52.3539V52.3539ZM60.0864 47.6844C60.4154 42.6384 63.7375 39.486 68.7048 39.486C73.9267 39.486 76.5377 42.5953 76.9941 47.6844H60.0864Z" fill="#F59740"/>
</svg>
