<svg width="400" height="400" viewBox="0 0 400 400" fill="none" xmlns="http://www.w3.org/2000/svg">
<path d="M130.617 382.925L129.55 382.483L131.396 373.636L131.368 373.625L125.642 380.865L124.616 380.44L125.769 371.306L125.741 371.295L120.833 378.873L119.766 378.431L125.738 369.54L126.874 370.01L125.735 379.15L125.763 379.161L131.544 371.945L132.681 372.415L130.617 382.925Z" fill="#F59740"/>
<path d="M117.551 377.346L111.453 374.383L111.899 373.466L116.972 375.93L118.584 372.611L113.903 370.337L114.348 369.419L119.03 371.694L120.669 368.321L115.596 365.856L116.042 364.939L122.14 367.902L117.551 377.346Z" fill="#F59740"/>
<path d="M108.888 373.054L103.727 370.207L103.185 368.332L104.591 365.784L105.569 365.501L105.104 363.891L106.473 361.409L108.47 360.832L113.96 363.86L108.888 373.054ZM106.437 366.288L105.418 366.583L104.324 368.566L104.625 369.572L108.395 371.651L110.206 368.368L106.437 366.288ZM108.438 361.945L107.264 362.274L106.249 364.112L106.598 365.281L110.67 367.527L112.51 364.191L108.438 361.945Z" fill="#F59740"/>
<path d="M98.4087 369.625L97.4593 369.05L105.619 355.579L106.569 356.154L98.4087 369.625Z" fill="#F59740"/>
<path d="M93.1028 363.713L92.0749 363.037L94.7194 352.211L95.7097 352.862L94.9677 355.767L98.6283 358.172L101 356.338L101.99 356.989L93.1028 363.713ZM94.6999 356.775L93.3012 362.264L93.3263 362.28L97.7963 358.81L94.6999 356.775Z" fill="#F59740"/>
<path d="M87.3412 359.851L82.515 356.286L82.2249 354.356L84.2301 351.642L86.1811 351.348L90.0782 354.227L92.6627 350.728L93.5797 351.405L87.3412 359.851ZM85.979 352.43L84.939 352.575L83.3348 354.747L83.5014 355.784L87.0124 358.377L89.49 355.023L85.979 352.43Z" fill="#F59740"/>
<path d="M78.7786 353.451L74.1544 349.628L73.9702 347.685L76.1208 345.084L78.0848 344.897L81.8188 347.985L84.5907 344.632L85.4693 345.359L78.7786 353.451ZM77.8239 345.966L76.7775 346.055L75.0571 348.136L75.1667 349.18L78.5308 351.961L81.188 348.748L77.8239 345.966Z" fill="#F59740"/>
<path d="M67.1036 343.432L62.7414 339.225L62.699 336.892L67.6969 331.709L70.0299 331.667L74.3921 335.873L67.1036 343.432ZM69.689 332.755L68.2572 332.771L63.7799 337.413L63.8165 338.845L66.991 341.906L72.8635 335.816L69.689 332.755Z" fill="#F59740"/>
<path d="M59.5226 336.003L54.8877 331.055L55.6322 330.357L59.4877 334.474L62.1808 331.951L58.6227 328.152L59.3671 327.455L62.9253 331.254L65.6622 328.69L61.8067 324.574L62.5511 323.877L67.186 328.825L59.5226 336.003Z" fill="#F59740"/>
<path d="M53.3702 329.402L52.6084 328.494L57.6006 320.232L57.5813 320.209L48.5781 323.691L47.8163 322.784L58.2412 318.872L59.0319 319.815L53.3702 329.402Z" fill="#F59740"/>
<path d="M46.0737 320.593L41.9859 315.184L42.7997 314.569L46.2001 319.069L49.144 316.844L46.0059 312.691L46.8197 312.076L49.9578 316.229L52.9496 313.968L49.5492 309.468L50.3629 308.854L54.4507 314.263L46.0737 320.593Z" fill="#F59740"/>
<path d="M40.2604 312.776L39.617 311.835L47.4555 306.477L44.4418 302.068L45.2715 301.501L48.9285 306.851L40.2604 312.776Z" fill="#F59740"/>
<path d="M43.0864 301.203L36.9556 304.979L34.6855 304.439L32.1999 300.403L32.7397 298.133L38.8704 294.357L41.1406 294.897L43.6261 298.933L43.0864 301.203ZM40.5395 295.866L39.1489 295.525L33.6568 298.907L33.3359 300.302L35.2865 303.47L36.6772 303.811L42.1693 300.429L42.4902 299.034L40.5395 295.866Z" fill="#F59740"/>
<path d="M29.9234 296.562L27.0642 291.287L27.6198 289.417L30.587 287.808L32.4782 288.37L34.787 292.629L38.6113 290.556L39.1546 291.559L29.9234 296.562ZM31.8365 289.264L30.833 288.955L28.4592 290.241L28.1705 291.251L30.2505 295.088L33.9166 293.101L31.8365 289.264Z" fill="#F59740"/>
<path d="M24.9274 287.243L24.4064 286.129L30.3413 279.628L30.3286 279.601L21.5344 279.987L21.007 278.859L30.5185 274.412L30.976 275.39L23.4619 278.904L23.4746 278.931L31.3401 278.647L31.7213 279.463L26.4546 285.304L26.4673 285.331L33.9814 281.817L34.4388 282.795L24.9274 287.243Z" fill="#F59740"/>
<path d="M19.5801 275.514L17.0797 269.212L18.0278 268.836L20.1078 274.078L23.5377 272.717L21.6181 267.879L22.5662 267.503L24.4858 272.341L27.9714 270.958L25.8915 265.716L26.8396 265.34L29.34 271.642L19.5801 275.514Z" fill="#F59740"/>
<path d="M16.0489 266.488L15.6943 265.436L22.1328 257.488L22.1232 257.46L13.9359 260.219L13.5909 259.196L23.5408 255.842L23.8954 256.894L17.4569 264.842L17.4665 264.87L25.6538 262.111L25.9988 263.134L16.0489 266.488Z" fill="#F59740"/>
<path d="M13.0021 253.684L13.8571 256.747L12.8891 257.017L10.8725 249.793L11.8405 249.523L12.6955 252.586L21.8409 250.033L22.1474 251.131L13.0021 253.684Z" fill="#F59740"/>
<path d="M293.053 27.9677L298.315 30.9727L298.93 33.2238L295.36 39.4762L293.108 40.0908L287.846 37.0857L293.053 27.9677ZM293.171 38.9521L294.556 38.5852L297.754 32.9841L297.367 31.6056L293.537 29.4187L289.342 36.7653L293.171 38.9521Z" fill="#F59740"/>
<path d="M301.741 32.9857L307.462 36.6254L306.914 37.4859L302.156 34.4583L300.175 37.5715L304.566 40.3657L304.019 41.2262L299.627 38.4321L297.614 41.596L302.373 44.6236L301.825 45.4842L296.105 41.8446L301.741 32.9857Z" fill="#F59740"/>
<path d="M303.822 45.1296L304.375 44.3451L305.294 44.9935L304.957 45.4716L305.122 46.4872L308.064 48.5621L309.118 48.3692L310.475 46.4447L310.286 45.4118L306.988 43.0862L306.656 41.1631L308.307 38.8218L310.23 38.4895L313.834 41.0313L314.167 42.9544L313.605 43.7511L312.697 43.1114L313.043 42.6211L312.854 41.5882L310.047 39.6083L309.01 39.7767L307.791 41.5051L307.981 42.538L311.278 44.8636L311.61 46.7867L309.821 49.3241L307.856 49.6637L304.154 47.0527L303.822 45.1296Z" fill="#F59740"/>
<path d="M316.765 43.1772L317.675 43.8645L311.344 52.2415L310.434 51.5542L316.765 43.1772Z" fill="#F59740"/>
<path d="M314.582 52.5917L319.129 47.0094L321.45 46.7723L325.009 49.6712L325.238 51.9082L324.631 52.6525L323.747 51.9325L324.117 51.4789L323.969 50.14L321.202 47.8852L319.776 48.0202L315.702 53.0209L315.858 54.4443L318.58 56.6612L320.005 56.5262L321.54 54.6422L319.703 53.1454L320.347 52.3545L323.068 54.5714L320.652 57.537L318.331 57.7741L314.819 54.913L314.582 52.5917Z" fill="#F59740"/>
<path d="M327.562 51.7748L328.386 52.5188L326.658 62.6005L326.681 62.6206L332.471 56.2084L333.273 56.9323L326.235 64.7248L325.412 63.9809L327.139 53.8992L327.117 53.8791L321.326 60.2912L320.525 59.5674L327.562 51.7748Z" fill="#F59740"/>
<path d="M340.481 64.0344L341.332 64.9229L336.33 74.8819L335.51 74.0259L336.884 71.3611L333.855 68.1972L331.133 69.4534L330.314 68.5974L340.481 64.0344ZM337.371 70.4381L339.963 65.4023L339.943 65.3806L334.809 67.7618L337.371 70.4381Z" fill="#F59740"/>
<path d="M345.009 68.7957L345.735 69.6355L342.778 79.4274L342.797 79.4501L349.334 73.8006L350.041 74.6177L342.096 81.4835L341.37 80.6437L344.327 70.8517L344.308 70.829L337.771 76.4786L337.065 75.6615L345.009 68.7957Z" fill="#F59740"/>
<path d="M352.029 76.9907L355.735 81.7851L355.439 84.0997L349.743 88.5032L347.428 88.207L343.722 83.4125L352.029 76.9907ZM347.923 87.1796L349.342 87.372L354.445 83.4271L354.617 82.0055L351.919 78.5164L345.226 83.6906L347.923 87.1796Z" fill="#F59740"/>
<path d="M353.204 93.2512L360.583 88.3642L361.212 89.3147L354.147 93.9945L353.872 95.3999L355.76 98.2512L357.162 98.5466L364.227 93.8668L364.857 94.8172L357.478 99.7041L355.192 99.2396L352.74 95.5379L353.204 93.2512Z" fill="#F59740"/>
<path d="M363.328 102.073L365.964 96.5083L366.612 97.606L364.418 102.178L369.466 102.436L370.114 103.534L363.924 103.201L361.15 109.004L360.502 107.906L362.834 103.096L357.496 102.817L356.847 101.72L363.328 102.073Z" fill="#F59740"/>
<path d="M373.475 105.111L374.004 106.087L360.157 113.592L359.628 112.616L373.475 105.111Z" fill="#F59740"/>
<path d="M365.416 113.338L373.347 109.412L373.853 110.433L366.258 114.194L365.81 115.554L367.327 118.619L368.68 119.087L376.275 115.327L376.781 116.348L368.85 120.275L366.639 119.528L364.669 115.549L365.416 113.338Z" fill="#F59740"/>
<path d="M378.036 119.114L378.503 120.153L368.927 124.459L368.459 123.419L378.036 119.114Z" fill="#F59740"/>
<path d="M14.5185 137.86L16.5834 132.163L18.6969 131.174L25.466 133.627L26.455 135.741L24.3902 141.438L14.5185 137.86ZM25.3223 135.873L24.725 134.571L18.661 132.373L17.3686 132.99L15.8659 137.136L23.8196 140.019L25.3223 135.873Z" fill="#F59740"/>
<path d="M18.5263 127.128L18.9586 126.073L28.6744 130.055L28.2421 131.11L18.5263 127.128Z" fill="#F59740"/>
<path d="M28.3968 126.317L21.8521 123.316L21.0401 121.129L22.9534 116.956L25.0615 116.174L25.9341 116.574L25.4589 117.61L24.9271 117.366L23.668 117.845L22.1798 121.09L22.6682 122.436L28.5311 125.125L29.8698 124.617L31.3329 121.426L30.8446 120.08L28.6358 119.067L27.6478 121.221L26.7207 120.796L28.1838 117.606L31.6606 119.2L32.4727 121.388L30.5844 125.505L28.3968 126.317Z" fill="#F59740"/>
<path d="M24.6663 113.407L25.1796 112.39L34.5548 117.118L34.0415 118.136L24.6663 113.407Z" fill="#F59740"/>
<path d="M28.7767 107.647L27.2407 110.431L26.3607 109.946L29.9834 103.378L30.8633 103.864L29.3274 106.648L37.6413 111.235L37.0906 112.233L28.7767 107.647Z" fill="#F59740"/>
<path d="M33.3928 97.6453L34.0454 96.6028L44.9272 99.0083L44.2985 100.013L41.3781 99.3349L39.0541 103.047L40.9397 105.378L40.3109 106.383L33.3928 97.6453ZM40.3639 99.0893L34.8459 97.8117L34.83 97.8372L38.398 102.23L40.3639 99.0893Z" fill="#F59740"/>
<path d="M37.4881 91.2181L38.1418 90.2841L45.921 95.7283L48.9828 91.3533L49.8062 91.9295L46.0907 97.2386L37.4881 91.2181Z" fill="#F59740"/>
<path d="M45.7171 79.7825L46.5009 78.8345L54.9172 81.4139L54.9363 81.3908L50.8212 73.6092L51.6145 72.6497L59.7068 79.3404L59.0186 80.1728L52.6257 74.8871L52.6066 74.9102L56.2308 81.8967L55.6573 82.5903L48.1238 80.332L48.1047 80.3552L54.4976 85.6408L53.8094 86.4732L45.7171 79.7825Z" fill="#F59740"/>
<path d="M55.5158 68.2832L56.3533 67.3824L66.5861 71.7972L65.7792 72.665L63.0391 71.4485L60.0566 74.6561L61.4688 77.3006L60.6619 78.1684L55.5158 68.2832ZM62.0894 71.016L56.9114 68.7207L56.891 68.7426L59.5665 73.7293L62.0894 71.016Z" fill="#F59740"/>
<path d="M71.3408 62.6066L73.5691 64.9173L72.7484 65.7086L70.7389 63.6247L68.6507 63.5337L65.9729 66.1159L69.0341 69.2904L68.2135 70.0817L60.925 62.5235L65.244 58.3586L67.1953 58.3941L69.4963 60.7803L69.4651 62.4983L71.3408 62.6066ZM65.2857 65.4033L68.4278 62.3734L68.4575 61.3237L66.6249 59.4233L65.5749 59.4148L62.4328 62.4448L65.2857 65.4033Z" fill="#F59740"/>
<path d="M68.6824 55.0927L69.5449 54.3472L72.6542 57.9449L74.504 56.3461L73.449 50.9732L74.3796 50.1689L75.5442 56.0816L81.4156 57.9661L80.4623 58.79L75.1823 57.108L73.3211 58.7166L76.4107 62.2915L75.5482 63.0369L68.6824 55.0927Z" fill="#F59740"/>
<path d="M77.5532 47.5412L82.9173 43.3945L83.5411 44.2015L79.0789 47.6509L81.3358 50.5703L85.4538 47.3869L86.0776 48.1939L81.9596 51.3773L84.2531 54.3442L88.7153 50.8947L89.3391 51.7017L83.975 55.8484L77.5532 47.5412Z" fill="#F59740"/>
<path d="M87.2437 41.4953L84.6384 43.3186L84.0621 42.4952L90.2068 38.1949L90.7831 39.0183L88.1777 40.8416L93.6219 48.6208L92.6879 49.2745L87.2437 41.4953Z" fill="#F59740"/>
<path d="M92.6118 36.6002L93.5691 35.9812L99.2705 44.7984L98.3132 45.4174L92.6118 36.6002Z" fill="#F59740"/>
<path d="M97.1264 33.6513L98.0841 33.0903L107.175 37.778L107.201 37.7628L102.834 30.3078L103.766 29.7619L109.073 38.8219L108.115 39.3829L99.0243 34.6952L98.9984 34.7103L103.365 42.1654L102.434 42.7113L97.1264 33.6513Z" fill="#F59740"/>
<path d="M110.53 36.0749L107.24 29.6704L107.954 27.4488L112.037 25.3516L114.178 26.0395L114.616 26.8934L113.602 27.4143L113.335 26.8939L112.049 26.492L108.874 28.1231L108.425 29.4831L111.373 35.2205L112.739 35.6484L115.861 34.0447L116.309 32.6847L115.199 30.5231L113.091 31.606L112.625 30.6987L115.747 29.095L117.495 32.4973L116.781 34.7189L112.751 36.7887L110.53 36.0749Z" fill="#F59740"/>
<path d="M394.08 221.368L393.163 228.542L392.084 228.404L392.847 222.436L388.943 221.937L388.239 227.444L387.159 227.306L387.863 221.799L383.896 221.292L383.133 227.259L382.054 227.121L382.971 219.948L394.08 221.368Z" fill="#F59740"/>
<path d="M392.858 230.595L392.65 231.76L382.549 235.886L382.544 235.918L391.616 237.54L391.413 238.674L380.388 236.702L380.596 235.537L390.697 231.411L390.702 231.379L381.63 229.756L381.833 228.622L392.858 230.595Z" fill="#F59740"/>
<path d="M389.231 243.542L390.006 240.239L391.049 240.484L389.222 248.273L388.178 248.028L388.953 244.726L379.093 242.412L379.371 241.229L389.231 243.542Z" fill="#F59740"/>
<path d="M388.607 250.612L386.61 257.562L385.565 257.262L387.226 251.48L383.443 250.393L381.91 255.729L380.864 255.429L382.397 250.092L378.553 248.988L376.891 254.77L375.846 254.469L377.843 247.519L388.607 250.612Z" fill="#F59740"/>
<path d="M375.924 264.92L372.688 263.802L373.085 262.653L376.004 263.661L378.033 262.737L379.328 258.987L374.882 257.451L375.279 256.301L385.865 259.959L383.776 266.008L381.904 266.919L378.561 265.764L377.76 264.116L375.924 264.92ZM380.327 259.332L378.806 263.732L379.286 264.745L381.948 265.664L382.95 265.164L384.47 260.763L380.327 259.332Z" fill="#F59740"/>
<path d="M382.257 270.173L379.83 276.095L377.91 276.899L374.578 275.534L373.766 273.592L375.726 268.81L371.432 267.051L371.893 265.926L382.257 270.173ZM374.937 273.519L375.359 274.557L378.024 275.649L379.053 275.206L380.818 270.898L376.703 269.211L374.937 273.519Z" fill="#F59740"/>
<path d="M367.845 283.597L364.749 282.135L365.268 281.036L368.061 282.354L370.178 281.655L371.872 278.067L367.618 276.059L368.137 274.959L378.265 279.741L375.533 285.528L373.573 286.231L370.376 284.721L369.757 282.996L367.845 283.597ZM372.827 278.518L370.839 282.728L371.206 283.786L373.753 284.989L374.803 284.6L376.791 280.39L372.827 278.518Z" fill="#F59740"/>
<path d="M373.487 289.57L372.924 290.648L362.999 285.457L363.563 284.379L373.487 289.57Z" fill="#F59740"/>
<path d="M362.978 288.687L363.867 289.195L363.272 290.237L362.73 289.928L361.668 290.206L359.764 293.54L360.076 294.64L362.257 295.885L363.335 295.579L365.469 291.842L367.477 291.294L370.131 292.809L370.68 294.817L368.347 298.902L366.339 299.45L365.436 298.935L366.023 297.907L366.579 298.224L367.656 297.918L369.473 294.736L369.189 293.653L367.23 292.534L366.152 292.84L364.018 296.578L362.01 297.126L359.134 295.483L358.573 293.432L360.969 289.236L362.978 288.687Z" fill="#F59740"/>
<path d="M366.347 302.257L362.442 308.345L361.526 307.757L364.774 302.693L361.461 300.568L358.464 305.242L357.548 304.654L360.546 299.981L357.179 297.821L353.931 302.885L353.015 302.298L356.919 296.21L366.347 302.257Z" fill="#F59740"/>
<path d="M356.443 316.762L355.652 317.809L344.314 314.235L345.076 313.227L348.116 314.22L350.933 310.493L349.147 307.84L349.909 306.831L356.443 316.762ZM349.171 314.576L354.914 316.45L354.934 316.424L351.553 311.423L349.171 314.576Z" fill="#F59740"/>
<path d="M351.77 322.836L347.638 327.723L345.563 327.897L342.814 325.573L342.638 323.476L345.975 319.529L342.431 316.534L343.216 315.605L351.77 322.836ZM343.775 323.767L343.858 324.884L346.057 326.743L347.172 326.638L350.178 323.083L346.781 320.211L343.775 323.767Z" fill="#F59740"/>
<path d="M344.822 330.948L340.43 335.603L338.349 335.663L335.73 333.193L335.669 331.089L339.216 327.33L335.841 324.146L336.675 323.261L344.822 330.948ZM336.789 331.441L336.81 332.561L338.905 334.538L340.024 334.494L343.219 331.107L339.984 328.055L336.789 331.441Z" fill="#F59740"/>
<path d="M334.057 341.936L329.276 346.286L326.79 346.168L321.622 340.487L321.739 338.001L326.521 333.651L334.057 341.936ZM322.874 338.44L322.79 339.965L327.42 345.054L328.946 345.115L332.426 341.949L326.353 335.274L322.874 338.44Z" fill="#F59740"/>
<path d="M325.999 349.136L320.392 353.703L319.705 352.86L324.37 349.06L321.884 346.009L317.579 349.515L316.892 348.672L321.196 345.165L318.67 342.064L314.006 345.863L313.319 345.02L318.926 340.452L325.999 349.136Z" fill="#F59740"/>
<path d="M319.195 354.67L318.176 355.417L309.731 349.526L309.705 349.545L312.782 359.371L311.762 360.118L308.328 348.749L309.386 347.973L319.195 354.67Z" fill="#F59740"/>
<path d="M309.841 361.422L303.797 365.393L303.2 364.484L308.228 361.18L306.066 357.891L301.426 360.94L300.829 360.03L305.469 356.982L303.272 353.639L298.244 356.942L297.647 356.033L303.691 352.062L309.841 361.422Z" fill="#F59740"/>
<path d="M301.667 366.692L300.621 367.311L295.469 358.59L290.565 361.488L290.02 360.565L295.971 357.049L301.667 366.692Z" fill="#F59740"/>
<path d="M289.914 362.634L293.498 369.426L292.763 371.804L288.292 374.164L285.914 373.429L282.329 366.637L283.064 364.259L287.536 361.899L289.914 362.634ZM284.053 364.967L283.591 366.423L286.803 372.508L288.265 372.948L291.774 371.096L292.236 369.64L289.025 363.556L287.562 363.115L284.053 364.967Z" fill="#F59740"/>
<path d="M284.687 375.961L278.87 378.629L276.918 377.905L275.418 374.633L276.15 372.66L280.847 370.505L278.913 366.288L280.019 365.781L284.687 375.961ZM277.055 373.406L276.655 374.452L277.856 377.07L278.91 377.449L283.142 375.508L281.288 371.465L277.055 373.406Z" fill="#F59740"/>
<path d="M274.988 380.34L273.765 380.815L267.271 374.033L267.241 374.044L267.023 383.431L265.785 383.912L261.732 373.471L262.806 373.054L266.008 381.302L266.038 381.291L266.299 372.9L267.194 372.552L273.033 378.576L273.063 378.564L269.862 370.316L270.936 369.899L274.988 380.34Z" fill="#F59740"/>
<path d="M263.164 384.779L256.285 387.011L255.949 385.976L261.672 384.119L260.457 380.375L255.176 382.089L254.84 381.054L260.121 379.341L258.886 375.536L253.164 377.393L252.828 376.358L259.707 374.126L263.164 384.779Z" fill="#F59740"/>
<path d="M253.928 387.689L252.784 387.994L244.765 380.596L244.734 380.604L247.11 389.508L245.997 389.805L243.109 378.984L244.253 378.679L252.272 386.077L252.303 386.069L249.926 377.165L251.039 376.867L253.928 387.689Z" fill="#F59740"/>
<path d="M240.829 389.829L244.148 389.13L244.369 390.179L236.541 391.828L236.32 390.779L239.639 390.08L237.552 380.169L238.742 379.919L240.829 389.829Z" fill="#F59740"/>
</svg>
