<svg width="145" height="113" viewBox="0 0 145 113" fill="none" xmlns="http://www.w3.org/2000/svg">
<path d="M78.0019 59.8838C59.7555 67.6192 42.6164 73.2165 29.6591 76.0146C23.1784 77.414 17.7565 78.1104 13.7702 78.0287C11.7761 77.9879 10.1565 77.7525 8.94785 77.3224C7.73902 76.8922 6.9716 76.2789 6.62391 75.4999C6.27623 74.721 6.3391 73.7557 6.84031 72.6005C7.34143 71.4456 8.26899 70.1303 9.59781 68.6808C12.2542 65.7829 16.4735 62.392 21.9424 58.7256C32.8766 51.395 48.7631 42.9913 67.0095 35.2559C85.2558 27.5205 102.395 21.9233 115.352 19.1252C121.833 17.7257 127.255 17.0293 131.241 17.111C133.235 17.1519 134.855 17.3872 136.064 17.8174C137.272 18.2476 138.04 18.8609 138.387 19.6398C138.735 20.4188 138.672 21.3841 138.171 22.5392C137.67 23.6942 136.742 25.0095 135.414 26.459C132.757 29.3568 128.538 32.7477 123.069 36.4142C112.135 43.7447 96.2482 52.1484 78.0019 59.8838Z" stroke="#F59740" stroke-width="0.5"/>
<path d="M77.2206 60.1853C58.5381 66.8564 41.0926 71.456 27.9925 73.5016C21.4404 74.5247 15.9881 74.9068 12.0162 74.5948C10.0294 74.4388 8.42807 74.11 7.24895 73.6105C6.06957 73.1109 5.34214 72.4541 5.04364 71.6563C4.74514 70.8584 4.86756 69.8981 5.43918 68.7733C6.01068 67.6487 7.01756 66.3886 8.43306 65.0176C11.2628 62.2769 15.6822 59.134 21.3653 55.7882C32.728 49.0986 49.0977 41.6236 67.7802 34.9525C86.4627 28.2813 103.908 23.6817 117.008 21.6361C123.56 20.613 129.013 20.2309 132.985 20.5429C134.971 20.699 136.573 21.0277 137.752 21.5272C138.931 22.0268 139.659 22.6837 139.957 23.4815C140.256 24.2793 140.133 25.2396 139.562 26.3645C138.99 27.4891 137.983 28.7491 136.568 30.1201C133.738 32.8609 129.319 36.0037 123.635 39.3496C112.273 46.0391 95.9031 53.5141 77.2206 60.1853Z" stroke="#F59740" stroke-width="0.5"/>
<path d="M132.176 55C132.176 85.2386 107.768 109.75 77.6622 109.75C47.5561 109.75 23.1484 85.2386 23.1484 55C23.1484 24.7614 47.5561 0.25 77.6622 0.25C107.768 0.25 132.176 24.7614 132.176 55Z" stroke="#F59740" stroke-width="0.5"/>
<path d="M119.9 94.7193C131.104 83.6547 137.399 66.6478 137.399 51L17.9141 51C17.9141 66.6478 24.2083 83.6547 35.4122 94.7193C46.616 105.784 61.8117 112 77.6563 112C93.5009 112 108.697 105.784 119.9 94.7193Z" fill="#1E213A"/>
<path d="M136.407 53C136.407 68.6478 130.218 83.6547 119.201 94.7193C108.184 105.784 93.2412 112 77.6606 112C62.0801 112 47.1376 105.784 36.1205 94.7193C25.1034 83.6547 18.9141 68.6478 18.9141 53" stroke="#F59740" stroke-width="0.5"/>
<path d="M130.433 53C130.433 67.0565 124.873 80.5372 114.977 90.4767C105.08 100.416 91.6571 106 77.661 106C63.6649 106 50.2421 100.416 40.3453 90.4767C30.4486 80.5372 24.8887 67.0565 24.8887 53" stroke="#F59740" stroke-width="0.5"/>
<path d="M124.459 53C124.459 65.4652 119.529 77.4198 110.753 86.234C101.976 95.0482 90.073 100 77.6614 100C65.2498 100 53.3465 95.0482 44.5701 86.234C35.7938 77.4198 30.8633 65.4652 30.8633 53" stroke="#F59740" stroke-width="0.7"/>
<path d="M118.484 53C118.484 63.8739 114.183 74.3024 106.527 81.9914C98.8707 89.6804 88.487 94 77.6598 94C66.8326 94 56.4489 89.6804 48.793 81.9914C41.137 74.3024 36.8359 63.8739 36.8359 53" stroke="#F59740" stroke-width="0.9"/>
<path d="M112.51 53C112.51 62.2826 108.838 71.185 102.303 77.7487C95.767 84.3125 86.9029 88 77.6602 88C68.4175 88 59.5534 84.3125 53.0178 77.7487C46.4822 71.185 42.8105 62.2826 42.8105 53" stroke="#F59740" stroke-width="1.1"/>
<path d="M106.536 53C106.536 60.6913 103.494 68.0675 98.0786 73.5061C92.6634 78.9447 85.3188 82 77.6606 82C70.0023 82 62.6578 78.9447 57.2426 73.5061C51.8274 68.0675 48.7852 60.6913 48.7852 53" stroke="#F59740" stroke-width="1.4"/>
<path d="M58.4375 33.7344C56.8352 38.3605 53.6306 47.6943 53.6306 48.0209C53.6306 48.1667 53.9501 49.7288 54.3751 51.7403C52.7181 56.5316 49.7852 65.0878 49.7852 65.4002C49.7852 65.7267 51.3874 73.1557 52.1886 76.8294L52.6693 69.0739L54.592 76.013L54.1113 78.4622L59.8795 88.6668V82.1358L62.7636 80.0949L62.283 84.1768L61.3216 89.8914L65.1671 93.1137L69.0125 89.2516L68.0512 94.562L72.858 102.286L77.6649 101.321L82.4717 102.286L87.2786 94.562L86.3172 89.2516L90.1627 93.1137L94.0082 89.8914L93.0468 84.1768L92.5661 80.0949L95.4502 82.1358V88.6668L101.218 78.4622L100.738 76.013L102.66 69.0739L103.141 76.8294C103.942 73.1557 105.545 65.7267 105.545 65.4002C105.545 65.0878 102.612 56.5316 100.955 51.7403C101.38 49.7288 101.699 48.1667 101.699 48.0209C101.699 47.6943 98.4945 38.3605 96.8923 33.7344H58.4375Z" fill="#F59740"/>
<path d="M77.6649 62.7031L73.2085 64.6342L67.0898 67.5307L68.4692 72.3583L71.2279 74.2893L73.9866 73.3238L76.3917 69.9981H78.9382L81.3432 73.3238L84.1019 74.2893L86.8606 72.3583L88.24 67.5307L82.1213 64.6342L77.6649 62.7031Z" fill="#1E213A"/>
<path d="M60.4595 36.6328L58.4355 54.4949L68.0492 62.7018L72.6031 59.8052H82.7228L87.2766 62.7018L96.8903 54.4949L94.8664 36.6328L77.6629 40.0121L60.4595 36.6328Z" fill="#1E213A"/>
<path d="M105.473 15.6486C105.389 15.7086 105.307 15.7703 105.223 15.832C105.151 15.8852 105.079 15.94 105.007 15.9966C104.931 16.0549 104.854 16.1149 104.779 16.1748C104.703 16.2331 104.628 16.2948 104.554 16.3548C103.955 16.8416 103.392 17.3558 102.879 17.8803C102.815 17.9454 102.751 18.0106 102.689 18.0774C102.502 18.2728 102.321 18.4716 102.149 18.6688C101.268 18.4322 100.338 18.266 99.4516 18.4854C98.4031 18.7425 97.5271 19.5206 96.902 20.4376C96.2785 21.3564 95.8749 22.4139 95.4779 23.4595C96.5853 23.2126 97.7272 23.1287 98.856 23.2126C98.6099 23.9085 98.3589 24.6181 97.9356 25.2163C97.5139 25.8145 96.8888 26.2996 96.18 26.3665C95.4319 26.435 94.71 26.0339 94.1374 25.5232C92.6542 24.1999 91.934 22.1945 90.9069 20.2542C89.9619 21.3015 88.738 22.0677 87.4139 22.4688C86.8479 22.6384 86.2638 22.7413 85.6765 22.7721C84.5789 22.827 83.4435 22.6213 82.5166 22.006C81.5895 21.3906 80.9021 20.3245 80.8824 19.1761C80.8545 17.6215 81.9686 16.3342 82.9398 14.9425C81.1843 12.2 79.4288 9.45929 77.6749 6.71684C77.6716 6.7117 77.6684 6.70827 77.6651 6.70312C77.6601 6.70827 77.6569 6.7117 77.6536 6.71684C77.6093 6.78712 77.5634 6.85739 77.5191 6.92766C75.8078 9.59984 74.0983 12.2703 72.387 14.9425C73.3567 16.3342 74.4723 17.6215 74.4461 19.1761C74.4264 20.3245 73.739 21.3906 72.812 22.006C71.885 22.6213 70.748 22.827 69.652 22.7721C69.063 22.7413 68.479 22.6384 67.9129 22.4688C66.5889 22.0677 65.365 21.3015 64.4216 20.2542C63.3945 22.1945 62.6726 24.1999 61.1911 25.5232C60.6185 26.0339 59.8966 26.435 59.1485 26.3665C58.4381 26.2996 57.8146 25.8145 57.3913 25.2163C56.9696 24.6181 56.717 23.9085 56.4725 23.2126C57.6013 23.1287 58.7416 23.2126 59.8507 23.4595C59.4536 22.4139 59.05 21.3564 58.4266 20.4376C57.8015 19.5206 56.9253 18.7425 55.8753 18.4854C54.9894 18.266 54.0607 18.4322 53.1797 18.6688C52.2445 17.5958 51.0682 16.5159 49.7852 15.5972C49.795 15.6161 49.8048 15.6349 49.8147 15.6538C52.3889 20.6108 54.7958 25.7648 57.2256 31.1657C59.6128 31.1057 61.6669 31.0526 63.4503 31.0029C72.0802 30.7647 74.4116 30.6481 77.8176 30.6721C78.0047 30.6738 78.195 30.6755 78.3902 30.6772C78.4395 30.6772 78.4887 30.6789 78.5379 30.6789C78.6462 30.6807 78.7577 30.6824 78.8693 30.6824C78.9563 30.6841 79.0432 30.6858 79.1335 30.6875C79.2516 30.6892 79.3714 30.691 79.4944 30.6927C79.5551 30.6944 79.6158 30.6944 79.6782 30.6961C80.2623 30.7064 80.8955 30.7201 81.6027 30.7372C81.7126 30.7389 81.8242 30.7424 81.939 30.7441C81.962 30.7458 81.985 30.7458 82.0079 30.7458C82.1392 30.7492 82.2721 30.7527 82.4099 30.7561C82.6511 30.7629 82.8988 30.7681 83.1564 30.7749C83.2434 30.7766 83.3303 30.7801 83.4173 30.7818C83.642 30.7869 83.8734 30.7938 84.1113 30.8006C84.2458 30.8041 84.3836 30.8075 84.5231 30.8109C84.6248 30.8126 84.7265 30.8161 84.8299 30.8178C84.925 30.8212 85.0186 30.8246 85.1153 30.8264C85.5551 30.8384 86.0177 30.8504 86.505 30.8641C86.7888 30.8709 87.0825 30.8795 87.3844 30.8864C87.3992 30.8881 87.4139 30.8881 87.4304 30.8881C87.5796 30.8915 87.7322 30.8966 87.8881 30.9001C88.1703 30.9086 88.4591 30.9155 88.756 30.9241C88.9857 30.9292 89.2203 30.9361 89.4599 30.9429C90.5361 30.9721 91.7109 31.0029 92.9971 31.0355C93.2137 31.0406 93.4319 31.0475 93.6551 31.0526C93.8733 31.0578 94.0948 31.0646 94.3195 31.0698C95.491 31.1006 96.7494 31.1315 98.1013 31.1657C100.543 25.7443 102.958 20.5713 105.542 15.5972C105.519 15.6144 105.496 15.6298 105.473 15.6486ZM62.4118 27.3023C63.4962 26.0528 64.3986 24.7278 64.922 23.2538C67.2649 24.0885 69.8194 24.9267 72.1623 24.0937C73.0088 24.9198 73.8571 25.6877 74.7611 26.3767C70.6413 26.6338 66.5249 26.9424 62.4118 27.3023ZM77.8521 18.9447L77.6634 19.2652L75.0384 14.8088L77.6634 10.3523L77.7405 10.4843L80.2885 14.8088L77.8521 18.9447ZM80.4591 26.3767C81.3632 25.6877 82.2114 24.9198 83.058 24.0937C85.4008 24.9267 87.9554 24.0885 90.2982 23.2538C90.8216 24.7278 91.724 26.0528 92.8085 27.3023C88.6953 26.9424 84.5789 26.6338 80.4591 26.3767Z" fill="#F59740"/>
<path d="M105.471 15.6486C105.386 15.7086 105.303 15.7703 105.219 15.832C105.146 15.8852 105.073 15.94 105 15.9966C104.923 16.0549 104.845 16.1149 104.769 16.1748C104.693 16.2331 104.616 16.2948 104.542 16.3548C103.936 16.8416 103.367 17.3558 102.848 17.8803C102.783 17.9454 102.718 18.0106 102.655 18.0774C102.466 18.2728 102.284 18.4716 102.11 18.6688C101.219 18.4322 100.278 18.266 99.3823 18.4854C98.3222 18.7425 97.4363 19.5206 96.8042 20.4376C96.1738 21.3564 95.7657 22.4139 95.3642 23.4595C96.4841 23.2126 97.6387 23.1287 98.78 23.2126C98.5312 23.9085 98.2774 24.6181 97.8494 25.2163C97.423 25.8145 96.7909 26.2996 96.0743 26.3665C95.3178 26.435 94.5878 26.0339 94.0088 25.5232C92.5091 24.1999 91.7808 22.1945 90.7423 20.2542C89.7867 21.3015 88.5492 22.0677 87.2103 22.4688C86.638 22.6384 86.0474 22.7413 85.4535 22.7721C84.3437 22.827 83.1956 22.6213 82.2583 22.006C81.321 21.3906 80.6259 20.3245 80.606 19.1761C80.5778 17.6215 81.7042 16.3342 82.6863 14.9425C80.9112 12.2 79.1361 9.45929 77.3627 6.71684C77.3594 6.7117 77.356 6.70827 77.3527 6.70312C77.3477 6.70827 77.3444 6.7117 77.3411 6.71684C77.2963 6.78712 77.2499 6.85739 77.2051 6.92766C77.298 8.11035 77.3726 9.29473 77.429 10.4843L80.0054 14.8088L77.5419 18.9447C77.5219 19.8909 77.4921 20.8404 77.4523 21.7917C77.9782 22.3573 78.504 22.923 79.1295 23.9565C78.5173 24.6816 77.9052 25.4049 77.429 26.5173C77.4605 27.9005 77.4871 29.2854 77.507 30.6721C77.6961 30.6738 77.8886 30.6755 78.086 30.6772C78.1358 30.6772 78.1855 30.6789 78.2353 30.6789C78.3448 30.6807 78.4576 30.6824 78.5704 30.6824C78.6583 30.6841 78.7479 30.6858 78.8375 30.6875C78.9569 30.6892 79.078 30.691 79.2025 30.6927C79.2639 30.6944 79.3253 30.6944 79.3883 30.6961C79.9789 30.7064 80.6192 30.7201 81.3343 30.7372C81.4454 30.7389 81.5582 30.7424 81.6744 30.7441C81.6976 30.7458 81.7208 30.7458 81.744 30.7458C81.8768 30.7492 82.0111 30.7527 82.1505 30.7561C82.3944 30.7629 82.6448 30.7681 82.9053 30.7749C82.9916 30.7766 83.0795 30.7801 83.1691 30.7818C83.3964 30.7869 83.6303 30.7938 83.8708 30.8006C84.0069 30.8041 84.1462 30.8075 84.2873 30.8109C84.3901 30.8126 84.493 30.8161 84.5975 30.8178C84.6937 30.8212 84.7883 30.8246 84.8861 30.8264C85.3307 30.8384 85.7986 30.8504 86.2913 30.8641C86.5783 30.8709 86.8752 30.8795 87.1805 30.8864C87.1954 30.8881 87.2103 30.8881 87.227 30.8881C87.3779 30.8932 87.5339 30.8966 87.6898 30.9001C87.9752 30.9086 88.2671 30.9172 88.5674 30.9241C88.7997 30.9309 89.0369 30.9361 89.2791 30.9429C90.3674 30.9721 91.5552 31.0029 92.8559 31.0355C93.0732 31.0406 93.2955 31.0475 93.5211 31.0526C93.7418 31.0578 93.9657 31.0646 94.193 31.0698C95.3775 31.1006 96.65 31.1315 98.0169 31.1657C100.485 25.7443 102.927 20.5713 105.54 15.5972C105.517 15.6144 105.494 15.6298 105.471 15.6486ZM80.178 26.3767C81.0921 25.6877 81.9497 24.9198 82.8058 24.0937C85.1748 24.9267 87.7578 24.0885 90.1268 23.2538C90.656 24.7278 91.5685 26.0528 92.6651 27.3023C88.506 26.9424 84.3437 26.6338 80.178 26.3767Z" fill="#F59740"/>
<path d="M130.034 12.371L132.642 16.1907L136.973 14.5981L133.17 17.2181L134.756 21.5676L132.147 17.7479L127.816 19.3405L131.619 16.7205L130.034 12.371Z" fill="#F59740"/>
<path d="M12.1216 72.1869L13.3158 74.3127L16.2326 73.5414L13.5273 74.8808L14.0144 77.2721L12.8202 75.1463L9.90344 75.9176L12.6087 74.5782L12.1216 72.1869Z" fill="#F59740"/>
<path d="M98.5696 30.6667L97.5496 34H57.77L56.75 30.6667L77.6598 30L98.5696 30.6667Z" fill="#1E213A"/>
<path d="M99.5664 51L136.407 51" stroke="#F59740" stroke-width="0.3"/>
<path d="M18.9141 51H55.7551" stroke="#F59740" stroke-width="0.3"/>
</svg>
