<svg width="84" height="91" viewBox="0 0 84 91" fill="none" xmlns="http://www.w3.org/2000/svg">
<rect x="0.707107" y="46.0547" width="58.3773" height="58.3773" transform="rotate(-45 0.707107 46.0547)" fill="#20233B" stroke="#EEC6A0"/>
<rect x="37.6641" y="85.9707" width="5.99156" height="5.99156" transform="rotate(-45 37.6641 85.9707)" fill="#20233B" stroke="#EEC6A0"/>
<rect x="38.1407" y="4.94336" width="5.99156" height="5.99156" transform="rotate(-45 38.1407 4.94336)" fill="#20233B" stroke="#EEC6A0"/>
<path d="M47.9672 61.2136C47.8609 61.3659 47.7316 61.5181 47.5527 61.5701C47.1116 61.6994 46.7866 61.187 46.447 60.8765C45.9551 60.4257 45.2325 60.358 44.5667 60.3121C43.9165 60.2686 43.2664 60.2239 42.6175 60.1804C42.4664 60.1695 42.3141 60.1598 42.1631 60.149C41.3619 60.2034 40.5607 60.2577 39.7595 60.3121C39.0925 60.358 38.371 60.4257 37.878 60.8765C37.5396 61.187 37.2134 61.6994 36.7723 61.5701C36.5934 61.5181 36.4653 61.3659 36.359 61.2136C35.9058 60.5598 35.6883 59.7466 35.7536 58.9538C36.2055 59.2269 36.6961 59.4348 37.2061 59.5677C37.1433 59.3901 37.1263 59.1955 37.159 59.0106C38.116 59.2801 39.1251 59.552 40.0906 59.3139C38.7964 59.181 37.5348 58.7375 36.44 58.0318C36.4726 58.1732 36.5064 58.3158 36.539 58.4572C36.2804 58.3484 36.0206 58.2421 35.762 58.1345C35.8998 57.3744 36.185 56.7013 36.6466 56.0898C38.0822 57.6221 40.0798 58.607 42.1631 58.8487C42.2296 58.8414 42.296 58.833 42.3625 58.8221C44.3733 58.543 46.2899 57.5726 47.6784 56.0898C48.1412 56.7013 48.4264 57.3744 48.5629 58.1345C48.3044 58.2421 48.0457 58.3484 47.7871 58.4572C47.8198 58.3158 47.8524 58.1732 47.885 58.0318C46.7914 58.7375 45.5298 59.181 44.2355 59.3139C45.2011 59.552 46.2101 59.2801 47.1672 59.0106C47.1986 59.1955 47.1817 59.3901 47.1189 59.5677C47.6288 59.4348 48.1207 59.2269 48.5714 58.9538C48.6379 59.7466 48.4191 60.5598 47.9672 61.2136Z" fill="white"/>
<path d="M50.878 58.1196C51.1716 61.1685 50.5251 64.3007 49.0484 66.9834C49.0122 66.72 48.9759 66.4566 48.9397 66.1931C48.0358 67.6493 46.7379 68.8577 45.2793 69.8196C47.4364 68.0614 48.1941 65.1478 48.8285 62.4385C48.9167 62.7708 49.0037 63.1044 49.0919 63.4379C50.6822 60.5135 50.0442 56.551 47.6152 54.2743C46.263 55.8961 44.2159 56.916 42.1761 56.9885C42.17 56.9812 42.1652 56.9728 42.1604 56.9655C42.1555 56.9728 42.1507 56.9812 42.1446 56.9885C42.0939 56.9873 42.0444 56.9849 41.9936 56.9812C40.0045 56.8652 38.0239 55.8562 36.7055 54.2743C34.2765 56.551 33.6385 60.5135 35.2288 63.4379C35.317 63.1044 35.404 62.7708 35.4922 62.4385C36.1267 65.1478 36.8844 68.0614 39.0414 69.8196C37.5828 68.8577 36.285 67.6493 35.3811 66.1931C35.3448 66.4566 35.3085 66.72 35.2723 66.9834C33.7956 64.3007 33.1491 61.1685 33.4427 58.1196C33.1708 58.1981 32.9255 58.3649 32.7539 58.5897C33.1962 55.7837 34.6415 53.1457 36.7683 51.2617C37.9103 51.9517 39.0535 52.6418 40.1967 53.3306C40.8661 53.7354 41.5549 54.1571 42.0057 54.7964C42.0298 54.8314 42.054 54.8665 42.0758 54.9039C42.106 54.9511 42.1338 55.0006 42.1604 55.0502C42.2063 54.9619 42.2582 54.8774 42.315 54.7964C42.7658 54.1571 43.4546 53.7354 44.1241 53.3306C45.2672 52.6418 46.4104 51.9517 47.5524 51.2617C49.6792 53.1457 51.1245 55.7837 51.5668 58.5897C51.3952 58.3649 51.1499 58.1981 50.878 58.1196Z" fill="#D9BDA3"/>
<path d="M55.9671 48.6535C55.9707 48.0722 55.9744 47.4898 55.9792 46.9073C55.5212 47.213 55.184 47.6154 54.7538 47.897C54.3236 48.1786 53.7895 48.3296 53.2868 48.2221C53.1913 49.2408 53.0874 50.2873 52.621 51.1972C52.1545 52.1084 51.2337 52.8624 50.2114 52.8201C49.9503 51.4123 49.2917 50.1447 48.302 49.2263C47.3123 48.3067 45.9987 47.7447 44.6514 47.6601C45.554 48.2184 46.1413 49.2263 46.1365 50.2522C45.8211 50.0069 45.3534 50.0734 45.0103 50.2788C44.6683 50.4843 44.4109 50.8009 44.1196 51.074C43.9263 51.254 43.716 51.4159 43.49 51.5513C43.2036 51.7253 42.8931 51.8558 42.5656 51.9271C42.4568 51.9513 42.3481 51.967 42.2369 51.9767C42.2127 51.9791 42.1886 51.9815 42.1644 51.9827C42.029 51.9742 41.8949 51.9561 41.7632 51.9271C41.4357 51.8558 41.1251 51.7253 40.8387 51.5513C40.6127 51.4159 40.4025 51.254 40.2104 51.074C39.9179 50.8009 39.6605 50.4843 39.3185 50.2788C38.9765 50.0734 38.5077 50.0069 38.1923 50.2522C38.1874 49.2263 38.7747 48.2184 39.6774 47.6601C38.33 47.7447 37.0165 48.3067 36.028 49.2263C35.0383 50.1447 34.3785 51.4123 34.1174 52.8201C33.0963 52.8624 32.1755 52.1084 31.709 51.1972C31.2414 50.2873 31.1374 49.2408 31.042 48.2221C30.5393 48.3296 30.0051 48.1786 29.5749 47.897C29.1459 47.6154 28.8076 47.213 28.3508 46.9073C28.3544 47.4898 28.358 48.0722 28.3617 48.6535C27.4759 45.8813 27.181 42.9231 27.5714 39.9987C28.6867 39.931 29.8021 39.8633 30.9163 39.7969C30.5006 40.0519 30.0837 40.308 29.668 40.5642C31.1858 40.4808 32.7169 40.6428 34.1839 41.0428C32.5211 41.444 30.9465 42.2041 29.5991 43.2578C30.2263 42.888 30.9743 42.7998 31.6969 42.7189C31.8166 42.7056 31.9422 42.6935 32.0534 42.7394C32.1743 42.7902 32.2564 42.9001 32.3398 43.0016C32.6625 43.3968 33.0697 43.7231 33.5265 43.9515C33.4443 45.5212 34.0413 47.039 34.6274 48.4976C34.428 47.2843 34.4727 46.0324 34.7567 44.8372C35.7259 44.8493 36.6962 44.6197 37.5566 44.1738C37.1337 44.8143 36.5464 45.3472 35.866 45.7049C36.5705 45.6904 37.2968 45.6396 37.9276 45.3255C38.5584 45.0125 39.0768 44.3756 39.1348 43.6155C39.7656 44.059 40.2418 44.72 40.4629 45.4596C40.6913 45.0922 40.8786 44.6983 41.0164 44.2886C41.455 44.8783 41.8381 45.5067 42.1656 46.1677C42.2115 46.0747 42.2586 45.9816 42.307 45.8898C42.6006 45.3303 42.9366 44.795 43.3124 44.2886C43.4514 44.6983 43.6375 45.0922 43.8659 45.4596C44.087 44.72 44.5631 44.059 45.1939 43.6155C45.2519 44.3756 45.7704 45.0125 46.4012 45.3255C47.032 45.6396 47.7582 45.6904 48.4627 45.7049C47.7824 45.3472 47.1951 44.8143 46.7721 44.1738C47.6325 44.6197 48.6029 44.8493 49.5721 44.8372C49.8561 46.0324 49.9008 47.2843 49.7014 48.4976C50.2887 47.039 50.8844 45.5212 50.8023 43.9515C51.2591 43.7231 51.6675 43.3968 51.9902 43.0016C52.0723 42.9001 52.1545 42.7902 52.2753 42.7394C52.3865 42.6935 52.5122 42.7056 52.6318 42.7189C53.3557 42.7998 54.1025 42.888 54.7309 43.2578C53.3823 42.2041 51.8077 41.444 50.1449 41.0428C51.6119 40.6428 53.143 40.4808 54.662 40.5642C54.2451 40.308 53.8282 40.0519 53.4125 39.7969C54.5279 39.8633 55.6432 39.931 56.7586 39.9987C57.1477 42.9231 56.8529 45.8813 55.9671 48.6535Z" fill="#D9BDA3"/>
<path d="M33.7461 39.7969C35.2136 40.1682 36.5852 40.9123 37.6966 41.94C37.9558 42.1797 38.206 42.438 38.5179 42.6034C38.8545 42.7819 39.2404 42.84 39.5988 42.9695C39.9571 43.099 40.3155 43.3347 40.4204 43.701C40.6568 43.2635 40.8979 42.743 40.6912 42.2906C40.6293 42.1549 40.5312 42.0393 40.43 41.9298C39.8899 41.3449 39.2236 40.8773 38.4901 40.5683C37.0769 39.973 35.4869 39.9809 33.7461 39.7969Z" fill="#D9BDA3"/>
<path d="M32.8164 42.4009C33.6883 42.4789 34.4474 41.6464 35.3196 41.7216C35.8 41.763 36.2088 42.0736 36.5876 42.372C36.9699 42.6731 37.3523 42.9742 37.7346 43.2753C36.7582 43.4687 35.8124 43.9605 34.8231 43.8498C33.9265 43.7495 33.1116 43.1101 32.8164 42.4009Z" fill="white"/>
<path d="M51.5082 42.4007C51.2133 43.1101 50.3988 43.7493 49.5022 43.8496C48.5125 43.9608 47.5663 43.469 46.5898 43.2756C46.9729 42.9747 47.3548 42.6738 47.7379 42.3717C48.1161 42.0732 48.5245 41.7627 49.0055 41.7216C49.878 41.6466 50.6369 42.4793 51.5082 42.4007Z" fill="white"/>
<path d="M50.579 39.7969C49.1108 40.1691 47.7392 40.9123 46.6286 41.9406C46.3689 42.1799 46.1187 42.4385 45.8069 42.6041C45.4698 42.7817 45.0843 42.8409 44.7266 42.9702C44.3677 43.0995 44.0088 43.3352 43.9049 43.7013C43.668 43.2639 43.4263 42.743 43.633 42.2911C43.6958 42.1557 43.7937 42.0397 43.8952 41.9298C44.4354 41.3449 45.1012 40.8772 45.8347 40.5691C47.2474 39.9733 48.8377 39.9818 50.579 39.7969Z" fill="#F59740"/>
<path d="M62.6455 27.547C62.5839 27.5893 62.5235 27.6328 62.4618 27.6763C62.4087 27.7138 62.3555 27.7525 62.3023 27.7924C62.2467 27.8334 62.1899 27.8757 62.1343 27.918C62.0788 27.9591 62.0232 28.0026 61.9688 28.0449C61.5277 28.3881 61.1132 28.7506 60.735 29.1204C60.6879 29.1663 60.6407 29.2123 60.5948 29.2594C60.457 29.3972 60.3241 29.5373 60.1972 29.6763C59.5483 29.5095 58.8631 29.3923 58.2106 29.547C57.4384 29.7283 56.7931 30.2769 56.3327 30.9234C55.8735 31.5711 55.5762 32.3167 55.2838 33.0539C56.0994 32.8799 56.9405 32.8206 57.7719 32.8799C57.5906 33.3705 57.4058 33.8708 57.094 34.2925C56.7834 34.7143 56.323 35.0562 55.801 35.1034C55.2499 35.1517 54.7182 34.8689 54.2964 34.5088C53.204 33.5759 52.6735 32.162 51.917 30.7941C51.221 31.5325 50.3195 32.0726 49.3443 32.3554C48.9274 32.475 48.4972 32.5475 48.0646 32.5693C47.2561 32.608 46.4199 32.4629 45.7371 32.0291C45.0544 31.5953 44.548 30.8437 44.5335 30.034C44.513 28.938 45.3335 28.0304 46.0489 27.0492C44.7559 25.1157 43.4629 23.1834 42.1711 21.2499C42.1686 21.2463 42.1662 21.2439 42.1638 21.2402C42.1602 21.2439 42.1577 21.2463 42.1553 21.2499C42.1227 21.2995 42.0889 21.349 42.0562 21.3985C40.7958 23.2825 39.5367 25.1652 38.2763 27.0492C38.9904 28.0304 39.8122 28.938 39.7928 30.034C39.7783 30.8437 39.272 31.5953 38.5892 32.0291C37.9065 32.4629 37.069 32.608 36.2618 32.5693C35.828 32.5475 35.3978 32.475 34.9809 32.3554C34.0057 32.0726 33.1042 31.5325 32.4093 30.7941C31.6528 32.162 31.1211 33.5759 30.0299 34.5088C29.6082 34.8689 29.0765 35.1517 28.5254 35.1034C28.0022 35.0562 27.543 34.7143 27.2312 34.2925C26.9206 33.8708 26.7345 33.3705 26.5545 32.8799C27.3859 32.8206 28.2257 32.8799 29.0426 33.0539C28.7502 32.3167 28.4529 31.5711 27.9937 30.9234C27.5333 30.2769 26.888 29.7283 26.1146 29.547C25.4621 29.3923 24.7781 29.5095 24.1291 29.6763C23.4403 28.9198 22.5739 28.1585 21.6289 27.5108C21.6361 27.5241 21.6434 27.5374 21.6507 27.5507C23.5467 31.0455 25.3194 34.6792 27.1091 38.487C28.8674 38.4447 30.3804 38.4072 31.6939 38.3722C38.0503 38.2042 39.7675 38.122 42.2762 38.139C42.4139 38.1402 42.5541 38.1414 42.6979 38.1426C42.7342 38.1426 42.7704 38.1438 42.8067 38.1438C42.8864 38.145 42.9686 38.1462 43.0508 38.1462C43.1148 38.1474 43.1789 38.1486 43.2453 38.1498C43.3323 38.151 43.4206 38.1523 43.5112 38.1535C43.5559 38.1547 43.6006 38.1547 43.6465 38.1559C44.0768 38.1631 44.5432 38.1728 45.064 38.1849C45.145 38.1861 45.2272 38.1885 45.3118 38.1897C45.3287 38.1909 45.3456 38.1909 45.3625 38.1909C45.4592 38.1933 45.5571 38.1958 45.6586 38.1982C45.8362 38.203 46.0187 38.2066 46.2084 38.2115C46.2725 38.2127 46.3365 38.2151 46.4006 38.2163C46.5661 38.2199 46.7365 38.2248 46.9117 38.2296C47.0108 38.232 47.1123 38.2344 47.215 38.2368C47.29 38.2381 47.3649 38.2405 47.441 38.2417C47.5111 38.2441 47.58 38.2465 47.6513 38.2477C47.9751 38.2562 48.3159 38.2646 48.6748 38.2743C48.8839 38.2791 49.1002 38.2852 49.3225 38.29C49.3334 38.2912 49.3443 38.2912 49.3564 38.2912C49.4663 38.2936 49.5787 38.2973 49.6935 38.2997C49.9014 38.3057 50.1141 38.3106 50.3328 38.3166C50.502 38.3202 50.6748 38.3251 50.8512 38.3299C51.6439 38.3504 52.5092 38.3722 53.4566 38.3951C53.6161 38.3988 53.7768 38.4036 53.9412 38.4072C54.1019 38.4109 54.265 38.4157 54.4306 38.4193C55.2934 38.4411 56.2203 38.4628 57.216 38.487C59.0142 34.6647 60.793 31.0177 62.6963 27.5108C62.6794 27.5229 62.6624 27.5338 62.6455 27.547ZM30.929 35.7632C31.7278 34.8822 32.3924 33.9481 32.7779 32.9089C34.5035 33.4974 36.3851 34.0883 38.1107 33.501C38.7343 34.0835 39.359 34.6248 40.0249 35.1106C36.9905 35.2919 33.9585 35.5094 30.929 35.7632ZM42.3016 29.8709L42.1626 30.0968L40.2291 26.9549L42.1626 23.813L42.2194 23.906L44.0961 26.9549L42.3016 29.8709ZM44.2218 35.1106C44.8876 34.6248 45.5124 34.0835 46.1359 33.501C47.8615 34.0883 49.7431 33.4974 51.4687 32.9089C51.8542 33.9481 52.5188 34.8822 53.3176 35.7632C50.2881 35.5094 47.2561 35.2919 44.2218 35.1106Z" fill="#D9BDA3"/>
<path d="M56.9389 54.296C58.0809 57.4186 58.0277 60.963 56.7939 64.0505C56.5111 61.5321 55.6604 59.0778 54.3202 56.9268C55.2374 57.508 55.9492 58.4059 56.3093 59.4295C56.0991 57.1213 55.3607 54.8628 54.168 52.8761C54.9353 53.0356 55.6821 53.2967 56.3806 53.6507C55.8707 52.9462 55.3051 52.2816 54.6924 51.6641C55.4852 51.7909 56.2453 52.0955 56.9111 52.6489C57.6869 53.2954 58.2791 54.1619 58.5969 55.1202C58.0446 54.8459 57.4912 54.5703 56.9389 54.296Z" fill="#F59740"/>
<path d="M53.889 65.3584C53.2449 66.8605 52.2479 68.1825 51.1797 69.4175C52.2335 66.9572 52.5718 64.1947 52.1428 61.5518C52.625 62.2902 52.9271 63.1446 53.0165 64.0219C53.6775 62.9609 54.1403 61.7766 54.3784 60.5742C54.799 62.1524 54.5319 63.8575 53.889 65.3584Z" fill="#F59740"/>
<path d="M46.4165 63.6527C45.9428 65.7759 44.9495 67.7819 43.5163 69.4943C43.4885 69.5269 43.4607 69.5608 43.4329 69.5934C43.4462 68.6073 43.3399 67.62 43.1151 66.6605C42.7985 66.756 42.4807 66.8527 42.1641 66.9493C42.5399 65.0593 42.5435 63.0956 42.1725 61.2274C42.2184 61.2262 42.2656 61.225 42.3115 61.225C43.2553 61.2129 44.2015 61.4933 44.9857 62.0189C45.2166 62.1736 45.4401 62.3512 45.7048 62.4383C45.8848 62.4975 46.0854 62.5144 46.2377 62.628C46.5326 62.8479 46.4975 63.2938 46.4165 63.6527Z" fill="#A5805F"/>
<path d="M62.644 27.547C62.5823 27.5893 62.5219 27.6328 62.4603 27.6763C62.4071 27.7138 62.3539 27.7525 62.3008 27.7924C62.2452 27.8334 62.1884 27.8757 62.1328 27.918C62.0772 27.9591 62.0216 28.0026 61.9672 28.0449C61.5262 28.3881 61.1117 28.7506 60.7334 29.1204C60.6863 29.1663 60.6392 29.2123 60.5933 29.2594C60.4555 29.3972 60.3226 29.5373 60.1957 29.6763C59.5467 29.5095 58.8616 29.3923 58.209 29.547C57.4368 29.7283 56.7915 30.2769 56.3311 30.9234C55.8719 31.5711 55.5746 32.3167 55.2822 33.0539C56.0979 32.8799 56.939 32.8206 57.7703 32.8799C57.5891 33.3705 57.4042 33.8708 57.0924 34.2925C56.7819 34.7143 56.3214 35.0562 55.7994 35.1034C55.2484 35.1517 54.7166 34.8689 54.2949 34.5088C53.2025 33.5759 52.672 32.162 51.9155 30.7941C51.2194 31.5325 50.318 32.0726 49.3427 32.3554C48.9258 32.475 48.4956 32.5475 48.063 32.5693C47.2546 32.608 46.4183 32.4629 45.7356 32.0291C45.0528 31.5953 44.5465 30.8437 44.532 30.034C44.5114 28.938 45.332 28.0304 46.0473 27.0492C44.7543 25.1157 43.4613 23.1834 42.1695 21.2499C42.1671 21.2463 42.1647 21.2439 42.1622 21.2402C42.1586 21.2439 42.1562 21.2463 42.1538 21.2499C42.1211 21.2995 42.0873 21.349 42.0547 21.3985C42.1223 22.2324 42.1767 23.0674 42.2178 23.906L44.0945 26.9549L42.3 29.8709C42.2855 30.5379 42.2637 31.2074 42.2347 31.8781C42.6178 32.2769 43.0009 32.6756 43.4565 33.4043C43.0106 33.9155 42.5647 34.4254 42.2178 35.2097C42.2408 36.1849 42.2601 37.1613 42.2746 38.139C42.4124 38.1402 42.5526 38.1414 42.6964 38.1426C42.7326 38.1426 42.7689 38.1438 42.8051 38.1438C42.8849 38.145 42.967 38.1462 43.0492 38.1462C43.1133 38.1474 43.1785 38.1486 43.2438 38.1498C43.3308 38.151 43.419 38.1523 43.5096 38.1535C43.5544 38.1547 43.5991 38.1547 43.645 38.1559C44.0752 38.1631 44.5416 38.1728 45.0625 38.1849C45.1434 38.1861 45.2256 38.1885 45.3102 38.1897C45.3271 38.1909 45.344 38.1909 45.361 38.1909C45.4576 38.1933 45.5555 38.1958 45.657 38.1982C45.8347 38.203 46.0171 38.2066 46.2069 38.2115C46.2697 38.2127 46.3338 38.2151 46.399 38.2163C46.5645 38.2199 46.7349 38.2248 46.9102 38.2296C47.0093 38.232 47.1108 38.2344 47.2135 38.2368C47.2884 38.2381 47.3633 38.2405 47.4395 38.2417C47.5096 38.2441 47.5784 38.2465 47.6497 38.2477C47.9736 38.2562 48.3144 38.2646 48.6733 38.2743C48.8823 38.2791 49.0986 38.2852 49.321 38.29C49.3319 38.2912 49.3427 38.2912 49.3548 38.2912C49.4648 38.2948 49.5784 38.2973 49.692 38.2997C49.8998 38.3057 50.1125 38.3118 50.3312 38.3166C50.5004 38.3214 50.6732 38.3251 50.8497 38.3299C51.6424 38.3504 52.5076 38.3722 53.455 38.3951C53.6133 38.3988 53.7753 38.4036 53.9396 38.4072C54.1004 38.4109 54.2635 38.4157 54.429 38.4193C55.2918 38.4411 56.2187 38.4628 57.2145 38.487C59.0126 34.6647 60.7914 31.0177 62.6947 27.5108C62.6778 27.5229 62.6609 27.5338 62.644 27.547ZM44.2202 35.1106C44.886 34.6248 45.5108 34.0835 46.1344 33.501C47.86 34.0883 49.7415 33.4974 51.4672 32.9089C51.8526 33.9481 52.5173 34.8822 53.3161 35.7632C50.2865 35.5094 47.2546 35.2919 44.2202 35.1106Z" fill="#A5805F"/>
<path d="M46.4439 60.8765C45.952 60.4257 45.2294 60.358 44.5636 60.3121C43.9134 60.2686 43.2633 60.2239 42.6144 60.1804C42.5346 59.7272 42.45 59.2741 42.3594 58.8221C44.3702 58.543 46.2868 57.5726 47.6753 56.0898C48.1381 56.7013 48.4233 57.3744 48.5598 58.1345C48.3012 58.2421 48.0426 58.3484 47.784 58.4572C47.8167 58.3158 47.8493 58.1732 47.8819 58.0318C46.7883 58.7375 45.5267 59.181 44.2324 59.3139C45.198 59.552 46.207 59.2801 47.1641 59.0106C47.1955 59.1955 47.1786 59.3901 47.1158 59.5677C47.6257 59.4348 48.1176 59.2269 48.5683 58.9538C48.6348 59.7466 48.416 60.5598 47.9641 61.2136C47.8577 61.3659 47.7284 61.5181 47.5496 61.5701C47.1085 61.6994 46.7834 61.187 46.4439 60.8765Z" fill="#CCCCCC"/>
<path d="M50.579 39.7969C49.1108 40.1691 47.7392 40.9123 46.6286 41.9406C46.3689 42.1799 46.1187 42.4385 45.8069 42.6041C45.4698 42.7817 45.0843 42.8409 44.7266 42.9702C44.3677 43.0995 44.0088 43.3352 43.9049 43.7013C43.668 43.2639 43.4263 42.743 43.633 42.2911C43.6958 42.1557 43.7937 42.0397 43.8952 41.9298C44.4354 41.3449 45.1012 40.8772 45.8347 40.5691C47.2474 39.9733 48.8377 39.9818 50.579 39.7969Z" fill="#A5805F"/>
<path d="M50.8805 58.1196C51.1741 61.1685 50.5276 64.3007 49.0509 66.9834C49.0147 66.72 48.9784 66.4566 48.9422 66.1931C48.0467 67.636 46.7646 68.836 45.3217 69.793C45.3084 69.8015 45.2951 69.8112 45.2818 69.8196C45.3419 69.7707 45.4004 69.7205 45.4583 69.6698C45.4888 69.6427 45.5188 69.6152 45.5491 69.588C47.5023 67.8127 48.2236 65.0324 48.831 62.4385C48.9192 62.7708 49.0062 63.1044 49.0944 63.4379C50.6847 60.5135 50.0467 56.551 47.6177 54.2743C46.2655 55.8961 44.2184 56.916 42.1786 56.9885C42.1725 56.9812 42.1677 56.9728 42.1629 56.9655C42.158 56.9728 42.1532 56.9812 42.1471 56.9885C42.0964 56.9873 42.0469 56.9849 41.9961 56.9812C42.0565 56.2683 42.0686 55.5782 42.0783 54.9039C42.1085 54.9511 42.1363 55.0006 42.1629 55.0502C42.2088 54.9619 42.2607 54.8774 42.3175 54.7964C42.7683 54.1571 43.4571 53.7354 44.1266 53.3306C44.8504 52.8943 45.5743 52.4581 46.2981 52.0206C46.7174 51.7681 47.1368 51.5143 47.5549 51.2617C49.6817 53.1457 51.127 55.7837 51.5693 58.5897C51.3977 58.3649 51.1524 58.1981 50.8805 58.1196Z" fill="#A5805F"/>
<path d="M53.889 65.3584C53.2558 66.8339 52.283 68.1354 51.2353 69.3523C51.2171 69.374 51.199 69.3958 51.1797 69.4175C52.2335 66.9572 52.5718 64.1947 52.1428 61.5518C52.625 62.2902 52.9271 63.1446 53.0165 64.0219C53.031 63.9977 53.0467 63.9735 53.0612 63.9494C53.6981 62.9077 54.1452 61.75 54.3784 60.5742C54.799 62.1524 54.5319 63.8575 53.889 65.3584Z" fill="#A5805F"/>
<path d="M55.9646 48.6535C55.9682 48.0722 55.9718 47.4898 55.9767 46.9073C55.5187 47.213 55.1815 47.6154 54.7513 47.897C54.3211 48.1786 53.787 48.3296 53.2843 48.2221C53.1888 49.2408 53.0849 50.2873 52.6184 51.1972C52.152 52.1072 51.2336 52.8612 50.2125 52.8201H50.2088C49.9478 51.4123 49.2892 50.1447 48.2995 49.2263C47.3098 48.3067 45.9962 47.7447 44.6488 47.6601C45.5515 48.2184 46.1388 49.2263 46.134 50.2522C45.8186 50.0069 45.3509 50.0734 45.0077 50.2788C44.6657 50.4843 44.4084 50.8009 44.1171 51.074C43.9238 51.254 43.7135 51.4159 43.4875 51.5513C43.2011 51.7253 42.8906 51.8558 42.5631 51.9271C42.4543 51.9513 42.3456 51.967 42.2344 51.9767C42.2452 51.8981 42.2573 51.8196 42.2706 51.741C42.4942 50.4226 42.9703 48.9713 42.2791 47.8281C42.29 47.178 42.2984 46.5315 42.3045 45.8898C42.5981 45.3303 42.9341 44.795 43.3099 44.2886C43.4489 44.6983 43.6349 45.0922 43.8634 45.4596C43.8646 45.4535 43.867 45.4487 43.8682 45.4427C43.8682 45.4415 43.8682 45.4415 43.8682 45.4415C44.0917 44.7091 44.5654 44.0554 45.1914 43.6155C45.2494 44.3756 45.7678 45.0125 46.3986 45.3255C47.0294 45.6396 47.7557 45.6904 48.4602 45.7049C47.7799 45.3472 47.1926 44.8143 46.7696 44.1738C47.63 44.6197 48.6004 44.8493 49.5696 44.8372C49.601 44.9714 49.63 45.1067 49.6554 45.2421C49.8608 46.314 49.8753 47.4209 49.6989 48.4976C50.2862 47.039 50.8819 45.5212 50.7997 43.9515C51.2565 43.7231 51.665 43.3968 51.9876 43.0016C52.0698 42.9001 52.152 42.7902 52.2728 42.7394C52.384 42.6935 52.5097 42.7056 52.6293 42.7189C53.3532 42.7998 54.1 42.888 54.7284 43.2578C53.3798 42.2041 51.8052 41.444 50.1424 41.0428C51.6094 40.6428 53.1405 40.4808 54.6595 40.5642C54.251 40.3129 53.8414 40.0615 53.4341 39.8114C53.4257 39.8065 53.4184 39.8017 53.41 39.7969C54.5254 39.8633 55.6407 39.931 56.7561 39.9987C57.1452 42.9231 56.8504 45.8813 55.9646 48.6535Z" fill="#A5805F"/>
<path d="M56.9389 54.296C58.0652 57.3751 58.0289 60.8639 56.8447 63.92C56.8277 63.9635 56.8108 64.007 56.7939 64.0505C56.5111 61.5321 55.6604 59.0778 54.3202 56.9268C55.2374 57.508 55.9492 58.4059 56.3093 59.4295C56.0991 57.1213 55.3607 54.8628 54.168 52.8761C54.9353 53.0356 55.6821 53.2967 56.3806 53.6507C55.8707 52.9462 55.3051 52.2816 54.6924 51.6641C54.7069 51.6665 54.7226 51.6689 54.7372 51.6725C55.5142 51.803 56.2574 52.1064 56.9111 52.6489C57.6869 53.2954 58.2791 54.1619 58.5969 55.1202C58.0446 54.8459 57.4912 54.5703 56.9389 54.296Z" fill="#A5805F"/>
<path d="M48.3565 45.1734C48.5595 45.4247 48.8012 45.6459 49.0683 45.8271C48.2744 46.0374 47.42 46.1039 46.6381 45.8549C45.8551 45.606 45.1578 45.0006 44.9427 44.2078C44.533 44.5861 44.1669 45.0694 43.9107 45.606C43.895 45.5516 43.8805 45.496 43.8672 45.4404C43.8672 45.4392 43.8672 45.4392 43.8672 45.4392C44.0907 44.7069 44.5645 44.0532 45.1904 43.6133C45.2484 44.3734 45.7669 45.0102 46.3977 45.3232C47.0285 45.6374 47.7547 45.6882 48.4592 45.7027C47.7789 45.345 47.1916 44.812 46.7686 44.1716C47.629 44.6175 48.5994 44.8471 49.5686 44.835C49.6 44.9691 49.629 45.1045 49.6544 45.2398C49.2217 45.2894 48.7807 45.2676 48.3565 45.1734Z" fill="#F59740"/>
<path d="M62.6954 27.5117C60.7921 31.0186 59.0133 34.6656 57.2151 38.4879C56.2194 38.4637 55.2925 38.442 54.4297 38.4202C55.0919 38.1471 55.7602 37.8897 56.4538 37.6384C58.2894 34.1376 60.1492 30.5993 62.6446 27.548C62.6615 27.5347 62.6785 27.5238 62.6954 27.5117Z" fill="#F59740"/>
<path d="M21.6289 27.5117C23.5322 31.0186 25.311 34.6656 27.1091 38.4879C28.1049 38.4637 29.0318 38.442 29.8946 38.4202C29.2324 38.1471 28.5641 37.8897 27.8705 37.6384C26.0348 34.1376 24.1751 30.5993 21.6797 27.548C21.6627 27.5347 21.6458 27.5238 21.6289 27.5117Z" fill="#FFC670"/>
<path d="M55.9631 48.6535C55.9667 48.0722 55.9703 47.4898 55.9752 46.9073C55.5172 47.213 55.18 47.6154 54.7498 47.897C54.3196 48.1786 53.7855 48.3296 53.2828 48.2221C53.1873 49.2408 53.0834 50.2873 52.6169 51.1972C52.1505 52.1072 51.2321 52.8612 50.2109 52.8201C50.9444 52.338 51.4991 51.5465 51.8097 50.7018C52.1952 49.6565 52.2604 48.5242 52.2846 47.3206C53.0012 47.2867 53.7263 47.1683 54.3716 46.8541C55.0169 46.5411 55.58 46.0155 55.8338 45.3859C55.9063 45.4789 55.9788 45.5708 56.0525 45.6638C56.4102 43.9333 56.4404 42.1364 56.1552 40.4349C55.2477 40.2271 54.3414 40.0192 53.4326 39.8114C53.4242 39.8065 53.4169 39.8017 53.4085 39.7969C54.5238 39.8633 55.6392 39.931 56.7546 39.9987C57.1437 42.9231 56.8489 45.8813 55.9631 48.6535Z" fill="#F59740"/>
<path d="M28.3621 48.6535C28.3585 48.0722 28.3548 47.4898 28.35 46.9073C28.808 47.213 29.1452 47.6154 29.5754 47.897C30.0056 48.1786 30.5397 48.3296 31.0424 48.2221C31.1379 49.2408 31.2418 50.2873 31.7082 51.1972C32.1747 52.1072 33.0931 52.8612 34.1142 52.8201C33.3807 52.338 32.826 51.5465 32.5155 50.7018C32.13 49.6565 32.0647 48.5242 32.0406 47.3206C31.324 47.2867 30.5989 47.1683 29.9536 46.8541C29.3083 46.5411 28.7452 46.0155 28.4914 45.3859C28.4189 45.4789 28.3464 45.5708 28.2727 45.6638C27.915 43.9333 27.8848 42.1364 28.17 40.4349C29.0775 40.2271 29.9838 40.0192 30.8926 39.8114C30.901 39.8065 30.9083 39.8017 30.9167 39.7969C29.8013 39.8633 28.686 39.931 27.5706 39.9987C27.1815 42.9231 27.4763 45.8813 28.3621 48.6535Z" fill="#FFC670"/>
<path d="M56.94 54.2954C58.0663 57.3745 58.0301 60.8632 56.8458 63.9193C57.0681 62.3182 57.044 60.6856 56.9896 59.0663C56.934 57.3853 56.8422 55.6754 56.2573 54.0996C56.6875 53.9063 57.0899 53.9147 57.4669 54.0186C56.6657 53.0531 55.7485 52.2773 54.7383 51.6719C55.5153 51.8024 56.2585 52.1057 56.9122 52.6483C57.6881 53.2948 58.2802 54.1612 58.598 55.1195C58.0457 54.8452 57.4923 54.5697 56.94 54.2954Z" fill="#F59740"/>
<path d="M53.8881 65.3584C53.2549 66.8339 52.2821 68.1354 51.2344 69.3523C52.4863 67.4514 53.2391 65.2521 53.9751 63.089C53.6561 63.6195 53.2573 64.1028 52.7957 64.5173C52.908 64.3361 52.9951 64.1463 53.0603 63.9494C53.6971 62.9077 54.1443 61.75 54.3775 60.5742C54.798 62.1524 54.531 63.8575 53.8881 65.3584Z" fill="#F59740"/>
<path d="M27.3884 54.2589C26.2465 57.3815 26.2996 60.9258 27.5334 64.0134C27.8162 61.495 28.667 59.0407 30.0071 56.8897C29.0899 57.4709 28.3781 58.3688 28.018 59.3923C28.2283 57.0842 28.9667 54.8257 30.1594 52.839C29.392 52.9985 28.6452 53.2595 27.9467 53.6136C28.4567 52.9091 29.0222 52.2445 29.6349 51.627C28.8422 51.7538 28.0821 52.0584 27.4162 52.6118C26.6404 53.2583 26.0483 54.1248 25.7305 55.0831C26.2827 54.8088 26.8362 54.5332 27.3884 54.2589Z" fill="#F59740"/>
<path d="M30.4384 65.3213C31.0825 66.8234 32.0795 68.1454 33.1477 69.3804C32.094 66.92 31.7556 64.1576 32.1846 61.5147C31.7024 62.2531 31.4003 63.1074 31.3109 63.9848C30.6499 62.9238 30.1871 61.7395 29.949 60.5371C29.5285 62.1153 29.7955 63.8204 30.4384 65.3213Z" fill="#F59740"/>
<path d="M30.4384 65.3193C31.0716 66.7948 32.0444 68.0963 33.0921 69.3132C33.1103 69.335 33.1284 69.3567 33.1477 69.3785C32.094 66.9181 31.7556 64.1556 32.1846 61.5128C31.7024 62.2511 31.4003 63.1055 31.3109 63.9828C31.2964 63.9586 31.2807 63.9345 31.2662 63.9103C30.6293 62.8686 30.1822 61.711 29.949 60.5352C29.5285 62.1134 29.7955 63.8185 30.4384 65.3193Z" fill="#D9BDA3"/>
<path d="M27.3884 54.2589C26.2622 57.338 26.2984 60.8268 27.4827 63.8829C27.4996 63.9264 27.5165 63.9699 27.5334 64.0134C27.8162 61.495 28.667 59.0407 30.0071 56.8897C29.0899 57.4709 28.3781 58.3688 28.018 59.3923C28.2283 57.0842 28.9667 54.8257 30.1594 52.839C29.392 52.9985 28.6452 53.2595 27.9467 53.6136C28.4567 52.9091 29.0222 52.2445 29.6349 51.627C29.6204 51.6294 29.6047 51.6318 29.5902 51.6354C28.8132 51.7659 28.07 52.0692 27.4162 52.6118C26.6404 53.2583 26.0483 54.1248 25.7305 55.0831C26.2827 54.8088 26.8362 54.5332 27.3884 54.2589Z" fill="#D9BDA3"/>
<path d="M27.3884 54.2602C26.2622 57.3393 26.2984 60.8281 27.4827 63.8842C27.2603 62.283 27.2845 60.6504 27.3389 59.0311C27.3945 57.3502 27.4863 55.6403 28.0712 54.0645C27.641 53.8711 27.2386 53.8796 26.8616 53.9835C27.6628 53.018 28.58 52.2421 29.5902 51.6367C28.8132 51.7672 28.07 52.0705 27.4162 52.6131C26.6404 53.2596 26.0483 54.1261 25.7305 55.0844C26.2827 54.8101 26.8362 54.5345 27.3884 54.2602Z" fill="#FFC670"/>
<path d="M30.4384 65.3232C31.0716 66.7987 32.0444 68.1002 33.0921 69.3171C31.8402 67.4163 31.0873 65.2169 30.3514 63.0538C30.6704 63.5843 31.0692 64.0677 31.5308 64.4822C31.4185 64.3009 31.3314 64.1112 31.2662 63.9142C30.6293 62.8725 30.1822 61.7149 29.949 60.5391C29.5285 62.1173 29.7955 63.8224 30.4384 65.3232Z" fill="#FFC670"/>
<path d="M50.8791 58.1196C51.1728 61.1685 50.5262 64.3007 49.0495 66.9834C49.0133 66.72 48.977 66.4566 48.9408 66.1931C48.0453 67.636 46.7632 68.836 45.3203 69.793C46.6858 68.5991 47.9052 67.236 48.9396 65.7448C49.0628 65.9128 49.1269 66.0856 49.1909 66.2596C50.0247 64.1255 50.4924 61.85 50.571 59.56C50.5951 58.8543 50.5806 58.1401 50.4163 57.4537C50.5335 57.5033 50.6495 57.5516 50.7667 57.6012C50.3329 55.2955 49.0894 53.3028 47.3456 51.936C46.9783 51.9493 46.6375 51.9783 46.2967 52.0206C46.716 51.7681 47.1354 51.5143 47.5535 51.2617C49.6803 53.1457 51.1256 55.7837 51.5679 58.5897C51.3963 58.3649 51.151 58.1981 50.8791 58.1196Z" fill="#F59740"/>
<path d="M33.4427 58.0961C33.1491 61.145 33.7956 64.2773 35.2723 66.96C35.3085 66.6966 35.3448 66.4331 35.3811 66.1697C36.2765 67.6125 37.5586 68.8125 39.0015 69.7696C37.636 68.5757 36.4167 67.2126 35.3822 65.7214C35.259 65.8893 35.1949 66.0621 35.1309 66.2361C34.2971 64.102 33.8294 61.8266 33.7509 59.5366C33.7267 58.8309 33.7412 58.1167 33.9055 57.4303C33.7883 57.4798 33.6723 57.5282 33.5551 57.5777C33.9889 55.272 35.2324 53.2793 36.9762 51.9126C37.3435 51.9259 37.6843 51.9549 38.0251 51.9972C37.6058 51.7446 37.1865 51.4908 36.7683 51.2383C34.6415 53.1222 33.1962 55.7602 32.7539 58.5662C32.9255 58.3415 33.1708 58.1747 33.4427 58.0961Z" fill="#FFC670"/>
<path d="M46.4136 63.6527C45.9399 65.7759 44.9466 67.7819 43.5134 69.4943C44.0572 67.6333 44.5031 65.7445 44.8523 63.8376C44.8862 63.6479 44.92 63.4497 44.8656 63.266C44.8137 63.0884 44.6868 62.9446 44.5587 62.8129C43.9291 62.1664 43.1678 61.6491 42.3086 61.225C43.2524 61.2129 44.1986 61.4933 44.9829 62.0189C45.2137 62.1736 45.4372 62.3512 45.7019 62.4383C45.8819 62.4975 46.0825 62.5144 46.2348 62.628C46.5297 62.8479 46.4946 63.2938 46.4136 63.6527Z" fill="#F59740"/>
</svg>
