<svg width="465" height="465" viewBox="0 0 465 465" fill="none" xmlns="http://www.w3.org/2000/svg">
<circle cx="232.5" cy="232.5" r="232" stroke="#F59740"/>
<circle cx="232.5" cy="232.5" r="227" stroke="#F59740"/>
<circle cx="232.5" cy="232.5" r="202.5" stroke="#F59740" stroke-width="2"/>
<path d="M220 6L225 30M245 6L240 30" stroke="#F59740"/>
<circle cx="232.5" cy="16.5" r="4" stroke="#F59740"/>
<path d="M220.805 458.801L225.805 434.801M245.805 458.801L240.805 434.801" stroke="#F59740"/>
<circle r="4" transform="matrix(1 0 0 -1 233.305 448.301)" stroke="#F59740"/>
<path d="M459 220L435 225M459 245L435 240" stroke="#F59740"/>
<circle cx="448.5" cy="232.5" r="4" transform="rotate(90 448.5 232.5)" stroke="#F59740"/>
<path d="M6 220L30 225M6 245L30 240" stroke="#F59740"/>
<circle r="4" transform="matrix(4.37114e-08 1 1 -4.37114e-08 16.5 232.5)" stroke="#F59740"/>
<path d="M383.645 64L370.21 84.5061M401.322 81.6777L380.816 95.1127" stroke="#F59740"/>
<circle cx="385.059" cy="80.2624" r="4" transform="rotate(45 385.059 80.2624)" stroke="#F59740"/>
<path d="M384.449 400.801L371.014 380.295M402.127 383.123L381.621 369.688" stroke="#F59740"/>
<circle r="4" transform="matrix(0.707107 -0.707107 -0.707107 -0.707107 385.863 384.538)" stroke="#F59740"/>
<path d="M81.3555 64L94.7905 84.5061M63.6778 81.6777L84.1839 95.1127" stroke="#F59740"/>
<circle r="4" transform="matrix(-0.707107 0.707107 0.707107 0.707107 79.9414 80.2624)" stroke="#F59740"/>
<path d="M82.1602 400.801L95.5952 380.295M64.4825 383.123L84.9886 369.688" stroke="#F59740"/>
<circle cx="80.7461" cy="384.538" r="4" transform="rotate(-135 80.7461 384.538)" stroke="#F59740"/>
<path d="M436.594 133.125L416.641 147.369M446.664 156.007L422.684 161.098" stroke="#F59740"/>
<circle cx="432.018" cy="148.797" r="4" transform="rotate(66.2452 432.018 148.797)" stroke="#F59740"/>
<path d="M436.992 331.445L416.529 317.945M446.214 308.208L422.062 304.003" stroke="#F59740"/>
<circle r="4" transform="matrix(0.368879 -0.929477 -0.929477 -0.368879 431.844 315.952)" stroke="#F59740"/>
<path d="M28.7617 134L48.4 148.674M18.1963 156.658L42.0607 162.269" stroke="#F59740"/>
<circle r="4" transform="matrix(-0.422618 0.906308 0.906308 0.422618 32.9969 149.767)" stroke="#F59740"/>
<path d="M27.6797 330.473L48.0893 316.892M18.3661 307.272L42.5012 302.971" stroke="#F59740"/>
<circle cx="32.7652" cy="314.962" r="4" transform="rotate(-111.873 32.7652 314.962)" stroke="#F59740"/>
<path d="M307.043 17.7422L302.688 41.8676M330.223 27.1074L316.596 47.4867" stroke="#F59740"/>
<circle cx="314.698" cy="32.1588" r="4" transform="rotate(22 314.698 32.1588)" stroke="#F59740"/>
<path d="M307.848 447.059L303.493 422.933M331.027 437.693L317.401 417.314" stroke="#F59740"/>
<circle r="4" transform="matrix(0.927184 -0.374607 -0.374607 -0.927184 315.502 432.642)" stroke="#F59740"/>
<path d="M157.957 17.7422L162.312 41.8676M134.777 27.1074L148.404 47.4867" stroke="#F59740"/>
<circle r="4" transform="matrix(-0.927184 0.374607 0.374607 0.927184 150.302 32.1588)" stroke="#F59740"/>
<path d="M158.762 447.059L163.116 422.933M135.582 437.693L149.209 417.314" stroke="#F59740"/>
<circle cx="151.107" cy="432.642" r="4" transform="rotate(-158 151.107 432.642)" stroke="#F59740"/>
</svg>
