<svg width="124" height="124" viewBox="0 0 124 124" fill="none" xmlns="http://www.w3.org/2000/svg">
<circle cx="62" cy="62" r="61.75" stroke="#F59740" stroke-width="0.5"/>
<circle cx="62" cy="62" r="55.75" stroke="#F59740" stroke-width="0.5"/>
<circle cx="62" cy="62" r="48.5" stroke="#F59740"/>
<circle cx="12.5" cy="88.5" r="2.5" fill="#F59740"/>
<circle cx="118.5" cy="37.5" r="3.5" fill="#F59740"/>
<circle cx="99.5" cy="111.5" r="1.5" fill="#F59740"/>
<path d="M84.6902 77.6647L86 60.001V57.2696C83.8654 54.6053 76.5539 49.2596 62 49.0391V101.501L72.1738 95.3037L76.54 90.7561V92.961L80.6151 87.5866L81.6338 81.661L83.0892 77.6647H84.6902Z" fill="#F59740"/>
<path d="M39.3018 77.8414L38 60.501V57.3414C40.1215 54.6634 47.5354 49.2607 62 49.0391V101.501L51.7414 95.5711L47.402 91.0002V93.2164L43.3519 87.8143L42.3394 81.8583L40.8929 77.8414H39.3018Z" fill="#F59740"/>
<path d="M86 60.001L86.4986 60.038L86.5 60.0195V60.001H86ZM84.6902 77.6647V78.1647H85.1544L85.1888 77.7016L84.6902 77.6647ZM83.0892 77.6647V77.1647H82.7392L82.6194 77.4936L83.0892 77.6647ZM81.6338 81.661L81.164 81.4899L81.1487 81.5321L81.1411 81.5763L81.6338 81.661ZM80.6151 87.5866L81.0135 87.8887L81.0872 87.7915L81.1078 87.6713L80.6151 87.5866ZM76.54 92.961H76.04V94.448L76.9384 93.2631L76.54 92.961ZM76.54 90.7561H77.04V89.5134L76.1793 90.4098L76.54 90.7561ZM72.1738 95.3037L72.4339 95.7307L72.4895 95.6968L72.5345 95.65L72.1738 95.3037ZM86 57.2696H86.5V57.094L86.3902 56.9569L86 57.2696ZM62 49.0391L62.0076 48.5391L62 48.539L61.9923 48.5391L62 49.0391ZM62 101.501L61.7498 101.934L62.0067 102.083L62.2601 101.928L62 101.501ZM38 60.501H37.5V60.5197L37.5014 60.5384L38 60.501ZM39.3018 77.8414L38.8032 77.8788L38.8379 78.3414H39.3018V77.8414ZM40.8929 77.8414L41.3634 77.672L41.2443 77.3414H40.8929V77.8414ZM42.3394 81.8583L42.8323 81.7745L42.8249 81.7307L42.8098 81.6889L42.3394 81.8583ZM43.3519 87.8143L42.859 87.8981L42.8793 88.0175L42.9519 88.1143L43.3519 87.8143ZM47.402 93.2164L47.002 93.5163L47.902 94.7168V93.2164H47.402ZM47.402 91.0002L47.7646 90.6559L46.902 89.7473V91.0002H47.402ZM51.7414 95.5711L51.3788 95.9154L51.4286 95.9678L51.4912 96.004L51.7414 95.5711ZM38 57.3414L37.6081 57.0309L37.5 57.1673V57.3414H38ZM85.5014 59.964L84.1915 77.6277L85.1888 77.7016L86.4986 60.038L85.5014 59.964ZM84.6902 77.1647H83.0892V78.1647H84.6902V77.1647ZM82.6194 77.4936L81.164 81.4899L82.1037 81.8321L83.559 77.8358L82.6194 77.4936ZM81.1411 81.5763L80.1223 87.5019L81.1078 87.6713L82.1266 81.7457L81.1411 81.5763ZM80.2166 87.2845L76.1416 92.6589L76.9384 93.2631L81.0135 87.8887L80.2166 87.2845ZM77.04 92.961V90.7561H76.04V92.961H77.04ZM76.1793 90.4098L71.8132 94.9574L72.5345 95.65L76.9007 91.1024L76.1793 90.4098ZM86.5 60.001V57.2696H85.5V60.001H86.5ZM86.3902 56.9569C84.1422 54.1511 76.6749 48.7613 62.0076 48.5391L61.9924 49.539C76.4328 49.7578 83.5887 55.0595 85.6098 57.5822L86.3902 56.9569ZM71.9137 94.8767L61.7399 101.074L62.2601 101.928L72.4339 95.7307L71.9137 94.8767ZM61.5 49.0391V101.501H62.5V49.0391H61.5ZM37.5014 60.5384L38.8032 77.8788L39.8004 77.8039L38.4986 60.4635L37.5014 60.5384ZM39.3018 78.3414H40.8929V77.3414H39.3018V78.3414ZM40.4225 78.0108L41.869 82.0277L42.8098 81.6889L41.3634 77.672L40.4225 78.0108ZM41.8465 81.9421L42.859 87.8981L43.8448 87.7305L42.8323 81.7745L41.8465 81.9421ZM42.9519 88.1143L47.002 93.5163L47.8021 92.9164L43.752 87.5144L42.9519 88.1143ZM47.902 93.2164V91.0002H46.902V93.2164H47.902ZM47.0394 91.3444L51.3788 95.9154L52.104 95.2269L47.7646 90.6559L47.0394 91.3444ZM38.5 60.501V57.3414H37.5V60.501H38.5ZM38.3919 57.6519C40.3999 55.1172 47.6569 49.7589 62.0077 49.539L61.9923 48.5391C47.4138 48.7625 39.8431 54.2097 37.6081 57.0309L38.3919 57.6519ZM51.4912 96.004L61.7498 101.934L62.2502 101.068L51.9916 95.1382L51.4912 96.004Z" fill="#F59740"/>
<path fill-rule="evenodd" clip-rule="evenodd" d="M42 57.7027L44.0007 72.9607L51.2004 82L56.0002 78.8559H62H67.9998L72.7996 82L79.9993 72.9607L82 57.7027C82 57.7027 77.2087 54.5859 73.7568 53.4411C69.3781 51.9888 62 52 62 52C62 52 54.6219 51.9888 50.2432 53.4411C46.7913 54.5859 42 57.7027 42 57.7027Z" fill="#1E213A"/>
<path d="M44.0007 72.9607L43.5049 73.0257L43.523 73.1635L43.6096 73.2722L44.0007 72.9607ZM42 57.7027L41.7274 57.2835L41.4633 57.4553L41.5042 57.7677L42 57.7027ZM51.2004 82L50.8093 82.3115L51.0932 82.6679L51.4744 82.4183L51.2004 82ZM56.0002 78.8559V78.3559H55.8511L55.7263 78.4376L56.0002 78.8559ZM67.9998 78.8559L68.2737 78.4376L68.1489 78.3559H67.9998V78.8559ZM72.7996 82L72.5256 82.4183L72.9068 82.6679L73.1907 82.3115L72.7996 82ZM79.9993 72.9607L80.3904 73.2722L80.477 73.1635L80.4951 73.0257L79.9993 72.9607ZM82 57.7027L82.4958 57.7677L82.5367 57.4553L82.2726 57.2835L82 57.7027ZM73.7568 53.4411L73.5994 53.9156L73.7568 53.4411ZM62 52L61.9992 52.5L62.0008 52.5L62 52ZM50.2432 53.4411L50.4006 53.9156H50.4006L50.2432 53.4411ZM44.4965 72.8957L42.4958 57.6377L41.5042 57.7677L43.5049 73.0257L44.4965 72.8957ZM51.5915 81.6885L44.3918 72.6492L43.6096 73.2722L50.8093 82.3115L51.5915 81.6885ZM55.7263 78.4376L50.9264 81.5817L51.4744 82.4183L56.2742 79.2742L55.7263 78.4376ZM62 78.3559H56.0002V79.3559H62V78.3559ZM62 79.3559H67.9998V78.3559H62V79.3559ZM67.7258 79.2742L72.5256 82.4183L73.0736 81.5817L68.2737 78.4376L67.7258 79.2742ZM73.1907 82.3115L80.3904 73.2722L79.6082 72.6492L72.4085 81.6885L73.1907 82.3115ZM80.4951 73.0257L82.4958 57.7677L81.5042 57.6377L79.5035 72.8957L80.4951 73.0257ZM82 57.7027C82.2726 57.2835 82.2726 57.2835 82.2725 57.2835C82.2725 57.2834 82.2724 57.2834 82.2723 57.2833C82.2721 57.2832 82.2718 57.283 82.2715 57.2828C82.2708 57.2824 82.2699 57.2817 82.2686 57.2809C82.2661 57.2793 82.2625 57.2769 82.2577 57.2739C82.2482 57.2677 82.2341 57.2586 82.2158 57.2468C82.1791 57.2232 82.1251 57.1887 82.0554 57.1444C81.9159 57.0559 81.7134 56.9284 81.4598 56.7721C80.9526 56.4596 80.2404 56.0309 79.4192 55.566C77.7847 54.6408 75.6887 53.555 73.9142 52.9665L73.5994 53.9156C75.2767 54.4719 77.3024 55.5169 78.9265 56.4363C79.7346 56.8937 80.4359 57.3158 80.9351 57.6234C81.1846 57.7772 81.3833 57.9022 81.5194 57.9886C81.5874 58.0318 81.6398 58.0653 81.6749 58.0879C81.6925 58.0992 81.7058 58.1078 81.7146 58.1135C81.719 58.1164 81.7223 58.1185 81.7244 58.1199C81.7255 58.1206 81.7263 58.1211 81.7267 58.1214C81.727 58.1215 81.7272 58.1217 81.7273 58.1217C81.7273 58.1218 81.7273 58.1218 81.7274 58.1218C81.7274 58.1218 81.7274 58.1218 82 57.7027ZM73.9142 52.9665C71.6632 52.2199 68.6723 51.8566 66.2736 51.6773C65.0683 51.5873 64.0013 51.543 63.2355 51.5212C62.8524 51.5102 62.5443 51.505 62.3316 51.5024C62.2252 51.5011 62.1426 51.5005 62.0864 51.5002C62.0583 51.5001 62.0368 51.5 62.0221 51.5C62.0148 51.5 62.0092 51.5 62.0054 51.5C62.0035 51.5 62.002 51.5 62.001 51.5C62.0005 51.5 62.0001 51.5 61.9998 51.5C61.9996 51.5 61.9995 51.5 61.9994 51.5C61.9993 51.5 61.9992 51.5 62 52C62.0008 52.5 62.0007 52.5 62.0007 52.5C62.0008 52.5 62.0008 52.5 62.0009 52.5C62.0011 52.5 62.0013 52.5 62.0017 52.5C62.0025 52.5 62.0037 52.5 62.0053 52.5C62.0086 52.5 62.0137 52.5 62.0205 52.5C62.034 52.5 62.0545 52.5001 62.0815 52.5002C62.1354 52.5005 62.2156 52.5011 62.3196 52.5023C62.5274 52.5048 62.83 52.51 63.207 52.5207C63.9614 52.5422 65.0126 52.5859 66.1991 52.6746C68.5841 52.8528 71.4717 53.21 73.5994 53.9156L73.9142 52.9665ZM50.4006 53.9156C52.5283 53.21 55.4159 52.8528 57.8009 52.6746C58.9874 52.5859 60.0386 52.5422 60.793 52.5207C61.17 52.51 61.4726 52.5048 61.6804 52.5023C61.7844 52.5011 61.8646 52.5005 61.9185 52.5002C61.9455 52.5001 61.966 52.5 61.9795 52.5C61.9863 52.5 61.9914 52.5 61.9947 52.5C61.9963 52.5 61.9975 52.5 61.9983 52.5C61.9987 52.5 61.9989 52.5 61.9991 52.5C61.9992 52.5 61.9992 52.5 61.9993 52.5C61.9993 52.5 61.9992 52.5 62 52C62.0008 51.5 62.0007 51.5 62.0006 51.5C62.0005 51.5 62.0004 51.5 62.0002 51.5C61.9999 51.5 61.9995 51.5 61.999 51.5C61.998 51.5 61.9965 51.5 61.9946 51.5C61.9908 51.5 61.9852 51.5 61.9779 51.5C61.9632 51.5 61.9417 51.5001 61.9136 51.5002C61.8574 51.5005 61.7748 51.5011 61.6684 51.5024C61.4557 51.505 61.1476 51.5102 60.7645 51.5212C59.9987 51.543 58.9317 51.5873 57.7264 51.6773C55.3277 51.8566 52.3368 52.2199 50.0858 52.9665L50.4006 53.9156ZM42 57.7027C42.2726 58.1218 42.2726 58.1218 42.2726 58.1218C42.2727 58.1218 42.2727 58.1218 42.2727 58.1217C42.2728 58.1217 42.273 58.1215 42.2733 58.1214C42.2737 58.1211 42.2745 58.1206 42.2756 58.1199C42.2777 58.1185 42.281 58.1164 42.2854 58.1135C42.2942 58.1078 42.3075 58.0992 42.3251 58.0879C42.3602 58.0653 42.4126 58.0318 42.4806 57.9886C42.6167 57.9022 42.8154 57.7772 43.0649 57.6234C43.5641 57.3158 44.2654 56.8937 45.0735 56.4363C46.6976 55.5169 48.7233 54.4719 50.4006 53.9156L50.0858 52.9665C48.3113 53.555 46.2153 54.6408 44.5808 55.566C43.7596 56.0309 43.0474 56.4596 42.5402 56.7721C42.2866 56.9284 42.0841 57.0559 41.9446 57.1444C41.8749 57.1887 41.8209 57.2232 41.7842 57.2468C41.7659 57.2586 41.7518 57.2677 41.7423 57.2739C41.7375 57.2769 41.7339 57.2793 41.7314 57.2809C41.7301 57.2817 41.7292 57.2824 41.7285 57.2828C41.7282 57.283 41.7279 57.2832 41.7277 57.2833C41.7276 57.2834 41.7275 57.2834 41.7275 57.2835C41.7274 57.2835 41.7274 57.2835 42 57.7027Z" fill="#F59740"/>
<path d="M42.0263 31.5875C35.4487 28.9315 22.586 20.6958 23.756 9C20.008 14.9454 17.1611 29.7454 35.757 41.3827C36.7573 39.0476 40.0155 34.3374 42.0263 31.5875Z" fill="#F59740"/>
<path d="M81.9737 31.5875C88.5513 28.9315 101.414 20.6958 100.244 9C103.992 14.9454 106.839 29.7454 88.243 41.3827C87.2427 39.0476 83.9845 34.3374 81.9737 31.5875Z" fill="#F59740"/>
<path d="M42.0263 31.5875C35.4487 28.9315 22.586 20.6958 23.756 9C20.008 14.9454 17.1611 29.7454 35.757 41.3827M42.0263 31.5875C40.0155 34.3374 36.7573 39.0476 35.757 41.3827M42.0263 31.5875C42.1574 31.4082 42.2832 31.2372 42.4027 31.0758L47.1031 33.1956M35.757 41.3827C35.5723 41.8139 35.4559 42.4061 35.4559 42.4061L40.1444 44.8914M81.9737 31.5875C88.5513 28.9315 101.414 20.6958 100.244 9C103.992 14.9454 106.839 29.7454 88.243 41.3827M81.9737 31.5875C83.9845 34.3374 87.2427 39.0476 88.243 41.3827M81.9737 31.5875C81.8426 31.4082 81.7168 31.2372 81.5973 31.0758L76.8969 33.1956M88.243 41.3827C88.4277 41.8139 88.5355 42.1641 88.5441 42.4061L83.8556 44.8914M62 25.2279L66.5337 26.032V27.2746M62 25.2279V41.5M62 25.2279L57.4663 26.032V27.2746M66.5337 42L62 41.5M66.5337 42V27.2746M66.5337 42C70.7123 42.6885 79.8779 44.459 84.8882 48.6925M62 41.5L57.4663 42M66.5337 27.2746C69.0446 27.6887 73.1237 29.3982 76.8969 33.1956M84.8882 48.6925C85.1971 48.9535 85.4902 49.2215 85.7654 49.4966V57.7568C83.986 54.7353 76.6833 48.6925 62 48.6925C47.3167 48.6925 40.014 54.7353 38.2346 57.7568V49.4966C38.5098 49.2215 38.8029 48.9535 39.1118 48.6925M84.8882 48.6925C84.595 47.3502 84.248 46.0844 83.8556 44.8914M76.8969 33.1956C79.605 35.9211 82.1556 39.7221 83.8556 44.8914M57.4663 42V27.2746M57.4663 42C53.2877 42.6885 44.1221 44.459 39.1118 48.6925M57.4663 27.2746C54.9554 27.6887 50.8763 29.3982 47.1031 33.1956M39.1118 48.6925C39.405 47.3502 39.752 46.0844 40.1444 44.8914M47.1031 33.1956C44.395 35.9211 41.8444 39.7221 40.1444 44.8914" stroke="#F59740"/>
<path d="M62 80L66 81.5L70 83L69 88.5962L66 89.4684L64 88.5L63 86H62H61L60 88.5L58 89.5L54.9811 88.5962L54 83L58 81.5L62 80Z" fill="#1E213A"/>
<path d="M62 80L62.1756 79.5318L62 79.466L61.8244 79.5318L62 80ZM70 83L70.4922 83.088L70.5655 82.678L70.1756 82.5318L70 83ZM69 88.5962L69.1396 89.0764L69.4376 88.9897L69.4922 88.6842L69 88.5962ZM66 89.4684L65.7821 89.9184L65.9551 90.0022L66.1396 89.9485L66 89.4684ZM64 88.5L63.5358 88.6857L63.6077 88.8656L63.7821 88.95L64 88.5ZM63 86L63.4642 85.8143L63.3385 85.5H63V86ZM54 83L53.8244 82.5318L53.4358 82.6776L53.5075 83.0863L54 83ZM54.9811 88.5962L54.4886 88.6826L54.5419 88.9867L54.8377 89.0752L54.9811 88.5962ZM58 89.5L57.8566 89.979L58.0464 90.0358L58.2236 89.9472L58 89.5ZM60 88.5L60.2236 88.9472L60.3936 88.8622L60.4642 88.6857L60 88.5ZM61 86V85.5H60.6615L60.5358 85.8143L61 86ZM61.8244 80.4682L65.8244 81.9682L66.1756 81.0318L62.1756 79.5318L61.8244 80.4682ZM65.8244 81.9682L69.8244 83.4682L70.1756 82.5318L66.1756 81.0318L65.8244 81.9682ZM69.5078 82.912L68.5078 88.5083L69.4922 88.6842L70.4922 83.088L69.5078 82.912ZM68.8604 88.1161L65.8604 88.9883L66.1396 89.9485L69.1396 89.0764L68.8604 88.1161ZM66.2179 89.0184L64.2179 88.05L63.7821 88.95L65.7821 89.9184L66.2179 89.0184ZM64.4642 88.3143L63.4642 85.8143L62.5358 86.1857L63.5358 88.6857L64.4642 88.3143ZM63 85.5H62V86.5H63V85.5ZM61.8244 79.5318L57.8244 81.0318L58.1756 81.9682L62.1756 80.4682L61.8244 79.5318ZM57.8244 81.0318L53.8244 82.5318L54.1756 83.4682L58.1756 81.9682L57.8244 81.0318ZM53.5075 83.0863L54.4886 88.6826L55.4736 88.5099L54.4925 82.9137L53.5075 83.0863ZM54.8377 89.0752L57.8566 89.979L58.1434 89.021L55.1245 88.1172L54.8377 89.0752ZM58.2236 89.9472L60.2236 88.9472L59.7764 88.0528L57.7764 89.0528L58.2236 89.9472ZM60.4642 88.6857L61.4642 86.1857L60.5358 85.8143L59.5358 88.3143L60.4642 88.6857ZM61 86.5H62V85.5H61V86.5Z" fill="#F59740"/>
</svg>
