<?xml version="1.0" standalone="no"?>
<!DOCTYPE svg PUBLIC "-//W3C//DTD SVG 20010904//EN"
 "http://www.w3.org/TR/2001/REC-SVG-20010904/DTD/svg10.dtd">
<svg version="1.0" xmlns="http://www.w3.org/2000/svg"
 width="700.000000pt" height="700.000000pt" viewBox="0 0 700.000000 700.000000"
 preserveAspectRatio="xMidYMid meet">
<metadata>
Created by potrace 1.14, written by Peter Selinger 2001-2017
</metadata>
<g transform="translate(0.000000,700.000000) scale(0.100000,-0.100000)"
fill="#000000" stroke="none">
<path d="M3305 6984 c-872 -57 -1659 -410 -2265 -1014 -505 -504 -834 -1125
-969 -1830 -75 -396 -75 -884 0 -1280 134 -701 462 -1322 964 -1825 497 -498
1126 -830 1825 -964 396 -75 883 -75 1280 0 698 133 1327 465 1825 964 563
564 904 1272 1001 2075 24 199 24 581 0 780 -115 956 -581 1784 -1335 2370
-496 386 -1100 632 -1731 705 -134 15 -480 26 -595 19z m399 -72 c-6 -4 -16
-25 -22 -47 l-11 -40 5 43 6 42 -182 0 -182 0 6 -42 5 -43 -11 40 c-6 22 -16
43 -22 47 -6 4 86 8 204 8 118 0 210 -4 204 -8z m-456 -9 c-15 -2 -42 -2 -60
0 -18 2 -6 4 27 4 33 0 48 -2 33 -4z m570 0 c-15 -2 -42 -2 -60 0 -18 2 -6 4
27 4 33 0 48 -2 33 -4z m-685 -10 c-13 -2 -33 -2 -45 0 -13 2 -3 4 22 4 25 0
35 -2 23 -4z m780 0 c-13 -2 -33 -2 -45 0 -13 2 -3 4 22 4 25 0 35 -2 23 -4z
m-865 -10 c-10 -2 -26 -2 -35 0 -10 3 -2 5 17 5 19 0 27 -2 18 -5z m940 0
c-10 -2 -26 -2 -35 0 -10 3 -2 5 17 5 19 0 27 -2 18 -5z m-1005 -10 c-7 -2
-21 -2 -30 0 -10 3 -4 5 12 5 17 0 24 -2 18 -5z m1070 0 c-7 -2 -21 -2 -30 0
-10 3 -4 5 12 5 17 0 24 -2 18 -5z m-1130 -10 c-7 -2 -21 -2 -30 0 -10 3 -4 5
12 5 17 0 24 -2 18 -5z m1227 -3 c17 -6 9 -7 -25 -3 -27 3 -52 7 -54 9 -8 7
54 2 79 -6z m-1287 -7 c-7 -2 -19 -2 -25 0 -7 3 -2 5 12 5 14 0 19 -2 13 -5z
m-50 -10 c-7 -2 -19 -2 -25 0 -7 3 -2 5 12 5 14 0 19 -2 13 -5z m1400 0 c-7
-2 -19 -2 -25 0 -7 3 -2 5 12 5 14 0 19 -2 13 -5z m-1543 -32 c-58 -15 -144
-40 -192 -55 -86 -26 -88 -27 -89 -59 -2 -31 -2 -31 -6 -4 -4 25 -8 28 -29 23
-13 -4 -24 -4 -24 -1 0 11 385 123 425 123 11 0 -27 -12 -85 -27z m1699 -1
c101 -27 144 -41 115 -39 -21 1 -258 67 -244 68 8 1 66 -13 129 -29z m-1032
-22 c-3 -7 -5 -2 -5 12 0 14 2 19 5 13 2 -7 2 -19 0 -25z m330 0 c-3 -7 -5 -2
-5 12 0 14 2 19 5 13 2 -7 2 -19 0 -25z m-204 -2 c-10 -13 -20 -20 -21 -15 -5
12 17 39 30 39 5 0 1 -11 -9 -24z m87 9 c6 -8 10 -19 8 -24 -1 -5 -11 2 -21
15 -19 26 -8 34 13 9z m-203 -57 c-3 -7 -5 -2 -5 12 0 14 2 19 5 13 2 -7 2
-19 0 -25z m310 0 c-3 -7 -5 -2 -5 12 0 14 2 19 5 13 2 -7 2 -19 0 -25z m933
7 c74 -25 107 -42 58 -30 -23 6 -27 4 -31 -22 -4 -28 -4 -28 -6 4 -1 29 -6 33
-58 51 -32 11 -53 21 -47 21 6 1 44 -10 84 -24z m-1090 -45 c18 0 34 8 44 22
9 12 16 18 16 14 0 -19 -34 -46 -58 -46 -26 0 -62 25 -62 44 0 6 7 0 16 -12
10 -14 26 -22 44 -22z m-122 -95 c0 -11 -6 3 -13 30 -7 28 -13 59 -13 70 0 11
6 -2 13 -30 7 -27 13 -59 13 -70z m261 46 c-6 -34 -14 -60 -16 -57 -2 2 1 32
8 65 6 34 14 60 16 57 2 -2 -1 -32 -8 -65z m-1349 42 c-19 -8 -83 -35 -143
-60 -70 -29 -105 -49 -100 -56 6 -10 182 -277 188 -284 1 -2 47 15 103 38 100
40 100 41 97 72 -1 18 0 23 2 12 3 -11 8 -24 13 -28 4 -5 57 7 116 27 209 68
451 116 684 136 77 6 127 15 132 23 6 9 8 9 8 0 0 -10 29 -13 110 -13 81 0
110 3 110 13 0 9 2 9 8 0 5 -8 54 -17 127 -23 247 -22 464 -64 674 -132 68
-22 127 -36 131 -31 5 4 10 17 13 28 2 11 3 6 2 -12 -3 -31 -3 -32 97 -72 56
-23 102 -40 103 -38 1 1 46 67 98 147 112 168 121 141 -65 216 -65 26 -116 49
-114 52 7 7 230 -89 366 -158 571 -290 1055 -742 1390 -1300 119 -196 301
-605 324 -725 4 -16 -6 3 -20 43 l-26 74 -47 -5 -46 -6 40 11 c22 6 41 12 43
13 10 8 -126 325 -140 325 -9 0 -229 -153 -269 -187 -15 -12 -12 -23 25 -113
l40 -100 36 5 35 5 -33 -11 c-22 -6 -32 -15 -29 -24 3 -7 24 -69 46 -138 68
-215 110 -426 131 -672 6 -73 15 -122 23 -127 9 -6 9 -8 0 -8 -10 0 -13 -29
-13 -110 0 -81 3 -110 13 -110 9 0 9 -2 0 -8 -8 -5 -17 -54 -23 -127 -29 -330
-102 -635 -225 -931 -24 -60 -41 -111 -37 -115 12 -11 281 -189 286 -189 9 0
136 307 136 330 0 5 -8 11 -17 13 -10 2 -8 3 4 2 19 -2 26 8 48 69 14 39 23
58 19 41 -24 -125 -208 -533 -333 -740 -335 -553 -823 -1004 -1396 -1293 -169
-85 -490 -214 -528 -211 -7 0 13 9 43 20 30 10 62 22 70 26 8 3 20 7 26 8 21
5 248 97 287 117 21 10 36 22 33 26 -2 4 -47 70 -99 147 l-94 141 -49 -22
c-178 -78 -423 -154 -624 -194 -127 -25 -191 -34 -416 -56 -49 -5 -51 -6 -48
-32 4 -27 4 -27 -4 -2 -8 24 -10 25 -119 28 l-111 3 -11 -38 -10 -38 5 37 5
36 -78 7 c-295 24 -544 72 -772 150 -40 13 -77 22 -81 20 -5 -3 -10 -1 -12 3
-3 9 -181 82 -198 82 -5 0 -53 -64 -105 -143 -82 -123 -93 -144 -80 -154 9 -6
76 -35 150 -64 74 -29 132 -55 130 -57 -7 -7 -242 92 -375 158 -659 331 -1197
867 -1527 1524 -69 137 -157 345 -150 353 3 2 9 -10 15 -26 28 -81 105 -251
113 -251 7 0 265 167 288 186 2 2 -14 47 -36 101 l-40 98 -49 -2 -49 -1 47 10
46 10 -34 101 c-71 207 -124 470 -144 706 -6 69 -11 126 -13 127 -1 1 -33 -4
-71 -12 -38 -8 -74 -13 -80 -11 -6 2 19 9 54 16 109 21 100 8 100 131 0 123 9
110 -100 131 -35 7 -60 14 -54 16 6 2 42 -3 80 -11 38 -8 70 -13 71 -12 2 1 7
58 13 127 19 230 73 498 139 694 17 50 31 95 31 101 0 6 -28 17 -62 24 -34 8
-57 15 -51 17 6 2 36 -2 67 -10 l55 -15 37 92 c20 50 38 96 41 103 2 6 -57 57
-131 114 -75 56 -136 104 -136 106 0 5 59 -36 180 -127 41 -31 80 -60 87 -64
9 -5 30 29 68 105 103 204 257 433 413 614 l60 70 -146 97 -147 97 -43 -47
c-54 -58 -225 -286 -277 -367 -118 -185 -223 -388 -296 -567 -23 -59 -45 -106
-47 -104 -6 7 85 221 151 352 327 650 865 1189 1512 1517 123 62 342 157 360
156 6 0 -6 -7 -25 -16z m118 -113 c0 -22 -1 -22 -8 5 -4 17 -8 41 -8 55 0 22
1 22 8 -5 4 -16 8 -41 8 -55z m2197 25 c-4 -25 -9 -44 -12 -41 -2 2 -1 25 2
51 4 25 9 44 12 41 2 -2 1 -25 -2 -51z m-2296 -51 c12 -15 21 -33 21 -41 0
-21 -46 -63 -70 -63 -53 0 -81 84 -38 114 33 23 64 19 87 -10z m2471 6 c11
-11 20 -31 20 -45 0 -30 -32 -65 -60 -65 -24 0 -70 42 -70 63 0 8 9 26 21 41
25 31 61 34 89 6z m-2352 -90 c0 -22 -1 -22 -8 5 -4 17 -8 41 -8 55 0 22 1 22
8 -5 4 -16 8 -41 8 -55z m2157 25 c-4 -25 -9 -44 -12 -41 -2 2 -1 25 2 51 4
25 9 44 12 41 2 -2 1 -25 -2 -51z m1887 -1691 c-32 -22 -27 -74 8 -91 14 -7
19 -13 11 -13 -24 0 -51 31 -51 58 0 26 25 62 44 62 6 0 0 -7 -12 -16z m88
-17 c13 -24 13 -30 0 -54 -9 -16 -25 -29 -35 -30 -18 -3 -17 -2 2 6 12 6 24
19 28 30 9 30 -3 61 -28 72 -19 8 -20 9 -2 6 10 -1 26 -14 35 -30z m-6020 3
c39 -39 11 -110 -44 -110 -26 0 -66 42 -66 69 0 9 8 0 18 -19 20 -41 54 -51
83 -24 56 51 -17 125 -75 77 -21 -18 -21 -18 -2 5 24 27 60 28 86 2z m-232
-151 c10 -1 7 -4 -7 -8 -19 -5 -29 -21 -47 -71 -12 -36 -23 -61 -23 -55 -2 21
53 169 57 153 2 -10 11 -18 20 -19z m117 -28 c39 -11 63 -19 55 -20 -8 0 -46
8 -85 18 -38 11 -63 19 -55 20 8 0 47 -8 85 -18z m6194 15 c-7 -7 -171 -38
-175 -33 -3 2 28 11 68 20 74 15 115 20 107 13z m-6423 -272 c-19 -71 -35
-122 -35 -114 -1 8 13 66 29 129 17 62 30 116 30 119 0 3 2 3 5 0 3 -2 -11
-63 -29 -134z m6593 86 c0 -9 -4 -8 -9 5 -5 11 -9 27 -9 35 0 9 4 8 9 -5 5
-11 9 -27 9 -35z m30 -107 c12 -45 21 -87 20 -95 -1 -13 -48 158 -49 176 0 23
10 -6 29 -81z m-6662 -145 c-3 -7 -5 -2 -5 12 0 14 2 19 5 13 2 -7 2 -19 0
-25z m6690 0 c-3 -7 -5 -2 -5 12 0 14 2 19 5 13 2 -7 2 -19 0 -25z m-6700 -50
c-3 -7 -5 -2 -5 12 0 14 2 19 5 13 2 -7 2 -19 0 -25z m6710 0 c-3 -7 -5 -2 -5
12 0 14 2 19 5 13 2 -7 2 -19 0 -25z m-6720 -55 c-3 -10 -5 -4 -5 12 0 17 2
24 5 18 2 -7 2 -21 0 -30z m6730 0 c-3 -10 -5 -4 -5 12 0 17 2 24 5 18 2 -7 2
-21 0 -30z m-6740 -60 c-3 -10 -5 -4 -5 12 0 17 2 24 5 18 2 -7 2 -21 0 -30z
m6750 0 c-3 -10 -5 -4 -5 12 0 17 2 24 5 18 2 -7 2 -21 0 -30z m-6760 -70 c-3
-10 -5 -2 -5 17 0 19 2 27 5 18 2 -10 2 -26 0 -35z m6770 0 c-3 -10 -5 -2 -5
17 0 19 2 27 5 18 2 -10 2 -26 0 -35z m-6780 -85 c-2 -13 -4 -3 -4 22 0 25 2
35 4 23 2 -13 2 -33 0 -45z m6790 0 c-2 -13 -4 -3 -4 22 0 25 2 35 4 23 2 -13
2 -33 0 -45z m-6800 -110 c-2 -18 -4 -6 -4 27 0 33 2 48 4 33 2 -15 2 -42 0
-60z m6810 0 c-2 -18 -4 -6 -4 27 0 33 2 48 4 33 2 -15 2 -42 0 -60z m-6724
-83 c48 -10 85 -20 83 -22 -2 -3 -39 2 -81 11 -43 9 -81 16 -86 16 -5 0 -9
-81 -9 -180 0 -99 4 -180 9 -180 5 0 43 7 86 16 42 9 79 14 81 11 2 -2 -35
-12 -83 -22 -49 -9 -91 -22 -95 -28 -4 -7 -8 85 -8 203 0 118 4 210 8 203 4
-6 46 -19 95 -28z m6737 -177 c0 -117 -4 -208 -8 -202 -4 6 -25 16 -47 22
l-40 11 43 -5 42 -6 0 182 0 182 -42 -6 -43 -5 43 11 c23 6 42 15 42 19 0 5 2
9 5 9 3 0 5 -96 5 -212z m-107 165 c-7 -2 -19 -2 -25 0 -7 3 -2 5 12 5 14 0
19 -2 13 -5z m-44 -7 c-7 -7 -171 -38 -175 -33 -3 2 28 11 68 20 74 15 115 20
107 13z m-6550 -115 c-13 -11 -26 -18 -28 -15 -7 7 21 34 36 34 10 0 8 -6 -8
-19z m73 2 c10 -9 18 -27 18 -41 0 -26 -25 -62 -44 -62 -6 0 0 7 12 16 30 20
30 68 0 88 -12 9 -18 16 -14 16 5 0 18 -7 28 -17z m6430 1 c-14 -10 -22 -26
-22 -44 0 -18 8 -34 22 -44 12 -9 18 -16 14 -16 -19 0 -46 34 -46 58 0 26 25
62 44 62 6 0 0 -7 -12 -16z m78 1 c19 -23 8 -26 -19 -4 -16 13 -18 19 -8 19 8
0 20 -7 27 -15z m-6571 -103 c-12 -5 -39 17 -39 30 0 5 11 1 24 -9 13 -10 20
-20 15 -21z m6571 13 c-7 -8 -19 -15 -27 -15 -10 0 -8 6 8 19 27 22 38 19 19
-4z m-80 -100 c42 -11 46 -13 15 -9 -22 3 -65 11 -95 19 -42 11 -46 13 -15 9
22 -3 65 -11 95 -19z m93 -22 c-7 -2 -19 -2 -25 0 -7 3 -2 5 12 5 14 0 19 -2
13 -5z m-6716 -145 c-2 -18 -4 -6 -4 27 0 33 2 48 4 33 2 -15 2 -42 0 -60z
m6810 0 c-2 -18 -4 -6 -4 27 0 33 2 48 4 33 2 -15 2 -42 0 -60z m-6800 -100
c-2 -13 -4 -3 -4 22 0 25 2 35 4 23 2 -13 2 -33 0 -45z m6790 0 c-2 -13 -4 -3
-4 22 0 25 2 35 4 23 2 -13 2 -33 0 -45z m-6780 -75 c-3 -10 -5 -2 -5 17 0 19
2 27 5 18 2 -10 2 -26 0 -35z m6770 0 c-3 -10 -5 -2 -5 17 0 19 2 27 5 18 2
-10 2 -26 0 -35z m-6760 -60 c-3 -10 -5 -4 -5 12 0 17 2 24 5 18 2 -7 2 -21 0
-30z m6750 0 c-3 -10 -5 -4 -5 12 0 17 2 24 5 18 2 -7 2 -21 0 -30z m-6740
-60 c-3 -10 -5 -4 -5 12 0 17 2 24 5 18 2 -7 2 -21 0 -30z m6730 0 c-3 -10 -5
-4 -5 12 0 17 2 24 5 18 2 -7 2 -21 0 -30z m-6720 -55 c-3 -7 -5 -2 -5 12 0
14 2 19 5 13 2 -7 2 -19 0 -25z m6710 0 c-3 -7 -5 -2 -5 12 0 14 2 19 5 13 2
-7 2 -19 0 -25z m-6700 -50 c-3 -7 -5 -2 -5 12 0 14 2 19 5 13 2 -7 2 -19 0
-25z m6690 0 c-3 -7 -5 -2 -5 12 0 14 2 19 5 13 2 -7 2 -19 0 -25z m-6618
-272 c1 -5 -1 -7 -4 -4 -7 7 -65 231 -64 248 1 14 67 -223 68 -244z m6591 154
c-12 -50 -24 -89 -26 -87 -3 2 6 45 18 95 12 50 24 89 26 87 3 -2 -6 -45 -18
-95z m-36 -134 c-3 -15 -8 -25 -11 -23 -2 3 -1 17 3 31 3 15 8 25 11 23 2 -3
1 -17 -3 -31z m-6464 -152 l45 5 -43 -10 c-38 -9 -42 -13 -36 -32 3 -12 4 -19
0 -16 -8 8 -56 150 -55 163 0 6 10 -17 22 -52 l21 -63 46 5z m150 20 c-36 -7
-74 -13 -85 -12 -27 1 93 26 125 26 14 0 -4 -6 -40 -14z m5953 9 c-7 -2 -21
-2 -30 0 -10 3 -4 5 12 5 17 0 24 -2 18 -5z m117 -17 c36 -8 56 -14 45 -14
-11 -1 -49 5 -85 12 -36 8 -56 14 -45 14 11 1 49 -5 85 -12z m113 -23 c-7 -2
-21 -2 -30 0 -10 3 -4 5 12 5 17 0 24 -2 18 -5z m-6113 -73 c11 -11 20 -28 20
-38 0 -21 -27 -62 -41 -62 -5 0 0 9 11 20 24 24 25 47 3 72 -18 20 -63 24 -81
6 -7 -7 -12 -25 -12 -40 0 -21 8 -33 33 -48 17 -11 27 -20 21 -20 -24 0 -64
42 -64 67 0 57 69 84 110 43z m5998 -6 c12 -8 22 -19 22 -25 0 -5 -9 0 -20 11
-24 24 -53 26 -74 4 -19 -18 -21 -65 -4 -82 20 -20 65 -14 82 10 9 12 16 18
16 14 0 -19 -34 -46 -58 -46 -36 0 -62 27 -62 66 0 34 28 64 60 64 9 0 26 -7
38 -16z m-1950 -1754 c0 -22 -1 -22 -8 5 -4 17 -8 41 -8 55 0 22 1 22 8 -5 4
-16 8 -41 8 -55z m-2141 23 c-3 -10 -5 -4 -5 12 0 17 2 24 5 18 2 -7 2 -21 0
-30z m-127 -33 c28 -28 25 -64 -6 -89 -15 -12 -32 -21 -39 -21 -24 0 -65 41
-65 66 0 31 33 64 65 64 14 0 34 -9 45 -20z m2472 3 c10 -9 18 -23 18 -32 0
-10 -5 -7 -13 9 -17 35 -69 40 -91 8 -9 -12 -16 -18 -16 -14 0 19 34 46 58 46
14 0 34 -7 44 -17z m-2355 -25 c-3 -7 -5 -2 -5 12 0 14 2 19 5 13 2 -7 2 -19
0 -25z m2171 -78 c0 -22 -1 -22 -8 5 -4 17 -8 41 -8 55 0 22 1 22 8 -5 4 -16
8 -41 8 -55z m-2181 23 c-3 -10 -5 -4 -5 12 0 17 2 24 5 18 2 -7 2 -21 0 -30z
m2302 -18 c29 -9 56 2 70 28 10 19 11 20 8 2 -1 -10 -14 -26 -30 -35 -24 -13
-30 -13 -54 0 -16 9 -29 25 -30 35 -3 18 -2 17 6 -2 6 -12 19 -24 30 -28z
m-2314 -60 c-4 -25 -9 -44 -12 -41 -2 2 -1 25 2 51 4 25 9 44 12 41 2 -2 1
-25 -2 -51z m2213 -55 c0 -22 -1 -22 -8 5 -4 17 -8 41 -8 55 0 22 1 22 8 -5 4
-16 8 -41 8 -55z m-981 28 c-3 -7 -5 -2 -5 12 0 14 2 19 5 13 2 -7 2 -19 0
-25z m-270 -20 c-3 -7 -5 -2 -5 12 0 14 2 19 5 13 2 -7 2 -19 0 -25z m280 -30
c-3 -7 -5 -2 -5 12 0 14 2 19 5 13 2 -7 2 -19 0 -25z m-1167 -59 c47 -15 80
-27 75 -28 -22 -2 -209 63 -192 66 9 3 18 14 18 26 1 16 3 14 8 -8 5 -27 13
-31 91 -56z m1003 61 c-53 -32 -42 -100 16 -100 13 0 33 7 43 17 10 9 18 11
18 5 0 -6 -9 -16 -19 -22 -47 -25 -101 1 -101 49 0 31 8 44 35 59 35 20 41 13
8 -8z m-126 -22 c-3 -7 -5 -2 -5 12 0 14 2 19 5 13 2 -7 2 -19 0 -25z m193 17
c19 -22 8 -25 -12 -3 -10 10 -14 18 -9 18 5 0 14 -7 21 -15z m128 -130 c0 -11
-6 3 -13 30 -7 28 -13 59 -13 70 0 11 6 -2 13 -30 7 -27 13 -59 13 -70z m-339
26 c-6 -34 -14 -60 -16 -57 -2 2 1 32 8 65 6 34 14 60 16 57 2 -2 -1 -32 -8
-65z m1126 29 c-11 -5 -27 -9 -35 -9 -9 0 -8 4 5 9 11 5 27 9 35 9 9 0 8 -4
-5 -9z m-1790 -34 c50 -13 84 -25 77 -25 -15 -1 -175 38 -181 45 -8 8 14 3
104 -20z m1734 20 c-6 -7 -166 -46 -181 -45 -7 0 25 11 72 24 83 23 117 29
109 21z m-1606 -53 c-7 -2 -19 -2 -25 0 -7 3 -2 5 12 5 14 0 19 -2 13 -5z
m1400 0 c-7 -2 -19 -2 -25 0 -7 3 -2 5 12 5 14 0 19 -2 13 -5z m-1350 -10 c-7
-2 -19 -2 -25 0 -7 3 -2 5 12 5 14 0 19 -2 13 -5z m1300 0 c-7 -2 -19 -2 -25
0 -7 3 -2 5 12 5 14 0 19 -2 13 -5z m-1240 -10 c-7 -2 -21 -2 -30 0 -10 3 -4
5 12 5 17 0 24 -2 18 -5z m779 -23 l5 -30 -211 1 c-116 1 -203 3 -193 6 9 2
18 12 18 21 1 15 2 15 6 0 4 -16 21 -18 184 -18 l179 0 0 25 c0 34 7 31 12 -5z
m411 23 c-7 -2 -21 -2 -30 0 -10 3 -4 5 12 5 17 0 24 -2 18 -5z m-1130 -10
c-7 -2 -21 -2 -30 0 -10 3 -4 5 12 5 17 0 24 -2 18 -5z m1070 0 c-7 -2 -21 -2
-30 0 -10 3 -4 5 12 5 17 0 24 -2 18 -5z m-1005 -10 c-10 -2 -26 -2 -35 0 -10
3 -2 5 17 5 19 0 27 -2 18 -5z m940 0 c-10 -2 -26 -2 -35 0 -10 3 -2 5 17 5
19 0 27 -2 18 -5z m-855 -10 c-13 -2 -33 -2 -45 0 -13 2 -3 4 22 4 25 0 35 -2
23 -4z m780 0 c-13 -2 -33 -2 -45 0 -13 2 -3 4 22 4 25 0 35 -2 23 -4z m-665
-10 c-15 -2 -42 -2 -60 0 -18 2 -6 4 27 4 33 0 48 -2 33 -4z m570 0 c-15 -2
-42 -2 -60 0 -18 2 -6 4 27 4 33 0 48 -2 33 -4z"/>
<path d="M1975 6553 c-335 -168 -655 -402 -919 -672 l-100 -102 150 -99 149
-100 79 79 79 79 -89 138 c-49 76 -91 142 -92 148 -5 13 177 -255 181 -269 2
-5 44 24 93 66 192 163 366 280 587 394 l137 71 -91 135 c-50 74 -96 139 -103
146 -8 9 -23 5 -61 -14z m-730 -718 c14 -13 25 -33 25 -45 0 -28 -35 -60 -67
-60 -61 0 -85 71 -37 109 34 27 50 26 79 -4z"/>
<path d="M1172 5834 c-24 -17 -30 -62 -10 -82 30 -30 98 -1 98 41 0 20 -34 57
-53 57 -7 0 -23 -7 -35 -16z"/>
<path d="M4871 6433 l-100 -147 137 -71 c220 -114 394 -231 586 -394 49 -42
91 -71 93 -66 4 14 186 282 181 269 -1 -6 -43 -72 -92 -148 l-89 -138 79 -79
79 -79 144 96 c78 52 145 94 147 91 2 -2 -61 -46 -140 -98 l-145 -94 61 -70
c154 -178 290 -379 398 -588 l66 -127 142 101 c78 55 142 105 142 110 0 29
-121 240 -231 404 -130 193 -245 332 -419 505 -259 259 -534 463 -830 615
l-109 55 -100 -147z m963 -594 c47 -37 24 -109 -36 -109 -33 0 -68 31 -68 60
0 24 42 70 63 70 8 0 26 -9 41 -21z"/>
<path d="M5760 5830 c-11 -11 -20 -28 -20 -38 0 -41 69 -69 98 -40 20 20 14
65 -10 82 -30 21 -44 20 -68 -4z"/>
<path d="M3295 6530 c-1005 -74 -1898 -624 -2407 -1482 -565 -956 -565 -2140
0 -3096 256 -432 632 -807 1064 -1064 735 -435 1614 -540 2436 -292 162 49
275 95 457 184 505 249 927 631 1231 1112 75 119 206 381 258 515 212 548 258
1171 129 1753 -180 814 -696 1526 -1416 1952 -364 216 -759 350 -1186 402
-150 19 -426 27 -566 16z m-1075 -427 c0 -2 -8 -3 -17 0 -25 5 -73 -20 -73
-39 0 -22 37 -91 52 -97 18 -6 68 21 68 36 0 24 -18 40 -36 33 -17 -5 -17 -4
1 9 18 14 21 14 32 -2 21 -28 15 -52 -18 -72 -42 -26 -62 -17 -87 35 -30 61
-28 78 10 96 29 13 68 14 68 1z m2767 -80 c7 -18 -14 -67 -43 -98 l-24 -26
-40 21 c-22 11 -40 23 -40 26 0 7 40 84 57 111 l14 22 36 -21 c19 -12 37 -27
40 -35z m-2893 -34 c20 -34 34 -64 31 -68 -4 -3 -34 9 -67 27 -33 18 -63 31
-65 28 -3 -3 9 -28 26 -55 17 -28 27 -51 23 -51 -4 0 -24 29 -44 65 -20 36
-32 65 -27 65 6 0 40 -16 75 -36 35 -20 64 -33 64 -30 0 4 -14 31 -31 61 -42
75 -30 70 15 -6z m3019 -38 c7 -8 -6 -3 -27 12 -37 24 -40 25 -52 9 -20 -26
-17 -38 19 -61 17 -11 28 -21 22 -21 -5 0 -23 9 -39 19 -28 19 -31 19 -43 3
-19 -26 -16 -38 20 -61 17 -11 28 -21 23 -21 -5 0 -24 9 -42 21 -38 23 -38 25
18 107 l29 42 30 -17 c17 -10 36 -24 42 -32z m-3136 -118 c-6 -5 -77 110 -77
123 0 5 18 -20 41 -55 22 -35 38 -65 36 -68z m-135 71 l-23 -16 34 -46 c41
-58 49 -72 43 -72 -2 0 -21 24 -42 53 -21 28 -39 54 -41 56 -1 2 -9 -2 -18 -9
-9 -7 -18 -11 -20 -8 -6 6 65 56 80 57 5 1 -1 -6 -13 -15z m3349 -1 c17 -11
29 -25 28 -38 0 -19 -1 -19 -9 2 -12 31 -47 48 -66 32 -21 -17 -17 -35 12 -57
22 -15 26 -24 20 -46 -4 -15 -14 -30 -23 -33 -17 -7 -65 18 -71 37 -3 7 9 2
26 -10 26 -19 34 -21 47 -10 22 19 18 45 -10 60 -27 14 -33 48 -13 68 16 16
25 15 59 -5z m34 -125 c-26 -35 -45 -55 -42 -46 7 21 80 117 86 112 2 -2 -18
-32 -44 -66z m-3502 40 c-36 -26 -39 -34 -18 -62 13 -18 15 -18 47 4 l33 22
-28 -26 c-27 -25 -27 -26 -11 -51 l17 -25 33 25 c46 35 55 31 9 -5 -21 -16
-39 -30 -41 -30 -2 0 -24 26 -49 58 l-45 57 32 27 c18 15 37 28 43 28 5 0 -5
-10 -22 -22z m3562 -65 c-19 -21 -35 -44 -35 -52 0 -21 30 -51 50 -51 23 0 50
31 33 37 -7 3 -13 10 -13 16 0 6 7 5 16 -5 13 -13 14 -19 2 -37 -7 -11 -22
-21 -33 -21 -27 1 -65 34 -65 57 0 20 55 93 70 93 5 0 -7 -17 -25 -37z m84 13
c13 -14 21 -31 18 -38 -4 -9 -6 -8 -6 4 -1 9 -13 26 -27 37 -15 12 -22 21 -17
21 5 0 20 -11 32 -24z m-3702 -120 c17 -6 35 -15 40 -19 4 -5 -5 -3 -20 2 -60
23 -104 7 -75 -27 40 -46 23 -40 -21 8 -28 30 -50 60 -50 65 0 6 10 -3 24 -19
20 -26 26 -28 40 -16 12 10 14 24 10 59 l-5 46 13 -44 c10 -36 18 -46 44 -55z
m3764 27 c-5 -37 -5 -38 -10 -8 l-6 29 -39 -47 c-21 -26 -41 -45 -44 -43 -6 6
91 115 99 110 3 -1 3 -20 0 -41z m33 -78 c-52 -60 -64 -66 -64 -32 0 15 3 18
8 9 6 -9 19 -1 48 32 21 24 43 45 47 45 5 1 -13 -24 -39 -54z m-47 3 c-3 -7
-5 -2 -5 12 0 14 2 19 5 13 2 -7 2 -19 0 -25z m-3895 5 c10 -9 18 -22 18 -30
0 -7 6 -13 13 -13 8 0 22 -10 33 -22 19 -23 19 -23 -2 -5 -27 23 -57 22 -79
-3 -18 -20 -18 -21 5 -45 13 -14 21 -27 18 -30 -3 -3 -29 20 -58 51 l-52 55
28 30 c32 33 50 36 76 12z m4108 -78 c0 -13 -65 -135 -72 -135 -5 0 -4 10 3
21 9 18 7 25 -14 46 -21 21 -28 23 -46 14 -11 -7 -21 -9 -21 -6 0 4 28 19 63
35 59 28 87 36 87 25z m-4208 -72 c38 -16 68 -32 68 -36 0 -4 -10 -3 -21 4
-18 9 -25 7 -46 -14 -21 -21 -23 -28 -14 -46 7 -11 8 -21 3 -21 -7 0 -72 122
-72 135 0 9 15 5 82 -22z m4261 -45 c-15 -53 -32 -84 -19 -38 21 82 22 78 -15
44 -19 -16 -43 -36 -54 -43 -11 -7 5 10 35 38 30 28 58 51 62 51 4 0 0 -24 -9
-52z m-4343 -59 c52 -48 52 -49 8 -15 -25 20 -49 36 -52 36 -4 0 5 -22 19 -50
l25 -50 -22 0 c-17 0 -19 3 -10 9 11 7 9 18 -12 59 -41 81 -33 83 44 11z
m4386 0 c-20 -17 -48 -41 -63 -52 l-26 -21 6 24 c4 14 7 30 8 35 0 6 4 2 7 -7
6 -15 13 -13 52 21 25 21 47 37 49 36 2 -2 -13 -18 -33 -36z m124 -91 c0 -20
-76 -78 -102 -78 -18 0 -67 46 -68 62 0 4 26 28 58 53 l57 45 27 -32 c15 -18
28 -40 28 -50z m-4630 42 c0 -5 6 -7 13 -4 7 2 24 0 38 -6 21 -9 20 -9 -11 -5
l-35 6 45 -41 c25 -23 36 -37 25 -31 -11 5 -40 28 -65 50 -32 28 -40 40 -27
41 9 0 17 -4 17 -10z m4710 -135 c0 -3 -25 -21 -55 -41 -30 -20 -55 -41 -55
-46 0 -17 33 -58 47 -58 8 0 35 14 59 31 25 17 48 29 50 26 8 -8 -91 -67 -112
-67 -22 0 -59 54 -50 75 2 7 29 30 58 49 55 38 58 39 58 31z m-4717 -73 c16
18 24 24 18 13 -17 -33 -39 -57 -48 -54 -24 11 -113 75 -113 82 0 5 26 -10 58
-32 l57 -41 28 32z m-121 -64 c52 -11 92 -30 46 -21 -17 3 -27 -3 -40 -26 -15
-27 -15 -31 0 -52 30 -44 -5 -9 -52 50 -53 68 -51 71 46 49z m4904 -27 c-9
-16 -16 -32 -16 -35 0 -3 19 -7 43 -9 l42 -4 -48 -1 c-45 -2 -48 -4 -63 -42
-9 -23 -18 -39 -21 -36 -2 2 2 20 11 39 8 19 12 38 8 41 -3 3 -1 6 5 6 5 0 18
18 28 40 10 22 20 38 22 36 3 -2 -3 -18 -11 -35z m-73 -38 c-7 -2 -21 -2 -30
0 -10 3 -4 5 12 5 17 0 24 -2 18 -5z m-4971 -35 c-22 -22 -13 -35 49 -68 33
-17 58 -34 56 -37 -3 -2 -33 10 -66 29 -59 33 -60 33 -76 13 -14 -17 -14 -15
1 15 18 39 33 60 42 60 3 0 1 -5 -6 -12z m5167 -22 c-11 -10 -203 -108 -196
-100 12 13 191 111 196 107 2 -2 2 -5 0 -7z m1 -61 c0 -3 -27 -18 -60 -35 -65
-33 -71 -45 -41 -81 l19 -24 57 28 c32 15 60 26 62 23 8 -7 -94 -56 -116 -56
-24 0 -55 52 -46 78 6 22 125 85 125 67z m-5170 -75 c33 -17 60 -33 60 -35 0
-5 -119 52 -129 61 -13 12 16 1 69 -26z m-95 -45 c-39 -38 -33 -62 21 -85 61
-26 69 -25 84 10 10 24 10 33 0 45 -15 18 -40 20 -40 3 0 -6 -2 -9 -5 -6 -3 3
-3 12 1 21 5 15 9 15 35 1 16 -8 29 -21 29 -30 0 -30 -30 -74 -51 -74 -23 0
-94 35 -104 50 -15 24 19 90 45 90 5 0 -2 -11 -15 -25z m5270 -59 c-38 -18
-72 -31 -75 -28 -3 3 0 6 5 9 6 2 33 14 60 27 28 14 57 25 65 25 8 0 -16 -15
-55 -33z m-5257 -98 c29 -12 50 -23 48 -26 -6 -6 -117 37 -131 51 -11 11 -8
10 83 -25z m-31 -64 c50 -20 59 -40 38 -89 -12 -29 -19 -36 -32 -30 -10 4 -38
14 -63 22 -60 21 -63 24 -46 64 24 56 33 59 103 33z m1890 -256 l43 -42 0
-106 0 -106 -40 -39 -40 -39 40 -41 40 -41 0 -102 0 -102 -30 0 -30 0 0 86 0
86 -46 54 -46 54 -124 0 -124 0 0 -140 0 -140 -30 0 -30 0 0 330 0 330 187 0
187 0 43 -42z m623 -288 l116 -325 -29 -3 c-16 -2 -33 0 -37 5 -4 4 -20 45
-35 91 l-27 82 -142 0 -142 0 -29 -90 c-29 -89 -29 -90 -62 -90 -18 0 -33 3
-33 6 0 5 208 594 225 637 6 14 16 17 44 15 l36 -3 115 -325z m692 283 c38
-37 48 -54 48 -80 0 -30 -3 -33 -30 -33 -22 0 -30 5 -30 17 0 9 -14 32 -32 50
l-32 33 -115 0 -115 0 -33 -32 -33 -32 0 -205 0 -205 32 -33 32 -33 115 0 115
0 33 32 c32 31 33 35 33 110 l0 78 -75 0 -75 0 0 30 0 30 105 0 105 0 0 -117
0 -117 -52 -53 -52 -53 -140 0 -140 0 -53 52 -53 52 0 225 0 225 52 53 52 53
145 0 145 0 48 -47z m668 17 l0 -30 -180 0 -180 0 0 -120 0 -120 165 0 165 0
0 -30 0 -30 -165 0 -165 0 0 -120 0 -120 180 0 180 0 0 -30 0 -30 -210 0 -210
0 0 330 0 330 210 0 210 0 0 -30z m-2370 -1125 l0 -135 73 0 72 0 74 131 c41
72 80 133 87 136 7 2 21 3 32 1 17 -3 10 -20 -63 -148 -46 -79 -81 -149 -77
-155 4 -5 44 -71 89 -145 73 -120 80 -135 62 -138 -11 -2 -26 -1 -33 1 -8 3
-49 64 -92 136 l-79 131 -72 0 -73 0 0 -135 0 -135 -30 0 -30 0 0 295 0 295
30 0 30 0 0 -135z m580 -160 l0 -295 -30 0 -30 0 0 295 0 295 30 0 30 0 0
-295z m402 53 l153 -243 3 243 2 242 30 0 30 0 0 -295 0 -295 -29 0 c-26 0
-40 18 -185 247 l-156 247 0 -247 0 -247 -30 0 -30 0 0 295 0 295 29 0 c27 0
40 -17 183 -242z m790 195 c58 -57 65 -93 18 -93 -17 0 -30 5 -30 12 0 7 -14
27 -32 45 -32 33 -33 33 -127 33 -93 0 -96 -1 -128 -32 l-33 -32 0 -180 0
-180 32 -33 c32 -33 33 -33 127 -33 93 0 96 1 128 32 31 30 33 36 33 100 l0
68 -70 0 c-68 0 -70 1 -70 25 l0 25 100 0 100 0 0 -102 0 -102 -47 -48 -47
-48 -125 0 -125 0 -48 47 -48 47 0 200 0 200 47 48 47 48 125 0 125 0 48 -47z
m566 4 c52 -53 56 -87 12 -87 -23 0 -30 5 -30 19 0 11 -12 29 -26 40 -23 18
-41 21 -117 21 -79 0 -94 -3 -114 -22 -19 -18 -23 -31 -23 -86 0 -97 7 -102
149 -102 l115 0 38 -37 38 -37 0 -90 0 -90 -37 -38 -37 -38 -125 0 -125 0 -38
37 c-47 46 -53 93 -13 93 14 0 25 -6 25 -13 0 -7 13 -25 28 -40 26 -25 34 -27
122 -27 88 0 96 2 122 27 25 23 28 34 28 87 0 51 -4 64 -27 88 -26 27 -29 28
-137 28 l-110 0 -38 37 c-38 37 -38 38 -38 117 0 79 1 81 37 118 l37 38 121 0
121 0 42 -43z m1712 -56 c34 -6 35 -7 29 -46 l-6 -40 -2 38 c-1 34 -3 37 -30
37 -16 0 -32 -6 -34 -12 -3 -8 -6 -6 -6 5 -1 13 -10 17 -36 17 -31 0 -35 -3
-35 -27 0 -16 -5 -35 -11 -43 -9 -12 -10 -12 -5 3 3 10 6 34 6 53 l0 34 48 -7
c26 -3 63 -8 82 -12z m-53 -78 c-3 -10 -5 -4 -5 12 0 17 2 24 5 18 2 -7 2 -21
0 -30z m66 -63 c23 0 -10 -19 -74 -45 -79 -31 -78 -40 8 -51 29 -3 53 -11 53
-16 0 -5 -3 -7 -7 -5 -5 3 -41 10 -80 17 -40 6 -73 15 -73 20 0 4 33 20 74 36
41 15 73 31 70 35 -2 4 -28 10 -59 14 -30 3 -57 10 -60 15 -2 4 28 1 68 -6 39
-8 76 -14 80 -14z m-35 -200 c-13 -55 -24 -69 -23 -32 0 25 -4 28 -67 42 -38
8 -68 18 -68 21 0 4 26 1 58 -7 77 -18 90 -17 97 7 12 37 14 14 3 -31z m-97
-80 c38 -12 69 -24 69 -28 0 -4 -7 -27 -15 -52 -10 -29 -14 -34 -11 -15 3 17
7 37 11 46 5 12 -2 20 -25 27 -28 10 -32 9 -40 -14 -6 -14 -10 -33 -11 -42 0
-11 -2 -12 -6 -4 -3 7 0 26 5 42 10 27 8 29 -20 39 -17 6 -32 11 -33 11 -1 0
-8 -20 -15 -45 -7 -25 -15 -44 -17 -42 -7 8 21 97 30 97 6 0 41 -9 78 -20z
m-5584 -50 c3 0 32 7 65 16 33 8 62 13 64 11 2 -2 -25 -12 -61 -22 -36 -9 -65
-22 -66 -29 -1 -16 -18 26 -17 44 0 10 2 9 5 -2 2 -10 7 -18 10 -18z m163 -59
c0 -5 -20 -34 -45 -64 -25 -31 -45 -58 -45 -61 0 -3 25 4 57 15 31 10 58 17
60 15 2 -2 -26 -14 -62 -26 -36 -12 -69 -20 -72 -17 -3 3 16 31 41 63 26 31
45 58 43 60 -2 2 -30 -5 -62 -16 -32 -11 -55 -17 -51 -13 5 6 88 38 134 52 1
1 2 -3 2 -8z m5393 -33 c62 -22 63 -24 33 -88 -9 -19 -19 -24 -41 -23 -17 1
-35 9 -41 18 -6 8 -18 13 -26 10 -8 -3 -25 -1 -39 5 -23 10 -22 10 6 5 37 -6
51 2 65 39 11 30 2 45 -27 46 -6 0 -15 5 -19 12 -5 8 -2 9 12 4 10 -5 45 -17
77 -28z m-5335 -133 c-3 -3 -9 2 -12 12 -6 14 -5 15 5 6 7 -7 10 -15 7 -18z
m5267 -11 c72 -29 77 -39 45 -91 -22 -36 -26 -38 -66 -23 -27 11 -28 17 -8 87
5 19 1 25 -27 38 -59 25 -12 16 56 -11z m-5310 -62 c1 -1 14 3 29 9 20 9 25
17 20 33 -4 17 -3 18 5 6 19 -27 12 -37 -41 -58 -29 -11 -60 -23 -69 -26 -12
-5 -20 4 -32 35 -9 24 -15 44 -13 47 2 2 10 -13 17 -32 13 -36 31 -44 58 -27
11 7 11 15 2 41 -16 46 -12 52 6 10 8 -19 16 -36 18 -38z m95 -38 c0 -3 -26
-17 -57 -32 -57 -26 -58 -26 -28 -33 27 -6 26 -7 -12 -8 -24 0 -43 3 -43 8 0
4 30 22 68 39 80 36 72 33 72 26z m5215 -94 c-12 -50 -34 -72 -63 -65 -15 3
-32 13 -38 21 -6 7 -20 14 -30 14 -10 0 -26 5 -34 11 -12 9 -10 10 8 6 34 -8
50 1 68 35 15 28 14 29 -16 39 -16 6 -30 15 -30 19 0 5 32 -6 71 -23 65 -29
70 -33 64 -57z m-5240 -11 c-20 -22 -34 -43 -32 -46 3 -2 28 7 56 21 28 15 51
23 51 19 -1 -5 -32 -23 -71 -40 -39 -18 -69 -28 -67 -22 6 17 82 108 92 109 4
0 -8 -18 -29 -41z m5175 -121 c0 -4 -31 10 -70 30 -38 20 -70 40 -70 45 0 4
31 -10 70 -30 38 -21 70 -41 70 -45z m-5150 23 c0 -5 -9 -13 -20 -16 -25 -8
-25 -33 -1 -64 18 -23 19 -23 45 -6 l26 18 -19 33 c-11 19 -17 34 -12 34 5 0
14 -14 21 -31 13 -31 16 -31 65 -14 11 3 -7 -10 -40 -29 -33 -20 -64 -36 -70
-36 -12 0 -45 56 -45 75 0 8 10 21 22 29 26 19 28 19 28 7z m4997 -18 c-26 -7
-51 -61 -36 -79 19 -23 47 -16 64 16 23 45 85 37 85 -11 0 -24 -39 -69 -58
-68 -14 0 -14 2 -2 6 21 8 50 45 50 65 0 21 -37 33 -55 18 -8 -7 -17 -20 -20
-31 -11 -32 -85 -17 -85 17 0 30 34 74 55 73 17 -1 17 -2 2 -6z m-4843 -89
c24 -24 38 -54 32 -69 -7 -19 -81 -65 -105 -65 -22 0 -51 40 -51 70 0 13 16
31 47 50 54 35 56 35 77 14z m4883 -101 c2 -6 -7 -29 -21 -50 -31 -45 -35 -35
-6 13 l21 32 -23 16 c-30 21 -31 21 -52 -15 -10 -17 -20 -28 -23 -25 -3 3 4
18 16 34 l21 30 -25 16 c-13 9 -27 16 -29 16 -3 0 -17 -17 -31 -37 -32 -49
-33 -35 0 17 l25 40 61 -38 c34 -20 63 -42 66 -49z m-4789 -37 l22 -29 -47
-34 c-55 -40 -83 -56 -83 -48 0 2 25 21 55 41 30 20 55 39 55 42 0 2 -10 21
-22 41 -23 39 -15 34 20 -13z m4646 -187 c-2 -4 -35 3 -72 15 -84 29 -104 38
-70 31 20 -4 31 1 48 22 11 15 18 33 15 40 -18 45 -12 40 33 -26 28 -41 49
-78 46 -82z m-4554 59 c8 -14 -1 -25 -49 -62 l-59 -46 -26 35 c-14 18 -26 37
-26 41 0 5 17 -15 47 -55 1 -2 14 4 28 13 l26 17 -22 30 c-12 17 -19 32 -17
34 2 2 12 -9 23 -26 24 -34 26 -35 50 -9 18 20 18 21 -3 50 -12 16 -22 33 -22
37 0 9 34 -31 50 -59z m4458 -180 c-32 -42 -52 -47 -80 -21 -24 22 -23 38 7
77 l25 33 -25 17 c-14 9 -25 21 -25 27 0 6 29 -14 63 -43 l64 -53 -29 -37z
m-4378 85 c0 -11 -74 -133 -78 -128 -2 2 10 27 27 56 18 28 30 54 27 57 -3 2
-29 -5 -57 -17 -28 -11 -57 -21 -63 -20 -11 0 122 57 137 58 4 1 7 -2 7 -6z
m4279 -147 l25 -26 -34 -35 c-40 -41 -46 -42 -77 -13 -29 27 -29 39 2 68 31
29 31 37 3 69 -19 21 -16 20 17 -6 22 -17 51 -43 64 -57z m-4186 38 c16 -19
27 -36 25 -37 -2 -1 -26 -23 -54 -50 l-50 -47 -34 37 c-32 35 -33 36 -4 10 28
-25 34 -27 53 -15 27 16 26 26 -1 57 l-23 26 26 -22 c30 -27 37 -28 61 -6 18
16 17 18 -14 50 -17 18 -28 33 -22 33 5 0 22 -16 37 -36z m104 -106 l33 -32
-52 -53 -52 -53 -33 32 c-18 18 -33 36 -33 42 0 13 81 96 94 96 6 0 25 -14 43
-32z m3893 -65 l51 -58 -35 -32 c-20 -18 -40 -33 -46 -33 -19 0 -100 82 -100
101 0 17 55 78 72 79 3 0 29 -26 58 -57z m-120 -103 l50 -61 -34 -29 c-18 -17
-38 -30 -42 -30 -5 0 6 13 25 29 l35 28 -21 26 -20 25 -29 -23 c-41 -34 -51
-31 -13 3 29 26 30 30 18 50 -18 28 -24 28 -68 -4 l-36 -26 37 36 c21 20 40
36 42 36 3 0 28 -27 56 -60z m-3650 -25 l24 -25 30 27 29 28 -21 -30 c-12 -16
-35 -45 -50 -64 l-29 -35 -31 25 c-17 13 -31 28 -31 33 -1 6 12 -2 27 -17 l28
-27 25 26 24 26 -28 24 c-34 29 -43 30 -59 4 -7 -11 -17 -20 -22 -20 -5 0 1
11 14 25 29 31 41 31 70 0z m3533 -78 c32 -21 56 -41 54 -43 -3 -3 -31 13 -62
36 -32 22 -60 38 -63 36 -2 -3 6 -35 18 -71 12 -36 20 -69 17 -72 -7 -6 -55
149 -50 160 5 9 8 7 86 -46z m-3373 -51 c-23 -31 -47 -56 -52 -56 -19 0 -68
42 -68 57 0 18 28 53 43 53 5 0 23 -10 39 -22 l31 -21 20 27 c10 15 21 25 24
22 3 -2 -14 -30 -37 -60z m3252 -24 c46 -68 46 -69 24 -82 -11 -7 -31 -20 -43
-28 -13 -8 -23 -12 -23 -9 0 3 16 15 35 27 34 21 35 22 19 51 l-15 30 -33 -21
c-48 -29 -58 -25 -13 5 36 25 37 26 21 50 -20 30 -18 30 -63 3 -42 -25 -36
-16 11 18 18 13 33 23 34 24 1 0 21 -31 46 -68z m-3185 38 c-7 -28 47 -67 69
-50 8 7 17 11 20 8 2 -3 -19 -23 -48 -45 -77 -57 -78 -58 -78 -31 0 15 3 19 8
11 6 -9 16 -7 40 10 38 26 38 28 12 45 -25 15 -40 8 -40 -20 0 -12 -3 -19 -6
-15 -7 7 15 107 23 107 3 0 3 -9 0 -20z m107 -134 c-32 -52 -60 -93 -62 -91
-2 2 22 47 53 100 32 52 60 94 62 91 3 -2 -21 -47 -53 -100z m2959 18 c21 -36
37 -68 34 -70 -2 -3 -22 24 -43 60 l-38 65 -32 -19 c-17 -11 -35 -20 -40 -20
-5 0 9 12 31 25 22 14 42 25 45 25 3 0 22 -30 43 -66z m-2821 -95 l-36 -67
-37 18 c-46 24 -53 42 -28 74 l20 25 35 -21 c34 -20 35 -20 49 -2 22 29 18 39
-19 56 -32 16 -34 15 -56 -5 l-22 -22 11 22 c16 31 31 33 78 10 l42 -21 -37
-67z m2711 33 c32 -58 29 -83 -9 -100 -51 -24 -68 -16 -97 43 -29 60 -27 79
12 100 43 24 63 15 94 -43z m-2590 -8 c18 -9 33 -18 35 -19 3 -3 -55 -124 -63
-133 -4 -5 -85 37 -85 43 0 3 18 -4 40 -15 l40 -21 12 27 c13 28 14 26 -39 61
-10 7 -1 5 20 -4 33 -15 39 -15 47 -3 17 27 10 46 -22 63 -18 8 -29 16 -25 16
4 1 22 -6 40 -15z m2452 -66 l34 -73 -37 -17 c-49 -22 -69 -22 -82 1 -19 37
-12 57 29 76 l39 17 -14 34 c-27 64 -3 34 31 -38z m-2346 -20 c-1 -30 -2 -31
-8 -8 -6 23 -8 21 -39 -28 -17 -29 -35 -52 -38 -52 -3 0 2 12 12 28 9 15 27
42 38 59 27 41 36 42 35 1z m2203 -40 c15 -40 25 -74 22 -77 -2 -3 -27 17 -53
44 l-50 48 -4 -34 c-3 -30 -4 -28 -5 11 l-2 44 45 -44 c24 -24 47 -42 49 -39
2 2 -6 30 -19 62 -13 31 -20 57 -17 57 4 0 19 -32 34 -72z m-2112 26 c0 -8 -4
-13 -9 -10 -5 3 -26 -16 -47 -42 -20 -26 -41 -51 -46 -56 -4 -6 -7 10 -7 35 1
38 2 40 8 14 l6 -29 40 51 c42 55 55 63 55 37z m1985 -61 c10 -26 22 -51 28
-54 5 -4 7 -15 5 -25 -4 -17 -6 -16 -15 6 -35 83 -52 131 -45 126 5 -3 17 -27
27 -53z m-2000 -5 c-4 -24 -11 -50 -17 -58 -7 -12 -8 -11 -4 5 3 11 8 37 12
58 3 20 8 37 11 37 3 0 2 -19 -2 -42z m1953 -26 c12 -38 22 -71 22 -74 0 -3
-20 -13 -45 -22 -25 -8 -43 -11 -40 -5 4 5 10 9 15 9 5 0 20 4 34 10 23 8 24
12 14 40 -7 21 -15 29 -25 26 -8 -4 -27 -8 -41 -11 -23 -4 -22 -3 5 7 43 17
46 23 39 54 -6 21 -11 25 -29 20 -53 -15 -71 -16 -37 -2 59 24 64 22 88 -52z
m-122 -119 c-3 -4 -31 17 -61 47 -30 30 -57 52 -59 49 -3 -3 2 -31 10 -63 8
-32 13 -60 11 -62 -3 -3 -14 30 -25 73 -12 42 -19 79 -17 82 3 3 27 -15 53
-40 82 -78 83 -79 66 -17 -7 29 -13 60 -13 68 0 8 10 -18 21 -58 12 -40 18
-75 14 -79z m-206 50 c18 -94 18 -94 48 -88 22 4 23 4 7 -3 -11 -5 -38 -12
-60 -15 -34 -5 -36 -5 -14 4 l26 10 -13 62 c-14 66 -17 87 -10 87 3 0 10 -26
16 -57z"/>
<path d="M4880 6004 c-18 -30 -31 -57 -29 -58 17 -15 67 -33 75 -28 15 10 54
81 54 97 0 12 -47 45 -64 45 -2 0 -19 -25 -36 -56z"/>
<path d="M1463 5593 c-28 -19 -29 -35 -3 -58 20 -18 21 -18 48 8 22 22 25 31
16 45 -15 23 -34 25 -61 5z"/>
<path d="M5573 5503 c-38 -19 -40 -24 -14 -47 19 -17 20 -16 41 23 23 45 20
47 -27 24z"/>
<path d="M1370 5429 c21 -39 22 -40 41 -23 10 9 19 21 19 25 0 7 -63 39 -76
39 -3 0 5 -18 16 -41z"/>
<path d="M5740 5283 c-47 -36 -49 -46 -23 -75 23 -26 45 -22 89 16 l39 34 -21
28 c-11 15 -24 29 -30 30 -5 2 -29 -13 -54 -33z"/>
<path d="M1046 4994 c26 -33 29 -35 41 -18 20 28 16 41 -18 48 -50 10 -51 8
-23 -30z"/>
<path d="M746 4478 c-7 -18 -10 -36 -7 -40 4 -4 32 -16 63 -27 l57 -20 12 36
c13 41 5 54 -50 72 -51 17 -60 14 -75 -21z"/>
<path d="M2370 4100 l0 -130 143 0 c137 0 144 1 165 23 19 20 22 35 22 108 0
76 -2 88 -23 107 -22 20 -33 22 -165 22 l-142 0 0 -130z"/>
<path d="M3140 4053 c-29 -87 -55 -164 -58 -170 -3 -10 24 -13 116 -13 l120 0
-57 165 c-31 90 -59 167 -63 170 -3 4 -30 -65 -58 -152z"/>
<path d="M6210 2574 c-15 -39 -12 -53 15 -66 29 -13 38 -7 53 39 10 30 9 32
-20 42 -40 14 -37 15 -48 -15z"/>
<path d="M6150 2414 c-13 -38 -8 -48 28 -59 19 -5 25 -1 38 30 8 21 14 38 12
40 -10 8 -48 25 -57 25 -5 0 -15 -16 -21 -36z"/>
<path d="M6092 2285 c-7 -14 -12 -32 -12 -40 0 -14 29 -35 49 -35 10 0 45 70
39 75 -10 8 -48 25 -56 25 -5 0 -14 -11 -20 -25z"/>
<path d="M1043 2032 c-24 -15 -43 -32 -43 -39 0 -24 24 -63 38 -63 24 0 102
49 102 64 0 15 -38 66 -48 66 -4 0 -26 -13 -49 -28z"/>
<path d="M5767 1792 c-10 -10 -17 -21 -17 -24 0 -6 81 -31 85 -26 6 5 -36 68
-44 68 -5 0 -15 -8 -24 -18z"/>
<path d="M5692 1657 c-27 -28 -27 -39 -4 -60 25 -23 33 -21 60 14 l24 29 -24
20 c-29 25 -30 25 -56 -3z"/>
<path d="M5585 1540 l-29 -30 24 -25 c26 -27 50 -22 71 16 9 18 7 25 -13 45
l-24 24 -29 -30z"/>
<path d="M1487 1462 c-43 -44 -45 -51 -14 -80 31 -29 37 -28 80 16 43 44 45
51 14 80 -31 29 -37 28 -80 -16z"/>
<path d="M5377 1432 c-15 -15 -27 -33 -27 -39 0 -6 21 -30 46 -53 l46 -42 31
31 32 31 -51 50 -50 51 -27 -29z"/>
<path d="M1758 1175 c-9 -21 -8 -27 13 -44 32 -27 43 -26 59 5 13 24 12 27
-10 45 -33 25 -48 24 -62 -6z"/>
<path d="M2071 972 c-11 -21 -4 -35 26 -51 31 -16 38 -14 51 14 10 22 9 26
-18 40 -38 19 -47 19 -59 -3z"/>
<path d="M4793 1020 c-18 -11 -33 -22 -33 -26 0 -16 56 -104 67 -104 22 0 62
22 68 38 6 16 -42 103 -60 109 -5 1 -25 -6 -42 -17z"/>
<path d="M4688 894 c-31 -16 -35 -31 -14 -59 12 -17 17 -17 45 -5 40 16 44 23
30 54 -14 30 -23 31 -61 10z"/>
<path d="M575 2124 c-77 -52 -141 -98 -143 -103 -7 -22 119 -247 239 -426 130
-193 245 -332 419 -505 173 -174 312 -289 505 -419 186 -125 425 -258 444
-247 12 7 191 273 191 283 0 4 -60 38 -133 75 -197 100 -419 249 -597 402 -36
31 -68 55 -73 53 -4 -1 -48 -63 -97 -137 -49 -74 -90 -132 -90 -128 0 4 40 69
90 145 l90 138 -77 77 c-43 43 -81 78 -85 78 -4 0 -65 -37 -135 -83 -152 -99
-153 -99 -153 -94 0 3 63 46 141 97 l141 92 -19 21 c-194 220 -342 436 -457
666 -31 61 -57 111 -59 110 -1 0 -65 -43 -142 -95z m605 -874 c-38 -38 -15
-90 40 -90 50 0 69 66 28 94 -12 9 -18 16 -14 16 18 0 46 -33 46 -54 0 -12 -7
-32 -16 -44 -31 -45 -114 -18 -114 38 0 19 28 60 41 60 5 0 0 -9 -11 -20z"/>
<path d="M6219 2098 c-91 -181 -243 -411 -377 -568 -31 -36 -62 -73 -70 -82
-12 -15 1 -26 134 -113 l149 -97 34 38 c149 171 343 459 446 664 l35 70 -135
90 c-75 50 -142 93 -150 96 -10 4 -29 -25 -66 -98z"/>
<path d="M5671 1346 c-40 -41 -72 -78 -70 -83 14 -33 184 -283 193 -283 15 0
246 233 246 247 0 9 -274 193 -289 193 -3 0 -40 -33 -80 -74z m162 -77 c28
-15 37 -28 37 -58 0 -33 -27 -61 -59 -61 -32 0 -44 8 -60 37 -19 36 -12 40 9
6 33 -55 100 -42 100 19 0 21 -8 33 -32 48 -35 21 -31 28 5 9z m-60 -17 c-10
-10 -20 -17 -22 -16 -6 5 20 34 30 34 5 0 1 -8 -8 -18z"/>
<path d="M5510 1193 c-173 -152 -417 -317 -613 -414 -59 -30 -107 -57 -107
-62 0 -6 170 -268 187 -286 11 -14 267 131 443 250 114 77 309 228 343 267 17
19 15 23 -78 166 -52 80 -96 146 -98 146 -1 -1 -36 -31 -77 -67z"/>
<path d="M2226 6554 c-37 -37 -1 -103 49 -90 14 4 31 17 37 31 23 52 -46 100
-86 59z"/>
<path d="M4694 6545 c-21 -33 -6 -72 31 -81 50 -13 86 53 49 90 -24 24 -61 20
-80 -9z"/>
<path d="M2236 524 c-25 -24 -20 -61 10 -81 24 -15 29 -15 53 -2 49 28 32 99
-24 99 -13 0 -31 -7 -39 -16z"/>
</g>
</svg>
