<svg width="124" height="129" viewBox="0 0 124 129" fill="none" xmlns="http://www.w3.org/2000/svg">
<path d="M68.9464 66C68.9464 83.1123 67.8935 98.5992 66.1929 109.803C65.3423 115.407 64.3313 119.928 63.2135 123.043C62.654 124.602 62.073 125.794 61.4815 126.591C60.8853 127.395 60.3159 127.75 59.7857 127.75C59.2555 127.75 58.6861 127.395 58.0899 126.591C57.4985 125.794 56.9174 124.602 56.3579 123.043C55.2401 119.928 54.2291 115.407 53.3785 109.803C51.6779 98.5992 50.625 83.1123 50.625 66C50.625 48.8877 51.6779 33.4008 53.3785 22.1969C54.2291 16.593 55.2401 12.0716 56.3579 8.95671C56.9174 7.39775 57.4985 6.20593 58.0899 5.40856C58.6861 4.60483 59.2555 4.25 59.7857 4.25C60.3159 4.25 60.8853 4.60483 61.4815 5.40856C62.073 6.20593 62.654 7.39775 63.2135 8.95671C64.3313 12.0716 65.3423 16.593 66.1929 22.1969C67.8935 33.4008 68.9464 48.8877 68.9464 66Z" stroke="#F59740" stroke-width="0.5"/>
<path d="M73.3761 66C73.3761 83.1123 72.3232 98.5992 70.6226 109.803C69.772 115.407 68.761 119.928 67.6432 123.043C67.0837 124.602 66.5027 125.794 65.9112 126.591C65.315 127.395 64.7456 127.75 64.2154 127.75C63.6852 127.75 63.1158 127.395 62.5196 126.591C61.9281 125.794 61.3471 124.602 60.7876 123.043C59.6698 119.928 58.6588 115.407 57.8082 109.803C56.1076 98.5992 55.0547 83.1123 55.0547 66C55.0547 48.8877 56.1076 33.4008 57.8082 22.1969C58.6588 16.593 59.6698 12.0716 60.7876 8.95671C61.3471 7.39775 61.9281 6.20593 62.5196 5.40856C63.1158 4.60483 63.6852 4.25 64.2154 4.25C64.7456 4.25 65.315 4.60483 65.9112 5.40856C66.5027 6.20593 67.0837 7.39775 67.6432 8.95671C68.761 12.0716 69.772 16.593 70.6226 22.1969C72.3232 33.4008 73.3761 48.8877 73.3761 66Z" stroke="#F59740" stroke-width="0.5"/>
<path d="M62 72.9464C44.8877 72.9464 29.4008 71.8935 18.1969 70.1929C12.593 69.3423 8.07162 68.3313 4.95671 67.2135C3.39775 66.654 2.20593 66.073 1.40856 65.4815C0.604827 64.8853 0.25 64.3159 0.25 63.7857C0.25 63.2555 0.604828 62.6861 1.40856 62.0899C2.20593 61.4985 3.39775 60.9174 4.95671 60.3579C8.07162 59.2401 12.593 58.2291 18.1969 57.3785C29.4008 55.6779 44.8877 54.625 62 54.625C79.1123 54.625 94.5992 55.6779 105.803 57.3785C111.407 58.2291 115.928 59.2401 119.043 60.3579C120.602 60.9174 121.794 61.4985 122.591 62.0899C123.395 62.6861 123.75 63.2555 123.75 63.7857C123.75 64.3159 123.395 64.8853 122.591 65.4815C121.794 66.073 120.602 66.654 119.043 67.2135C115.928 68.3313 111.407 69.3423 105.803 70.1929C94.5992 71.8935 79.1123 72.9464 62 72.9464Z" stroke="#F59740" stroke-width="0.5"/>
<path d="M62 77.3761C44.8877 77.3761 29.4008 76.3232 18.1969 74.6226C12.593 73.772 8.07162 72.761 4.95671 71.6432C3.39775 71.0837 2.20593 70.5026 1.40856 69.9112C0.604827 69.315 0.25 68.7456 0.25 68.2154C0.25 67.6852 0.604828 67.1158 1.40856 66.5196C2.20593 65.9281 3.39775 65.3471 4.95671 64.7876C8.07162 63.6698 12.593 62.6588 18.1969 61.8082C29.4008 60.1076 44.8877 59.0547 62 59.0547C79.1123 59.0547 94.5992 60.1076 105.803 61.8082C111.407 62.6588 115.928 63.6698 119.043 64.7876C120.602 65.3471 121.794 65.9281 122.591 66.5196C123.395 67.1158 123.75 67.6852 123.75 68.2154C123.75 68.7456 123.395 69.315 122.591 69.9112C121.794 70.5027 120.602 71.0837 119.043 71.6432C115.928 72.761 111.407 73.772 105.803 74.6226C94.5992 76.3232 79.1123 77.3761 62 77.3761Z" stroke="#F59740" stroke-width="0.5"/>
<path d="M66.9125 70.9101C54.8122 83.0103 43.1169 93.2167 33.992 99.9366C29.4279 103.298 25.516 105.78 22.523 107.192C21.025 107.899 19.7714 108.331 18.7893 108.476C17.7995 108.623 17.1459 108.471 16.771 108.096C16.3961 107.721 16.2444 107.068 16.3911 106.078C16.5367 105.096 16.9686 103.842 17.6754 102.344C19.0875 99.3514 21.5697 95.4394 24.9308 90.8754C31.6507 81.7505 41.857 70.0551 53.9573 57.9549C66.0575 45.8547 77.7528 35.6483 86.8777 28.9284C91.4418 25.5673 95.3538 23.0852 98.3468 21.673C99.8447 20.9662 101.098 20.5344 102.08 20.3888C103.07 20.242 103.724 20.3937 104.099 20.7687C104.474 21.1436 104.625 21.7971 104.479 22.787C104.333 23.769 103.901 25.0227 103.194 26.5206C101.782 29.5136 99.3 33.4256 95.9389 37.9896C89.219 47.1145 79.0127 58.8099 66.9125 70.9101Z" stroke="#F59740" stroke-width="0.5"/>
<path d="M70.0453 74.0429C57.9451 86.1431 46.2497 96.3495 37.1248 103.069C32.5607 106.43 28.6488 108.913 25.6558 110.325C24.1578 111.032 22.9042 111.463 21.9222 111.609C20.9323 111.756 20.2788 111.604 19.9038 111.229C19.5289 110.854 19.3772 110.201 19.5239 109.211C19.6695 108.229 20.1014 106.975 20.8082 105.477C22.2203 102.484 24.7025 98.5722 28.0636 94.0082C34.7835 84.8833 44.9898 73.1879 57.0901 61.0877C69.1903 48.9875 80.8857 38.7811 90.0106 32.0613C94.5746 28.7002 98.4866 26.218 101.48 24.8058C102.978 24.0991 104.231 23.6672 105.213 23.5216C106.203 23.3748 106.857 23.5265 107.232 23.9015C107.606 24.2764 107.758 24.9299 107.611 25.9198C107.466 26.9019 107.034 28.1555 106.327 29.6534C104.915 32.6464 102.433 36.5584 99.0717 41.1224C92.3518 50.2473 82.1455 61.9427 70.0453 74.0429Z" stroke="#F59740" stroke-width="0.5"/>
<path d="M57.0875 70.9101C69.1878 83.0103 80.8831 93.2167 90.008 99.9366C94.5721 103.298 98.484 105.78 101.477 107.192C102.975 107.899 104.229 108.331 105.211 108.476C106.201 108.623 106.854 108.471 107.229 108.096C107.604 107.721 107.756 107.068 107.609 106.078C107.463 105.096 107.031 103.842 106.325 102.344C104.912 99.3514 102.43 95.4394 99.0692 90.8754C92.3493 81.7505 82.143 70.0551 70.0427 57.9549C57.9425 45.8547 46.2472 35.6483 37.1223 28.9284C32.5582 25.5673 28.6462 23.0852 25.6532 21.673C24.1553 20.9662 22.9017 20.5344 21.9196 20.3888C20.9298 20.242 20.2762 20.3937 19.9013 20.7687C19.5264 21.1436 19.3747 21.7971 19.5214 22.787C19.667 23.769 20.0989 25.0227 20.8057 26.5206C22.2178 29.5136 24.7 33.4256 28.0611 37.9896C34.781 47.1145 44.9873 58.8099 57.0875 70.9101Z" stroke="#F59740" stroke-width="0.5"/>
<path d="M53.9547 74.0429C66.0549 86.1431 77.7503 96.3495 86.8752 103.069C91.4393 106.43 95.3512 108.913 98.3442 110.325C99.8422 111.032 101.096 111.463 102.078 111.609C103.068 111.756 103.721 111.604 104.096 111.229C104.471 110.854 104.623 110.201 104.476 109.211C104.33 108.229 103.899 106.975 103.192 105.477C101.78 102.484 99.2975 98.5722 95.9364 94.0082C89.2165 84.8833 79.0102 73.1879 66.9099 61.0877C54.8097 48.9875 43.1143 38.7811 33.9894 32.0613C29.4254 28.7002 25.5134 26.218 22.5204 24.8058C21.0225 24.0991 19.7689 23.6672 18.7868 23.5216C17.7969 23.3748 17.1434 23.5265 16.7685 23.9015C16.3936 24.2764 16.2418 24.9299 16.3886 25.9198C16.5342 26.9019 16.9661 28.1555 17.6728 29.6534C19.085 32.6464 21.5672 36.5584 24.9283 41.1224C31.6482 50.2473 41.8545 61.9427 53.9547 74.0429Z" stroke="#F59740" stroke-width="0.5"/>
<circle cx="62.5" cy="66" r="56.75" stroke="#F59740" stroke-width="0.5"/>
<path d="M110 0L111.442 7.0575L118.5 8.5L111.442 9.9425L110 17L108.558 9.9425L101.5 8.5L108.558 7.0575L110 0Z" fill="#F59740"/>
<path d="M24.5 118L25.7056 122.294L30 123.5L25.7056 124.706L24.5 129L23.2944 124.706L19 123.5L23.2944 122.294L24.5 118Z" fill="#F59740"/>
<path d="M12 110L12.4469 113.553L16 114L12.4469 114.447L12 118L11.5531 114.447L8 114L11.5531 113.553L12 110Z" fill="#F59740"/>
<path d="M85.3389 58.6484L90.6707 79.2647L88.1826 93.4829L87.4717 83.1747L84.2726 75.7102L86.0498 84.5965L86.7607 94.1938L78.9408 103.791V96.682L76.808 91.3502L77.5189 97.7483V104.857L75.7417 98.4593L74.6753 100.592L76.4526 103.791L73.9644 108.412V104.857L71.4762 103.791L66.8553 107.346L67.5662 102.369L62.9453 112.677V57.2266H85.3389V58.6484Z" fill="#F59740"/>
<path d="M40.5517 58.6484L35.2199 79.2647L37.7081 93.4829L38.419 83.1747L41.6181 75.7102L39.8408 84.5965L39.1299 94.1938L46.9499 103.791V96.682L49.0826 91.3502L48.3717 97.7483V104.857L50.149 98.4593L51.2153 100.592L49.4381 103.791L51.9262 108.412V104.857L54.4144 103.791L59.0353 107.346L58.3244 102.369L62.9453 112.677V57.2266H40.5517V58.6484Z" fill="#F59740"/>
<path d="M66.7713 83.5312L62.9434 82.1094V87.4807H64.0371L64.5839 89.8504L66.7713 90.6403L68.9587 89.8504L70.0524 84.716L66.7713 83.5312Z" fill="#1E213A"/>
<path d="M59.1154 83.5312L62.9434 82.1094V87.4807H61.8497L61.3028 89.8504L59.1154 90.6403L56.928 89.8504L55.8343 84.716L59.1154 83.5312Z" fill="#1E213A"/>
<path d="M78.9388 75.3549L80.7161 60.7812H62.9434V80.6867H68.2752L72.5406 83.5303L78.9388 75.3549Z" fill="#1E213A"/>
<path d="M46.9479 75.3549L45.1706 60.7812H62.9434V80.6867H57.6115L53.3461 83.5303L46.9479 75.3549Z" fill="#1E213A"/>
<path d="M81.8265 41.6523C71.1629 19.2584 44.8593 29.5667 42.7266 41.6523V59.0144H81.8265V41.6523Z" fill="#1E213A" stroke="#F59740"/>
<path d="M47.6704 59.3182C46.9602 52.611 44.2289 36.2671 38.9857 24.5492C33.7425 12.8312 35.3964 20.4029 36.8787 25.6535C35.098 22.5159 32.1077 18.2577 34.3922 26.3257C32.9683 24.8209 30.6101 23.0695 32.5679 28.1024C31.1885 27.1739 29.025 26.4501 31.4058 30.9837C30.1355 30.4713 28.2199 30.3687 30.7201 34.0571C29.1793 33.5287 27.0369 33.5765 30.7934 37.9949C29.2526 37.4665 27.1013 37.3991 30.8222 41.3565C29.2317 41.1803 27.1537 41.6635 31.5656 45.0063C30.0545 44.8621 28.0117 45.3037 31.9294 48.2238C30.4654 48.1917 28.4127 48.7038 31.9137 51.0091C30.544 51.2011 28.8137 52.1038 32.8508 54.1787C31.4191 54.0665 29.2791 54.2456 32.1729 55.8594C34.4605 56.596 39.2618 58.6069 40.1664 60.7584L47.6704 59.3182Z" fill="#F59740"/>
<path d="M77.4962 59.313C78.213 52.6065 80.9602 36.2653 86.2148 24.5525C91.4695 12.8397 89.8082 20.4097 88.3207 25.6589C90.1045 22.523 93.099 18.2678 90.8066 26.3335C92.2319 24.8301 94.5919 23.081 92.6291 28.112C94.0094 27.1848 96.1736 26.4632 93.7884 30.9944C95.0592 30.4833 96.9749 30.3825 94.4712 34.0684C96.0124 33.5416 98.1548 33.5915 94.394 38.0062C95.9353 37.4793 98.0866 37.414 94.3619 41.3678C95.9526 41.1931 98.0301 41.6784 93.615 45.0168C95.1262 44.8741 97.1685 45.3177 93.248 48.234C94.712 48.2033 96.7642 48.7174 93.261 51.0193C94.6305 51.2126 96.3599 52.117 92.3208 54.188C93.7526 54.0772 95.8924 54.2584 92.9971 55.8694C90.7088 56.6037 85.9055 58.6099 84.9988 60.7605L77.4962 59.313Z" fill="#F59740"/>
<path d="M45 58L56.5 55L62 36L67.5 55L79 58" stroke="#F59740" stroke-width="2"/>
</svg>
