<svg width="90" height="90" viewBox="0 0 90 90" fill="none" xmlns="http://www.w3.org/2000/svg">
<path d="M29.6449 74.8852H15.1556V28.2269H29.6449V74.8852ZM22.3915 21.8623C17.759 21.8623 14 18.0236 14 13.3912C14 11.1657 14.8841 9.03139 16.4578 7.45773C18.0315 5.88407 20.166 5 22.3915 5C24.6171 5 26.7515 5.88407 28.3252 7.45773C29.8989 9.03139 30.783 11.1657 30.783 13.3912C30.783 18.0236 27.0241 21.8623 22.3915 21.8623ZM83.8728 74.8852H69.416V52.1725C69.416 46.7589 69.3062 39.8178 61.8831 39.8178C54.3502 39.8178 53.1945 45.6982 53.1945 51.7832V74.8852H38.7203V28.2269H52.6155V34.5914H52.8176C54.752 30.9249 59.477 27.0563 66.5256 27.0563C81.1896 27.0563 83.8852 36.7129 83.8852 49.2548V74.8852H83.8728Z" fill="#F59740"/>
</svg>
