<svg width="456" height="30" viewBox="0 0 456 30" fill="none" xmlns="http://www.w3.org/2000/svg">
<path d="M11.0161 21.6875L10.978 17.8408L0.92334 7.17676V11.2139L11.0161 21.6875ZM3.875 29.0381V7.5957L11.1113 14.9082L10.978 11.0996L0.92334 0.435547V29.0381H3.875ZM38.0929 0.397461L17.1457 29H21.5065L41.9015 0.397461H38.0929ZM17.1457 0.397461L37.5407 29H41.9015L20.9543 0.397461H17.1457ZM60.5423 29.1143V10.4521L65.303 16.8125L68.8831 0.549805L66.1409 0.511719L63.951 10.4902L59.1141 4.12988L53.9154 10.6807L51.0399 0.511719L48.0692 0.549805L52.4871 16.7363L57.5716 10.2998L57.5906 29.1143H60.5423ZM87.124 10.2998L75.0888 20.8115V28.981L78.0976 28.9619V22.1445L87.143 14.4893L87.124 10.2998ZM89.9424 28.981V14.2988L98.8926 22.1826L98.9116 29.019L101.939 28.9619L101.901 20.8496L89.9424 10.1855V0.435547L86.9907 0.473633V28.981H89.9424ZM129.661 0.473633L114.96 14.7559L129.719 29.019H133.832L119.359 14.7178L133.832 0.473633H129.661ZM115.075 0.435547L129.547 14.7178L115.075 29H119.188L133.946 14.7178L119.245 0.435547H115.075ZM160.928 0.397461L139.98 29H144.341L164.736 0.397461H160.928ZM139.98 0.397461L160.375 29H164.736L143.789 0.397461H139.98ZM173.837 29.0571V0.45459H170.885V29.0571H173.837ZM173.265 9.84277L179.549 14.6797L173.17 19.6309L173.265 22.792L183.358 14.6797L173.456 6.87207L173.265 9.84277ZM189.335 29L206.36 11.4805L199.999 4.85352L193.62 11.4043L210.663 29H206.264L189.335 11.3662L199.999 0.435547L210.663 11.3662L193.277 29H189.335ZM227.305 21.6875L227.267 17.8408L217.212 7.17676V11.2139L227.305 21.6875ZM220.164 29.0381V7.5957L227.4 14.9082L227.267 11.0996L217.212 0.435547V29.0381H220.164ZM254.381 0.397461L233.434 29H237.795L258.19 0.397461H254.381ZM233.434 0.397461L253.829 29H258.19L237.243 0.397461H233.434ZM276.831 29.1143V10.4521L281.592 16.8125L285.172 0.549805L282.429 0.511719L280.24 10.4902L275.403 4.12988L270.204 10.6807L267.328 0.511719L264.358 0.549805L268.776 16.7363L273.86 10.2998L273.879 29.1143H276.831ZM303.413 10.2998L291.377 20.8115V28.981L294.386 28.9619V22.1445L303.432 14.4893L303.413 10.2998ZM306.231 28.981V14.2988L315.181 22.1826L315.2 29.019L318.228 28.9619L318.19 20.8496L306.231 10.1855V0.435547L303.279 0.473633V28.981H306.231ZM345.95 0.473633L331.249 14.7559L346.007 29.019H350.12L335.648 14.7178L350.12 0.473633H345.95ZM331.363 0.435547L345.836 14.7178L331.363 29H335.476L350.235 14.7178L335.533 0.435547H331.363ZM377.216 0.397461L356.269 29H360.63L381.025 0.397461H377.216ZM356.269 0.397461L376.664 29H381.025L360.078 0.397461H356.269ZM397.285 21.6875L397.247 17.8408L387.192 7.17676V11.2139L397.285 21.6875ZM390.144 29.0381V7.5957L397.38 14.9082L397.247 11.0996L387.192 0.435547V29.0381H390.144ZM424.362 0.397461L403.415 29H407.776L428.171 0.397461H424.362ZM403.415 0.397461L423.81 29H428.171L407.223 0.397461H403.415ZM446.811 29.1143V10.4521L451.572 16.8125L455.152 0.549805L452.41 0.511719L450.22 10.4902L445.383 4.12988L440.184 10.6807L437.309 0.511719L434.338 0.549805L438.756 16.7363L443.841 10.2998L443.86 29.1143H446.811Z" fill="url(#paint0_linear_270_23200)"/>
<defs>
<linearGradient id="paint0_linear_270_23200" x1="190.09" y1="30.4323" x2="190.09" y2="-32.4266" gradientUnits="userSpaceOnUse">
<stop stop-color="#20233B"/>
<stop offset="0.382196" stop-color="#DB8940"/>
</linearGradient>
</defs>
</svg>
