<svg width="1766" height="641" viewBox="0 0 1766 641" fill="none" xmlns="http://www.w3.org/2000/svg">
<path d="M1640.92 78.3555C1640.91 78.9336 1640.41 79.416 1639.83 79.4159C1639.58 79.4159 1639.35 79.3211 1639.16 79.1678L1634.55 83.7877C1634.88 84.1804 1635.09 84.6999 1635.09 85.2537C1635.09 86.5282 1634.05 87.5712 1632.78 87.571C1631.64 87.5708 1630.68 86.7122 1630.51 85.6096L1615 85.5935C1614.88 86.0798 1614.46 86.4216 1613.95 86.4215C1613.36 86.4214 1612.88 85.9448 1612.88 85.3294C1612.88 84.7445 1613.36 84.2464 1613.95 84.2465C1614.53 84.2466 1614.99 84.7038 1615.02 85.2605L1630.47 85.2716C1630.47 85.2628 1630.47 85.256 1630.47 85.253C1630.47 83.9971 1631.52 82.9541 1632.78 82.9543C1633.37 82.9544 1633.91 83.182 1634.31 83.5444L1638.94 78.9333C1638.82 78.7605 1638.76 78.5534 1638.76 78.3307C1638.76 77.7379 1639.24 77.2428 1639.83 77.2429C1640.31 77.243 1640.73 77.5741 1640.87 78.0224L1655 78.0334C1655.11 76.878 1656.1 75.9522 1657.29 75.9524C1658.56 75.9526 1659.59 76.9959 1659.59 78.2479C1659.59 78.8037 1659.4 79.3066 1659.07 79.707L1663.92 84.5676C1664.12 84.3733 1664.38 84.2611 1664.68 84.2611C1665.26 84.2612 1665.72 84.7027 1665.76 85.277L1687.47 85.2959C1687.57 84.0976 1688.56 83.1659 1689.76 83.1661C1691.03 83.1663 1692.05 84.2086 1692.05 85.4861C1692.05 86.7352 1691.03 87.7782 1689.75 87.778C1688.54 87.7778 1687.55 86.8117 1687.47 85.6221L1665.73 85.6051C1665.61 86.0719 1665.19 86.4098 1664.68 86.4097C1664.09 86.4097 1663.6 85.9388 1663.6 85.3421C1663.6 85.1574 1663.65 84.9953 1663.73 84.8401L1658.85 79.9502C1658.44 80.3329 1657.89 80.5673 1657.28 80.5672C1656.06 80.567 1655.06 79.5872 1655 78.3595L1640.92 78.3555ZM1658.5 79.6083L1657.98 79.0759C1657.79 79.236 1657.55 79.3327 1657.28 79.3327C1656.73 79.3326 1656.28 78.896 1656.22 78.3597L1655.46 78.3596C1655.53 79.2992 1656.32 80.0689 1657.28 80.069C1657.75 80.0691 1658.17 79.8915 1658.5 79.6083ZM1687.95 85.296L1688.7 85.2961C1688.79 84.7755 1689.23 84.3977 1689.76 84.3977C1690.36 84.3978 1690.83 84.8687 1690.84 85.4859C1690.84 86.0758 1690.36 86.5465 1689.75 86.5464C1689.21 86.5463 1688.77 86.1448 1688.69 85.6223L1687.95 85.6222C1688.02 86.55 1688.8 87.3071 1689.75 87.3073C1690.78 87.3074 1691.59 86.4724 1691.59 85.486C1691.59 84.4683 1690.78 83.639 1689.76 83.6389C1688.82 83.6387 1688.04 84.3613 1687.95 85.296ZM1655.47 78.0334L1656.23 78.0336C1656.33 77.5384 1656.77 77.1596 1657.29 77.1596C1657.89 77.1597 1658.37 77.6558 1658.37 78.2477C1658.37 78.4665 1658.31 78.6638 1658.2 78.8327L1658.72 79.3602C1658.97 79.0517 1659.12 78.664 1659.12 78.2478C1659.12 77.2546 1658.31 76.4263 1657.29 76.4262C1656.36 76.426 1655.57 77.1398 1655.47 78.0334ZM1630.95 85.2717L1631.7 85.2718C1631.7 85.263 1631.7 85.2562 1631.7 85.2532C1631.7 84.6613 1632.18 84.1868 1632.78 84.1868C1633.03 84.1869 1633.26 84.2768 1633.45 84.4234L1633.98 83.8872C1633.66 83.6059 1633.24 83.43 1632.78 83.43C1631.78 83.4298 1630.95 84.256 1630.95 85.2531C1630.95 85.2561 1630.95 85.2629 1630.95 85.2717ZM1634.21 84.1217L1633.67 84.6528C1633.8 84.8219 1633.87 85.0289 1633.87 85.2535C1633.87 85.864 1633.37 86.3396 1632.78 86.3395C1632.31 86.3394 1631.91 86.0375 1631.76 85.6097L1630.98 85.6096C1631.15 86.4495 1631.89 87.0708 1632.78 87.073C1633.78 87.0731 1634.61 86.2723 1634.61 85.2536C1634.61 84.8308 1634.46 84.4342 1634.21 84.1217Z" fill="#484D75"/>
<path d="M1345.99 203.369C1345.98 203.947 1345.49 204.429 1344.9 204.429C1344.66 204.429 1344.43 204.334 1344.24 204.181L1339.62 208.801C1339.96 209.194 1340.16 209.713 1340.16 210.267C1340.16 211.542 1339.12 212.585 1337.85 212.584C1336.72 212.584 1335.75 211.725 1335.58 210.623L1320.07 210.607C1319.96 211.093 1319.54 211.435 1319.03 211.435C1318.44 211.435 1317.95 210.958 1317.95 210.343C1317.95 209.758 1318.44 209.26 1319.03 209.26C1319.61 209.26 1320.06 209.717 1320.1 210.274L1335.55 210.285C1335.55 210.276 1335.55 210.269 1335.55 210.266C1335.55 209.01 1336.6 207.967 1337.86 207.968C1338.45 207.968 1338.99 208.195 1339.39 208.558L1344.02 203.947C1343.9 203.774 1343.83 203.567 1343.83 203.344C1343.83 202.751 1344.31 202.256 1344.91 202.256C1345.39 202.256 1345.81 202.587 1345.94 203.036L1360.08 203.047C1360.19 201.891 1361.17 200.966 1362.37 200.966C1363.64 200.966 1364.67 202.009 1364.67 203.261C1364.67 203.817 1364.47 204.32 1364.15 204.72L1369 209.581C1369.2 209.387 1369.46 209.274 1369.76 209.274C1370.33 209.274 1370.8 209.716 1370.83 210.29L1392.55 210.309C1392.65 209.111 1393.64 208.179 1394.83 208.179C1396.11 208.18 1397.13 209.222 1397.13 210.499C1397.12 211.749 1396.11 212.791 1394.83 212.791C1393.62 212.791 1392.62 211.825 1392.55 210.635L1370.81 210.618C1370.69 211.085 1370.26 211.423 1369.76 211.423C1369.16 211.423 1368.68 210.952 1368.68 210.355C1368.68 210.171 1368.73 210.009 1368.81 209.853L1363.92 204.963C1363.51 205.346 1362.96 205.581 1362.36 205.58C1361.13 205.58 1360.14 204.601 1360.08 203.373L1345.99 203.369ZM1363.58 204.622L1363.06 204.089C1362.87 204.249 1362.63 204.346 1362.36 204.346C1361.81 204.346 1361.36 203.909 1361.29 203.373L1360.54 203.373C1360.6 204.312 1361.4 205.082 1362.36 205.082C1362.83 205.082 1363.25 204.905 1363.58 204.622ZM1393.02 210.309L1393.78 210.309C1393.87 209.789 1394.31 209.411 1394.83 209.411C1395.44 209.411 1395.91 209.882 1395.91 210.499C1395.91 211.089 1395.44 211.56 1394.83 211.56C1394.29 211.56 1393.85 211.158 1393.77 210.636L1393.02 210.636C1393.1 211.563 1393.88 212.32 1394.83 212.321C1395.85 212.321 1396.67 211.486 1396.67 210.499C1396.67 209.482 1395.86 208.652 1394.83 208.652C1393.89 208.652 1393.12 209.375 1393.02 210.309ZM1360.55 203.047L1361.31 203.047C1361.41 202.552 1361.85 202.173 1362.37 202.173C1362.96 202.173 1363.45 202.669 1363.45 203.261C1363.45 203.48 1363.39 203.677 1363.28 203.846L1363.8 204.373C1364.05 204.065 1364.19 203.677 1364.19 203.261C1364.2 202.268 1363.38 201.44 1362.37 201.439C1361.43 201.439 1360.65 202.153 1360.55 203.047ZM1336.02 210.285L1336.77 210.285C1336.77 210.276 1336.77 210.269 1336.77 210.266C1336.77 209.675 1337.26 209.2 1337.86 209.2C1338.11 209.2 1338.34 209.29 1338.53 209.437L1339.06 208.9C1338.74 208.619 1338.32 208.443 1337.86 208.443C1336.86 208.443 1336.02 209.269 1336.02 210.266C1336.02 210.269 1336.02 210.276 1336.02 210.285ZM1339.29 209.135L1338.75 209.666C1338.88 209.835 1338.95 210.042 1338.95 210.267C1338.94 210.877 1338.45 211.353 1337.85 211.353C1337.39 211.353 1336.98 211.051 1336.84 210.623L1336.06 210.623C1336.23 211.463 1336.97 212.084 1337.85 212.086C1338.86 212.086 1339.69 211.286 1339.69 210.267C1339.69 209.844 1339.53 209.448 1339.29 209.135Z" fill="#484D75"/>
<path d="M1395.98 141.362C1395.97 141.94 1395.47 142.423 1394.89 142.423C1394.64 142.423 1394.42 142.328 1394.23 142.174L1389.61 146.794C1389.95 147.187 1390.15 147.707 1390.15 148.26C1390.15 149.535 1389.11 150.578 1387.84 150.578C1386.7 150.578 1385.74 149.719 1385.57 148.616L1370.06 148.6C1369.95 149.087 1369.53 149.428 1369.02 149.428C1368.43 149.428 1367.94 148.952 1367.94 148.336C1367.94 147.751 1368.43 147.253 1369.02 147.253C1369.6 147.253 1370.05 147.71 1370.08 148.267L1385.54 148.278C1385.54 148.27 1385.54 148.263 1385.54 148.26C1385.54 147.004 1386.59 145.961 1387.84 145.961C1388.44 145.961 1388.98 146.189 1389.38 146.551L1394 141.94C1393.88 141.767 1393.82 141.56 1393.82 141.337C1393.82 140.745 1394.3 140.249 1394.9 140.25C1395.38 140.25 1395.8 140.581 1395.93 141.029L1410.07 141.04C1410.18 139.885 1411.16 138.959 1412.35 138.959C1413.63 138.959 1414.66 140.003 1414.66 141.255C1414.66 141.81 1414.46 142.313 1414.14 142.714L1418.99 147.574C1419.19 147.38 1419.45 147.268 1419.75 147.268C1420.32 147.268 1420.79 147.709 1420.82 148.284L1442.54 148.303C1442.64 147.104 1443.62 146.173 1444.82 146.173C1446.1 146.173 1447.12 147.215 1447.12 148.493C1447.11 149.742 1446.09 150.785 1444.82 150.785C1443.6 150.785 1442.61 149.818 1442.54 148.629L1420.79 148.612C1420.68 149.079 1420.25 149.417 1419.75 149.416C1419.15 149.416 1418.67 148.946 1418.67 148.349C1418.67 148.164 1418.72 148.002 1418.79 147.847L1413.91 142.957C1413.5 143.34 1412.95 143.574 1412.35 143.574C1411.12 143.574 1410.13 142.594 1410.06 141.366L1395.98 141.362ZM1413.56 142.615L1413.04 142.083C1412.85 142.243 1412.62 142.339 1412.35 142.339C1411.8 142.339 1411.34 141.903 1411.28 141.366L1410.52 141.366C1410.59 142.306 1411.38 143.076 1412.35 143.076C1412.82 143.076 1413.24 142.898 1413.56 142.615ZM1443.01 148.303L1443.76 148.303C1443.86 147.782 1444.3 147.404 1444.82 147.404C1445.42 147.405 1445.9 147.875 1445.9 148.493C1445.9 149.082 1445.42 149.553 1444.82 149.553C1444.28 149.553 1443.83 149.151 1443.76 148.629L1443.01 148.629C1443.08 149.557 1443.86 150.314 1444.82 150.314C1445.84 150.314 1446.66 149.479 1446.66 148.493C1446.66 147.475 1445.84 146.646 1444.82 146.646C1443.88 146.645 1443.11 147.368 1443.01 148.303ZM1410.54 141.04L1411.29 141.04C1411.4 140.545 1411.83 140.166 1412.35 140.166C1412.95 140.166 1413.44 140.663 1413.44 141.254C1413.44 141.473 1413.37 141.671 1413.27 141.839L1413.79 142.367C1414.04 142.058 1414.18 141.671 1414.18 141.255C1414.18 140.261 1413.37 139.433 1412.35 139.433C1411.42 139.433 1410.64 140.146 1410.54 141.04ZM1386.01 148.278L1386.76 148.278C1386.76 148.27 1386.76 148.263 1386.76 148.26C1386.76 147.668 1387.25 147.193 1387.84 147.194C1388.1 147.194 1388.33 147.284 1388.51 147.43L1389.05 146.894C1388.72 146.613 1388.3 146.437 1387.84 146.437C1386.84 146.436 1386.01 147.263 1386.01 148.26C1386.01 148.263 1386.01 148.27 1386.01 148.278ZM1389.27 147.128L1388.74 147.66C1388.86 147.829 1388.93 148.036 1388.93 148.26C1388.93 148.871 1388.44 149.346 1387.84 149.346C1387.37 149.346 1386.97 149.044 1386.82 148.616L1386.04 148.616C1386.21 149.456 1386.96 150.078 1387.84 150.08C1388.85 150.08 1389.67 149.279 1389.68 148.26C1389.68 147.837 1389.52 147.441 1389.27 147.128Z" fill="#484D75"/>
<path d="M1115.05 133.361C1115.04 133.939 1114.55 134.422 1113.96 134.422C1113.72 134.422 1113.49 134.327 1113.3 134.174L1108.68 138.794C1109.02 139.186 1109.22 139.706 1109.22 140.26C1109.22 141.534 1108.18 142.577 1106.91 142.577C1105.78 142.577 1104.81 141.718 1104.64 140.615L1089.13 140.599C1089.02 141.086 1088.6 141.427 1088.09 141.427C1087.5 141.427 1087.01 140.951 1087.01 140.335C1087.01 139.75 1087.5 139.252 1088.09 139.252C1088.67 139.252 1089.12 139.71 1089.16 140.266L1104.61 140.277C1104.61 140.269 1104.61 140.262 1104.61 140.259C1104.61 139.003 1105.66 137.96 1106.92 137.96C1107.51 137.96 1108.05 138.188 1108.45 138.55L1113.08 133.939C1112.96 133.766 1112.89 133.559 1112.89 133.337C1112.89 132.744 1113.37 132.249 1113.97 132.249C1114.45 132.249 1114.87 132.58 1115 133.028L1129.14 133.039C1129.25 131.884 1130.23 130.958 1131.43 130.958C1132.7 130.958 1133.73 132.002 1133.73 133.254C1133.73 133.809 1133.53 134.312 1133.21 134.713L1138.06 139.573C1138.26 139.379 1138.52 139.267 1138.82 139.267C1139.39 139.267 1139.86 139.709 1139.89 140.283L1161.61 140.302C1161.71 139.103 1162.7 138.172 1163.89 138.172C1165.17 138.172 1166.19 139.214 1166.19 140.492C1166.19 141.741 1165.17 142.784 1163.89 142.784C1162.68 142.784 1161.68 141.818 1161.61 140.628L1139.87 140.611C1139.75 141.078 1139.32 141.416 1138.82 141.416C1138.22 141.415 1137.74 140.945 1137.74 140.348C1137.74 140.163 1137.79 140.001 1137.87 139.846L1132.98 134.956C1132.57 135.339 1132.02 135.573 1131.42 135.573C1130.19 135.573 1129.2 134.593 1129.14 133.365L1115.05 133.361ZM1132.64 134.614L1132.12 134.082C1131.93 134.242 1131.69 134.339 1131.42 134.339C1130.87 134.338 1130.42 133.902 1130.35 133.366L1129.6 133.365C1129.66 134.305 1130.46 135.075 1131.42 135.075C1131.89 135.075 1132.31 134.897 1132.64 134.614ZM1162.08 140.302L1162.84 140.302C1162.93 139.781 1163.37 139.404 1163.89 139.404C1164.5 139.404 1164.97 139.875 1164.97 140.492C1164.97 141.082 1164.5 141.552 1163.89 141.552C1163.35 141.552 1162.91 141.151 1162.83 140.628L1162.08 140.628C1162.16 141.556 1162.94 142.313 1163.89 142.313C1164.91 142.313 1165.73 141.478 1165.73 140.492C1165.73 139.474 1164.92 138.645 1163.89 138.645C1162.96 138.645 1162.18 139.367 1162.08 140.302ZM1129.61 133.039L1130.37 133.039C1130.47 132.544 1130.91 132.165 1131.43 132.165C1132.02 132.166 1132.51 132.662 1132.51 133.254C1132.51 133.472 1132.45 133.67 1132.34 133.839L1132.86 134.366C1133.11 134.058 1133.25 133.67 1133.25 133.254C1133.26 132.26 1132.44 131.432 1131.43 131.432C1130.49 131.432 1129.71 132.146 1129.61 133.039ZM1105.08 140.278L1105.83 140.278C1105.83 140.269 1105.83 140.262 1105.83 140.259C1105.83 139.667 1106.32 139.193 1106.92 139.193C1107.17 139.193 1107.4 139.283 1107.59 139.429L1108.12 138.893C1107.8 138.612 1107.38 138.436 1106.92 138.436C1105.92 138.436 1105.08 139.262 1105.08 140.259C1105.08 140.262 1105.08 140.269 1105.08 140.278ZM1108.35 139.128L1107.81 139.659C1107.94 139.828 1108.01 140.035 1108.01 140.259C1108.01 140.87 1107.51 141.345 1106.91 141.345C1106.45 141.345 1106.04 141.043 1105.9 140.616L1105.12 140.615C1105.29 141.455 1106.03 142.077 1106.91 142.079C1107.92 142.079 1108.75 141.278 1108.75 140.259C1108.75 139.837 1108.6 139.44 1108.35 139.128Z" fill="#484D75"/>
<path d="M1496.95 28.3502C1496.94 28.9283 1496.45 29.4107 1495.86 29.4106C1495.62 29.4106 1495.39 29.3158 1495.2 29.1625L1490.58 33.7824C1490.92 34.175 1491.12 34.6946 1491.12 35.2484C1491.12 36.5229 1490.08 37.5659 1488.81 37.5657C1487.68 37.5655 1486.71 36.7069 1486.55 35.6042L1471.03 35.5882C1470.92 36.0745 1470.5 36.4163 1469.99 36.4162C1469.4 36.4161 1468.91 35.9395 1468.91 35.3241C1468.91 34.7392 1469.4 34.2411 1469.99 34.2412C1470.57 34.2413 1471.02 34.6985 1471.06 35.2551L1486.51 35.2663C1486.51 35.2575 1486.51 35.2507 1486.51 35.2477C1486.51 33.9918 1487.56 32.9488 1488.82 32.949C1489.41 32.9491 1489.95 33.1767 1490.35 33.5391L1494.98 28.928C1494.86 28.7552 1494.79 28.548 1494.79 28.3254C1494.79 27.7326 1495.27 27.2375 1495.87 27.2376C1496.35 27.2376 1496.77 27.5687 1496.9 28.0171L1511.04 28.0281C1511.15 26.8727 1512.13 25.9469 1513.33 25.9471C1514.6 25.9473 1515.63 26.9905 1515.63 28.2426C1515.63 28.7983 1515.43 29.3013 1515.11 29.7017L1519.96 34.5623C1520.16 34.368 1520.42 34.2558 1520.72 34.2558C1521.29 34.2559 1521.76 34.6974 1521.79 35.2717L1543.51 35.2906C1543.61 34.0923 1544.6 33.1606 1545.79 33.1608C1547.07 33.161 1548.09 34.2033 1548.09 35.4808C1548.09 36.7299 1547.07 37.7729 1545.79 37.7727C1544.58 37.7725 1543.58 36.8064 1543.51 35.6168L1521.77 35.5998C1521.65 36.0666 1521.22 36.4045 1520.72 36.4044C1520.12 36.4043 1519.64 35.9335 1519.64 35.3367C1519.64 35.1521 1519.69 34.99 1519.77 34.8348L1514.88 29.9448C1514.47 30.3276 1513.92 30.562 1513.32 30.5619C1512.09 30.5617 1511.1 29.5819 1511.04 28.3542L1496.95 28.3502ZM1514.54 29.603L1514.02 29.0706C1513.83 29.2307 1513.59 29.3274 1513.32 29.3273C1512.77 29.3273 1512.32 28.8906 1512.25 28.3544L1511.5 28.3543C1511.56 29.2939 1512.36 30.0636 1513.32 30.0637C1513.79 30.0638 1514.21 29.8861 1514.54 29.603ZM1543.99 35.2907L1544.74 35.2908C1544.83 34.7702 1545.27 34.3923 1545.79 34.3924C1546.4 34.3925 1546.87 34.8633 1546.87 35.4806C1546.87 36.0705 1546.4 36.5412 1545.79 36.5411C1545.25 36.541 1544.81 36.1395 1544.73 35.617L1543.99 35.6169C1544.06 36.5447 1544.84 37.3018 1545.79 37.3019C1546.81 37.3021 1547.63 36.4671 1547.63 35.4807C1547.63 34.463 1546.82 33.6337 1545.79 33.6335C1544.86 33.6334 1544.08 34.356 1543.99 35.2907ZM1511.51 28.0281L1512.27 28.0282C1512.37 27.5331 1512.81 27.1542 1513.33 27.1543C1513.93 27.1544 1514.41 27.6505 1514.41 28.2424C1514.41 28.4612 1514.35 28.6585 1514.24 28.8274L1514.76 29.3549C1515.01 29.0464 1515.15 28.6587 1515.15 28.2425C1515.16 27.2493 1514.34 26.421 1513.33 26.4208C1512.39 26.4207 1511.61 27.1345 1511.51 28.0281ZM1486.98 35.2664L1487.73 35.2665C1487.73 35.2577 1487.73 35.2509 1487.73 35.2479C1487.73 34.656 1488.22 34.1814 1488.82 34.1815C1489.07 34.1816 1489.3 34.2715 1489.49 34.4181L1490.02 33.8819C1489.7 33.6006 1489.28 33.4247 1488.82 33.4247C1487.82 33.4245 1486.98 34.2507 1486.98 35.2478C1486.98 35.2508 1486.98 35.2576 1486.98 35.2664ZM1490.25 34.1163L1489.71 34.6475C1489.84 34.8166 1489.91 35.0236 1489.91 35.2482C1489.91 35.8587 1489.41 36.3343 1488.81 36.3342C1488.35 36.3341 1487.94 36.0322 1487.8 35.6044L1487.02 35.6043C1487.19 36.4442 1487.93 37.0655 1488.81 37.0676C1489.82 37.0678 1490.65 36.267 1490.65 35.2483C1490.65 34.8255 1490.5 34.4289 1490.25 34.1163Z" fill="#484D75"/>
<path d="M1662.24 99.114C1662.24 100.233 1661.34 101.192 1660.16 101.192C1659.04 101.192 1658.13 100.327 1658.04 99.2803L1620.17 99.2492C1619.92 100.758 1618.63 101.949 1617.01 101.949C1615.27 101.944 1613.86 100.485 1613.86 98.7414C1613.86 98.2647 1613.97 97.8145 1614.16 97.4112L1600.24 83.4525C1599.85 83.8235 1599.32 84.0423 1598.74 84.0373C1597.62 84.0371 1596.66 83.1316 1596.66 81.9566L1559.57 81.9256C1559.58 81.9666 1559.59 81.9998 1559.59 82.036C1559.59 83.2256 1558.63 84.1757 1557.45 84.1755C1556.85 84.1754 1556.3 83.896 1555.92 83.4633L1542.71 96.6951C1543.16 97.2402 1543.44 97.9297 1543.43 98.6857C1543.43 100.429 1542.02 101.897 1540.28 101.896C1538.64 101.892 1537.34 100.671 1537.12 99.1311L1482.77 99.0866C1482.68 100.425 1481.55 101.512 1480.2 101.511C1478.79 101.511 1477.61 100.322 1477.61 98.912C1477.62 97.5144 1478.79 96.3318 1480.2 96.332C1481.53 96.3322 1482.65 97.3911 1482.77 98.697L1537.08 98.7346C1537.08 98.7141 1537.08 98.7053 1537.08 98.6848C1537.08 96.9375 1538.48 95.5322 1540.28 95.5325C1541.12 95.5326 1541.88 95.8639 1542.45 96.4001L1555.68 83.137C1555.49 82.8197 1555.37 82.4407 1555.37 82.0354C1555.37 80.8575 1556.33 79.9005 1557.45 79.9007C1558.46 79.9008 1559.29 80.5953 1559.52 81.5291L1596.7 81.5601C1596.89 80.5718 1597.75 79.817 1598.74 79.822C1599.92 79.8222 1600.88 80.7766 1600.88 81.9573C1600.88 82.4143 1600.74 82.8148 1600.5 83.1527L1614.37 97.044C1614.92 96.1699 1615.9 95.5899 1617.02 95.5901C1618.82 95.5904 1620.22 96.9979 1620.22 98.7423C1620.22 98.7814 1620.21 98.8214 1620.21 98.8624L1658.04 98.8877C1658.16 97.8144 1659.06 96.9765 1660.16 96.9767C1661.35 96.9769 1662.24 97.9293 1662.24 99.114ZM1482.21 99.0934L1481.42 99.0864C1481.33 99.69 1480.82 100.163 1480.2 100.163C1479.53 100.162 1478.96 99.593 1478.96 98.9122C1478.96 98.2511 1479.53 97.7393 1480.2 97.7394C1480.8 97.7395 1481.31 98.1342 1481.41 98.6968L1482.2 98.6969C1482.09 97.6792 1481.25 96.8958 1480.2 96.8956C1479.07 96.8954 1478.18 97.7977 1478.17 98.9121C1478.17 100.045 1479.07 100.944 1480.2 100.944C1481.27 100.944 1482.12 100.136 1482.21 99.0934ZM1537.76 98.7347L1538.77 98.7348C1538.77 98.7191 1538.76 98.7055 1538.76 98.685C1538.76 97.8948 1539.44 97.2191 1540.28 97.2192C1540.64 97.2192 1540.98 97.3707 1541.24 97.6023L1541.97 96.8659C1541.53 96.4361 1540.93 96.1548 1540.28 96.1498C1538.88 96.1496 1537.75 97.3292 1537.75 98.6849C1537.75 98.7054 1537.76 98.719 1537.76 98.7347ZM1542.23 97.1776L1541.5 97.9069C1541.65 98.1346 1541.74 98.4022 1541.74 98.6855C1541.74 99.5322 1541.07 100.199 1540.28 100.199C1539.59 100.199 1539.03 99.7574 1538.84 99.1314L1537.79 99.1312C1538 100.318 1539.03 101.212 1540.28 101.219C1541.63 101.219 1542.76 100.096 1542.76 98.6856C1542.76 98.1299 1542.55 97.6025 1542.23 97.1776ZM1614.82 97.5099L1615.63 98.3099C1615.82 97.724 1616.38 97.2807 1617.01 97.2788C1617.86 97.2789 1618.53 97.9549 1618.53 98.7421C1618.53 98.7812 1618.53 98.8173 1618.52 98.8554L1619.54 98.8623C1619.54 98.8213 1619.54 98.7813 1619.54 98.7422C1619.54 97.3983 1618.42 96.2096 1617.02 96.2094C1616.07 96.2043 1615.26 96.7472 1614.82 97.5099ZM1619.49 99.2491L1618.44 99.2489C1618.23 99.8349 1617.68 100.267 1617.01 100.266C1616.24 100.266 1615.59 99.6138 1615.55 98.8002L1614.64 97.8859C1614.54 98.1613 1614.48 98.4445 1614.48 98.7414C1614.48 100.147 1615.6 101.268 1617.01 101.269C1618.25 101.273 1619.26 100.409 1619.49 99.2491Z" fill="#484D75"/>
<path d="M1367.32 224.127C1367.32 225.247 1366.42 226.205 1365.24 226.205C1364.11 226.205 1363.21 225.341 1363.12 224.294L1325.25 224.262C1325 225.771 1323.71 226.963 1322.08 226.962C1320.34 226.957 1318.94 225.498 1318.94 223.755C1318.94 223.278 1319.05 222.828 1319.24 222.424L1305.31 208.466C1304.93 208.837 1304.4 209.056 1303.82 209.051C1302.69 209.05 1301.74 208.145 1301.74 206.97L1264.65 206.939C1264.66 206.98 1264.67 207.013 1264.67 207.049C1264.67 208.239 1263.71 209.189 1262.52 209.189C1261.93 209.189 1261.38 208.909 1260.99 208.477L1247.79 221.708C1248.24 222.254 1248.51 222.943 1248.51 223.699C1248.51 225.442 1247.1 226.91 1245.36 226.91C1243.71 226.906 1242.41 225.685 1242.2 224.144L1187.85 224.1C1187.75 225.438 1186.63 226.525 1185.27 226.525C1183.87 226.524 1182.69 225.336 1182.69 223.925C1182.69 222.528 1183.87 221.345 1185.28 221.345C1186.61 221.346 1187.72 222.404 1187.84 223.71L1242.16 223.748C1242.16 223.727 1242.15 223.719 1242.16 223.698C1242.16 221.951 1243.56 220.546 1245.36 220.546C1246.2 220.546 1246.96 220.877 1247.52 221.413L1260.76 208.15C1260.57 207.833 1260.44 207.454 1260.45 207.049C1260.45 205.871 1261.41 204.914 1262.53 204.914C1263.54 204.914 1264.37 205.609 1264.6 206.542L1301.78 206.573C1301.96 205.585 1302.83 204.83 1303.82 204.835C1305 204.836 1305.95 205.79 1305.95 206.971C1305.95 207.428 1305.82 207.828 1305.58 208.166L1319.44 222.057C1320 221.183 1320.97 220.603 1322.1 220.603C1323.89 220.604 1325.3 222.011 1325.3 223.756C1325.3 223.795 1325.29 223.835 1325.29 223.876L1363.12 223.901C1363.24 222.828 1364.14 221.99 1365.24 221.99C1366.43 221.99 1367.32 222.943 1367.32 224.127ZM1187.29 224.107L1186.5 224.1C1186.41 224.703 1185.9 225.176 1185.27 225.176C1184.6 225.176 1184.04 224.606 1184.04 223.926C1184.04 223.264 1184.6 222.753 1185.28 222.753C1185.88 222.753 1186.38 223.147 1186.49 223.71L1187.28 223.71C1187.17 222.692 1186.33 221.909 1185.28 221.909C1184.15 221.909 1183.26 222.811 1183.25 223.925C1183.25 225.058 1184.15 225.957 1185.27 225.957C1186.34 225.957 1187.2 225.149 1187.29 224.107ZM1242.83 223.748L1243.85 223.748C1243.85 223.732 1243.84 223.719 1243.84 223.698C1243.84 222.908 1244.52 222.232 1245.36 222.232C1245.72 222.233 1246.06 222.384 1246.32 222.616L1247.05 221.879C1246.61 221.449 1246.01 221.168 1245.36 221.163C1243.95 221.163 1242.83 222.343 1242.83 223.698C1242.83 223.719 1242.83 223.732 1242.83 223.748ZM1247.31 222.191L1246.58 222.92C1246.73 223.148 1246.82 223.416 1246.82 223.699C1246.82 224.545 1246.15 225.212 1245.36 225.212C1244.67 225.212 1244.1 224.771 1243.92 224.145L1242.87 224.145C1243.08 225.331 1244.1 226.225 1245.36 226.232C1246.7 226.232 1247.83 225.109 1247.83 223.699C1247.83 223.143 1247.63 222.616 1247.31 222.191ZM1319.9 222.523L1320.71 223.323C1320.9 222.737 1321.45 222.294 1322.09 222.292C1322.93 222.292 1323.61 222.968 1323.61 223.755C1323.61 223.794 1323.6 223.831 1323.6 223.869L1324.61 223.876C1324.61 223.835 1324.62 223.795 1324.62 223.756C1324.62 222.412 1323.5 221.223 1322.1 221.223C1321.14 221.218 1320.34 221.76 1319.9 222.523ZM1324.57 224.262L1323.52 224.262C1323.31 224.848 1322.76 225.28 1322.09 225.28C1321.32 225.28 1320.66 224.627 1320.63 223.814L1319.72 222.899C1319.62 223.175 1319.56 223.458 1319.56 223.755C1319.56 225.16 1320.68 226.282 1322.08 226.282C1323.33 226.287 1324.34 225.423 1324.57 224.262Z" fill="#484D75"/>
<path d="M1417.3 162.121C1417.3 163.24 1416.41 164.199 1415.23 164.199C1414.1 164.199 1413.19 163.334 1413.11 162.287L1375.24 162.256C1374.99 163.765 1373.7 164.956 1372.07 164.956C1370.33 164.951 1368.93 163.491 1368.93 161.748C1368.93 161.271 1369.04 160.821 1369.23 160.418L1355.3 146.459C1354.91 146.83 1354.39 147.049 1353.81 147.044C1352.68 147.044 1351.73 146.138 1351.73 144.963L1314.64 144.932C1314.64 144.973 1314.65 145.007 1314.65 145.043C1314.65 146.232 1313.7 147.182 1312.51 147.182C1311.92 147.182 1311.36 146.903 1310.98 146.47L1297.77 159.702C1298.22 160.247 1298.5 160.936 1298.5 161.692C1298.49 163.436 1297.09 164.903 1295.35 164.903C1293.7 164.899 1292.4 163.678 1292.19 162.138L1237.84 162.093C1237.74 163.431 1236.61 164.518 1235.26 164.518C1233.86 164.518 1232.68 163.329 1232.68 161.919C1232.68 160.521 1233.86 159.339 1235.26 159.339C1236.59 159.339 1237.71 160.398 1237.83 161.704L1292.14 161.741C1292.14 161.721 1292.14 161.712 1292.14 161.691C1292.14 159.944 1293.54 158.539 1295.35 158.539C1296.18 158.539 1296.95 158.871 1297.51 159.407L1310.74 146.144C1310.55 145.826 1310.43 145.447 1310.44 145.042C1310.44 143.864 1311.39 142.907 1312.52 142.907C1313.52 142.908 1314.36 143.602 1314.59 144.536L1351.77 144.567C1351.95 143.579 1352.81 142.824 1353.81 142.829C1354.99 142.829 1355.94 143.783 1355.94 144.964C1355.94 145.421 1355.8 145.821 1355.57 146.159L1369.43 160.051C1369.99 159.177 1370.96 158.597 1372.08 158.597C1373.88 158.597 1375.28 160.005 1375.28 161.749C1375.28 161.788 1375.27 161.828 1375.27 161.869L1413.11 161.894C1413.22 160.821 1414.12 159.983 1415.23 159.983C1416.41 159.984 1417.3 160.936 1417.3 162.121ZM1237.27 162.1L1236.48 162.093C1236.4 162.697 1235.88 163.169 1235.26 163.169C1234.59 163.169 1234.03 162.6 1234.03 161.919C1234.03 161.258 1234.59 160.746 1235.26 160.746C1235.86 160.746 1236.37 161.141 1236.47 161.703L1237.27 161.704C1237.16 160.686 1236.31 159.902 1235.26 159.902C1234.14 159.902 1233.24 160.804 1233.24 161.919C1233.24 163.052 1234.14 163.95 1235.26 163.951C1236.33 163.951 1237.19 163.142 1237.27 162.1ZM1292.82 161.741L1293.84 161.742C1293.84 161.726 1293.82 161.712 1293.82 161.692C1293.82 160.902 1294.5 160.226 1295.35 160.226C1295.71 160.226 1296.04 160.377 1296.31 160.609L1297.04 159.873C1296.6 159.443 1295.99 159.161 1295.35 159.156C1293.94 159.156 1292.81 160.336 1292.81 161.692C1292.81 161.712 1292.82 161.726 1292.82 161.741ZM1297.3 160.184L1296.57 160.914C1296.71 161.141 1296.81 161.409 1296.81 161.692C1296.8 162.539 1296.13 163.206 1295.35 163.206C1294.65 163.206 1294.09 162.764 1293.9 162.138L1292.86 162.138C1293.07 163.325 1294.09 164.218 1295.35 164.225C1296.69 164.226 1297.82 163.103 1297.82 161.692C1297.82 161.137 1297.62 160.609 1297.3 160.184ZM1369.89 160.517L1370.69 161.317C1370.88 160.731 1371.44 160.287 1372.08 160.285C1372.92 160.286 1373.6 160.962 1373.6 161.749C1373.6 161.788 1373.59 161.824 1373.59 161.862L1374.6 161.869C1374.6 161.828 1374.61 161.788 1374.61 161.749C1374.61 160.405 1373.48 159.216 1372.08 159.216C1371.13 159.211 1370.33 159.754 1369.89 160.517ZM1374.56 162.256L1373.51 162.256C1373.3 162.842 1372.75 163.273 1372.08 163.273C1371.31 163.273 1370.65 162.62 1370.62 161.807L1369.71 160.893C1369.61 161.168 1369.55 161.451 1369.55 161.748C1369.55 163.154 1370.67 164.275 1372.07 164.275C1373.31 164.28 1374.32 163.416 1374.56 162.256Z" fill="#484D75"/>
<path d="M755.475 131.117C755.475 132.237 754.58 133.196 753.398 133.195C752.273 133.195 751.366 132.331 751.28 131.284L713.409 131.253C713.161 132.762 711.872 133.953 710.243 133.953C708.504 133.947 707.101 132.488 707.101 130.745C707.101 130.268 707.208 129.818 707.4 129.415L693.472 115.456C693.085 115.827 692.561 116.046 691.979 116.041C690.854 116.041 689.901 115.135 689.901 113.96L652.811 113.929C652.817 113.97 652.825 114.003 652.825 114.039C652.825 115.229 651.87 116.179 650.683 116.179C650.089 116.179 649.537 115.899 649.154 115.467L635.948 128.699C636.396 129.244 636.674 129.933 636.668 130.689C636.668 132.432 635.26 133.9 633.518 133.9C631.875 133.896 630.574 132.675 630.358 131.135L576.009 131.09C575.914 132.428 574.786 133.515 573.432 133.515C572.029 133.514 570.851 132.326 570.852 130.915C570.852 129.518 572.029 128.335 573.437 128.335C574.767 128.336 575.882 129.395 576.002 130.7L630.315 130.738C630.316 130.717 630.313 130.709 630.315 130.688C630.316 128.941 631.716 127.536 633.519 127.536C634.357 127.536 635.12 127.867 635.683 128.404L648.916 115.14C648.725 114.823 648.604 114.444 648.609 114.039C648.609 112.861 649.567 111.904 650.691 111.904C651.696 111.904 652.53 112.599 652.759 113.532L689.938 113.564C690.123 112.575 690.987 111.82 691.98 111.825C693.161 111.826 694.114 112.78 694.114 113.961C694.114 114.418 693.978 114.818 693.74 115.156L707.602 129.047C708.16 128.173 709.134 127.593 710.258 127.594C712.053 127.594 713.457 129.001 713.457 130.746C713.457 130.785 713.446 130.825 713.446 130.866L751.281 130.891C751.397 129.818 752.295 128.98 753.399 128.98C754.585 128.98 755.475 129.933 755.475 131.117ZM575.446 131.097L574.656 131.09C574.57 131.693 574.057 132.166 573.432 132.166C572.763 132.166 572.201 131.596 572.201 130.916C572.201 130.254 572.763 129.743 573.437 129.743C574.036 129.743 574.542 130.138 574.646 130.7L575.44 130.7C575.329 129.683 574.486 128.899 573.437 128.899C572.31 128.899 571.416 129.801 571.409 130.916C571.408 132.048 572.31 132.947 573.432 132.947C574.504 132.947 575.361 132.139 575.446 131.097ZM630.994 130.738L632.01 130.738C632.01 130.723 631.997 130.709 631.997 130.688C631.997 129.898 632.677 129.222 633.519 129.223C633.88 129.223 634.217 129.374 634.48 129.606L635.21 128.869C634.768 128.44 634.167 128.158 633.519 128.153C632.113 128.153 630.987 129.333 630.986 130.688C630.986 130.709 630.994 130.722 630.994 130.738ZM635.472 129.181L634.741 129.91C634.887 130.138 634.98 130.406 634.98 130.689C634.976 131.536 634.305 132.203 633.519 132.202C632.827 132.202 632.263 131.761 632.077 131.135L631.03 131.135C631.241 132.321 632.262 133.215 633.518 133.222C634.864 133.222 635.992 132.099 635.992 130.689C635.992 130.133 635.789 129.606 635.472 129.181ZM708.06 129.513L708.865 130.313C709.055 129.727 709.612 129.284 710.252 129.282C711.094 129.282 711.769 129.958 711.768 130.745C711.768 130.785 711.764 130.821 711.759 130.859L712.773 130.866C712.774 130.825 712.779 130.785 712.781 130.746C712.782 129.402 711.655 128.213 710.257 128.213C709.303 128.208 708.498 128.751 708.06 129.513ZM712.729 131.252L711.679 131.252C711.471 131.838 710.92 132.27 710.249 132.27C709.478 132.27 708.822 131.617 708.789 130.804L707.881 129.889C707.779 130.165 707.72 130.448 707.72 130.745C707.72 132.15 708.84 133.272 710.243 133.272C711.487 133.277 712.498 132.413 712.729 131.252Z" fill="#484D75"/>
<path d="M1518.28 49.1087C1518.28 50.228 1517.38 51.1868 1516.2 51.1867C1515.07 51.1865 1514.17 50.3221 1514.08 49.275L1476.21 49.2439C1475.96 50.7528 1474.67 51.9441 1473.04 51.9439C1471.31 51.9387 1469.9 50.4794 1469.9 48.736C1469.9 48.2594 1470.01 47.8092 1470.2 47.4058L1456.27 33.4471C1455.89 33.8182 1455.36 34.037 1454.78 34.032C1453.66 34.0318 1452.7 33.1263 1452.7 31.9513L1415.61 31.9203C1415.62 31.9613 1415.63 31.9945 1415.63 32.0307C1415.63 33.2202 1414.67 34.1704 1413.48 34.1702C1412.89 34.1701 1412.34 33.8907 1411.96 33.458L1398.75 46.6898C1399.2 47.2349 1399.47 47.9244 1399.47 48.6804C1399.47 50.4237 1398.06 51.8914 1396.32 51.8912C1394.68 51.887 1393.38 50.666 1393.16 49.1258L1338.81 49.0813C1338.71 50.4194 1337.59 51.5062 1336.23 51.506C1334.83 51.5058 1333.65 50.3171 1333.65 48.9067C1333.65 47.5091 1334.83 46.3265 1336.24 46.3267C1337.57 46.3269 1338.68 47.3858 1338.8 48.6917L1393.12 48.7292C1393.12 48.7088 1393.11 48.6999 1393.12 48.6795C1393.12 46.9322 1394.52 45.5269 1396.32 45.5272C1397.16 45.5273 1397.92 45.8586 1398.48 46.3948L1411.72 33.1317C1411.53 32.8144 1411.41 32.4354 1411.41 32.0301C1411.41 30.8521 1412.37 29.8952 1413.49 29.8954C1414.5 29.8955 1415.33 30.59 1415.56 31.5237L1452.74 31.5548C1452.92 30.5665 1453.79 29.8117 1454.78 29.8167C1455.96 29.8169 1456.91 30.7713 1456.91 31.952C1456.91 32.409 1456.78 32.8095 1456.54 33.1474L1470.4 47.0386C1470.96 46.1646 1471.94 45.5846 1473.06 45.5848C1474.85 45.5851 1476.26 46.9926 1476.26 48.737C1476.26 48.7761 1476.25 48.8161 1476.25 48.8571L1514.08 48.8824C1514.2 47.8091 1515.1 46.9712 1516.2 46.9714C1517.39 46.9716 1518.28 47.924 1518.28 49.1087ZM1338.25 49.0881L1337.46 49.0811C1337.37 49.6847 1336.86 50.1573 1336.23 50.1572C1335.56 50.1571 1335 49.5877 1335 48.9069C1335 48.2458 1335.56 47.734 1336.24 47.7341C1336.84 47.7342 1337.34 48.1289 1337.45 48.6915L1338.24 48.6916C1338.13 47.6739 1337.29 46.8905 1336.24 46.8903C1335.11 46.8901 1334.22 47.7924 1334.21 48.9068C1334.21 50.0397 1335.11 50.9383 1336.23 50.9385C1337.3 50.9387 1338.16 50.1302 1338.25 49.0881ZM1393.8 48.7294L1394.81 48.7295C1394.81 48.7138 1394.8 48.7002 1394.8 48.6797C1394.8 47.8895 1395.48 47.2137 1396.32 47.2139C1396.68 47.2139 1397.02 47.3654 1397.28 47.597L1398.01 46.8606C1397.57 46.4308 1396.97 46.1495 1396.32 46.1445C1394.91 46.1443 1393.79 47.3239 1393.79 48.6796C1393.79 48.7 1393.8 48.7136 1393.8 48.7294ZM1398.27 47.1723L1397.54 47.9016C1397.69 48.1293 1397.78 48.3969 1397.78 48.6802C1397.78 49.5268 1397.11 50.1938 1396.32 50.1937C1395.63 50.1936 1395.06 49.7521 1394.88 49.1261L1393.83 49.1259C1394.04 50.3126 1395.06 51.2063 1396.32 51.2134C1397.67 51.2136 1398.79 50.0906 1398.79 48.6803C1398.79 48.1245 1398.59 47.5972 1398.27 47.1723ZM1470.86 47.5046L1471.67 48.3046C1471.86 47.7186 1472.41 47.2754 1473.05 47.2735C1473.89 47.2736 1474.57 47.9496 1474.57 48.7368C1474.57 48.7759 1474.57 48.812 1474.56 48.8501L1475.57 48.857C1475.57 48.816 1475.58 48.776 1475.58 48.7369C1475.58 47.393 1474.46 46.2043 1473.06 46.2041C1472.1 46.199 1471.3 46.7418 1470.86 47.5046ZM1475.53 49.2438L1474.48 49.2436C1474.27 49.8296 1473.72 50.2612 1473.05 50.2611C1472.28 50.261 1471.62 49.6085 1471.59 48.7949L1470.68 47.8806C1470.58 48.156 1470.52 48.4392 1470.52 48.7361C1470.52 50.1416 1471.64 51.263 1473.04 51.2632C1474.29 51.2682 1475.3 50.404 1475.53 49.2438Z" fill="#484D75"/>
<path d="M1699.24 55.7756L1665.75 55.751C1665.6 58.6643 1663.25 60.9815 1660.31 60.9811C1658.87 60.9761 1657.57 60.4152 1656.6 59.5078L1644.94 71.1498C1645.11 71.5014 1645.22 71.9048 1645.22 72.3365C1645.22 73.7467 1644.1 74.8678 1642.69 74.8676C1641.5 74.8606 1640.48 74.0518 1640.19 72.951L1588.44 72.9138C1588.27 75.7374 1585.92 78.0361 1583 78.0356C1579.96 78.0303 1577.55 75.5462 1577.55 72.5625C1577.55 69.5271 1579.97 67.0486 1583.01 67.0559C1585.89 67.0564 1588.22 69.2953 1588.44 72.1227L1640.12 72.1628C1640.21 70.7868 1641.34 69.7399 1642.69 69.744C1643.39 69.7441 1644.02 70.0216 1644.48 70.4905L1656.06 58.9246C1655.31 57.9761 1654.85 56.7709 1654.85 55.4602C1654.86 52.4764 1657.28 50.0048 1660.32 50.0053C1663.18 50.0057 1665.49 52.2124 1665.74 54.9599L1699.36 54.9855C1699.69 53.9297 1700.67 53.13 1701.83 53.1302C1703.29 53.1304 1704.42 54.3104 1704.42 55.7226C1704.42 56.2559 1704.24 56.7588 1703.97 57.1817L1714.96 68.1611C1715.93 67.294 1717.2 66.759 1718.58 66.7631C1721.62 66.7635 1724.1 69.2457 1724.1 72.2294C1724.1 72.245 1724.08 72.2586 1724.08 72.2792L1760.84 72.3092C1760.93 70.979 1762.07 69.8911 1763.41 69.8913C1764.82 69.8915 1766 71.0734 1766 72.4789C1765.99 73.943 1764.82 75.0659 1763.41 75.0657C1762.21 75.0655 1761.19 74.2459 1760.91 73.0925L1724.02 73.0673C1723.61 75.7082 1721.32 77.7392 1718.57 77.7388C1715.59 77.7296 1713.12 75.2563 1713.12 72.2189C1713.12 70.8965 1713.61 69.6737 1714.41 68.7235L1703.44 57.7315C1703 58.0889 1702.45 58.3124 1701.82 58.3123C1700.44 58.3121 1699.28 57.1605 1699.24 55.7756ZM1722.88 73.0671L1721.02 73.0668C1720.68 74.0953 1719.74 74.8051 1718.57 74.8049C1717.17 74.8047 1716.04 73.6872 1716.05 72.2194C1716.05 71.69 1716.21 71.1948 1716.48 70.7984L1715.21 69.5237C1714.61 70.2667 1714.25 71.2053 1714.25 72.2191C1714.24 74.6392 1716.21 76.5567 1718.57 76.5571C1720.71 76.5574 1722.49 75.0731 1722.88 73.0671ZM1715.76 68.9563L1717.03 70.229C1717.46 69.8911 1717.99 69.691 1718.58 69.6911C1720.04 69.6913 1721.17 70.8196 1721.17 72.2241C1721.17 72.2445 1721.16 72.2581 1721.16 72.2787L1722.96 72.279C1722.96 72.2584 1722.97 72.2448 1722.97 72.2243C1722.97 69.8666 1721 67.8847 1718.58 67.8843C1717.51 67.8841 1716.52 68.2961 1715.76 68.9563ZM1656.87 58.1229L1658.14 56.8456C1657.88 56.4383 1657.73 55.9676 1657.73 55.4606C1657.73 54.0561 1658.91 52.8736 1660.31 52.8787C1661.55 52.8789 1662.56 53.7884 1662.8 54.9594L1664.61 54.9597C1664.36 52.8295 1662.51 51.1289 1660.32 51.1285C1657.89 51.1282 1655.93 53.0968 1655.92 55.4603C1655.92 56.4536 1656.28 57.3815 1656.87 58.1229ZM1587.32 72.9087L1585.5 72.9085C1585.34 74.1499 1584.3 75.1058 1583 75.1017C1581.6 75.1015 1580.41 73.9703 1580.42 72.5629C1580.42 71.1068 1581.6 69.9828 1583.01 69.983C1584.26 69.9832 1585.29 70.8868 1585.49 72.1223L1587.31 72.1226C1587.09 69.9143 1585.28 68.1824 1583.01 68.1821C1580.59 68.1817 1578.67 70.1464 1578.67 72.5627C1578.67 74.9272 1580.59 76.9023 1583 76.9027C1585.31 76.9031 1587.14 75.1111 1587.32 72.9087ZM1664.63 55.7508L1662.82 55.7505C1662.67 57.025 1661.62 58.0582 1660.31 58.058C1659.69 58.0511 1659.12 57.8146 1658.67 57.4366L1657.42 58.7041C1658.19 59.3771 1659.2 59.7943 1660.31 59.8004C1662.57 59.8007 1664.48 57.9844 1664.63 55.7508Z" fill="#484D75"/>
<path d="M1404.32 180.789L1370.83 180.764C1370.68 183.678 1368.32 185.995 1365.39 185.994C1363.95 185.989 1362.65 185.428 1361.68 184.521L1350.02 196.163C1350.19 196.515 1350.3 196.918 1350.3 197.35C1350.3 198.76 1349.17 199.881 1347.76 199.881C1346.57 199.874 1345.55 199.065 1345.27 197.964L1293.52 197.927C1293.35 200.751 1291 203.049 1288.08 203.049C1285.04 203.044 1282.62 200.56 1282.62 197.576C1282.62 194.54 1285.05 192.062 1288.08 192.069C1290.97 192.07 1293.3 194.309 1293.51 197.136L1345.2 197.176C1345.29 195.8 1346.42 194.753 1347.77 194.757C1348.47 194.757 1349.1 195.035 1349.56 195.504L1361.14 183.938C1360.38 182.989 1359.93 181.784 1359.93 180.473C1359.93 177.49 1362.35 175.018 1365.39 175.019C1368.26 175.019 1370.57 177.226 1370.82 179.973L1404.44 179.999C1404.77 178.943 1405.75 178.143 1406.9 178.143C1408.37 178.144 1409.49 179.324 1409.49 180.736C1409.49 181.269 1409.32 181.772 1409.04 182.195L1420.04 193.174C1421.01 192.307 1422.28 191.772 1423.66 191.776C1426.7 191.777 1429.17 194.259 1429.17 197.243C1429.17 197.258 1429.16 197.272 1429.16 197.292L1465.92 197.322C1466.01 195.992 1467.14 194.904 1468.49 194.905C1469.9 194.905 1471.08 196.087 1471.08 197.492C1471.07 198.956 1469.9 200.079 1468.49 200.079C1467.29 200.079 1466.26 199.259 1465.98 198.106L1429.1 198.081C1428.69 200.721 1426.4 202.753 1423.65 202.752C1420.67 202.743 1418.2 200.27 1418.2 197.232C1418.2 195.91 1418.68 194.687 1419.49 193.737L1408.52 182.745C1408.08 183.102 1407.53 183.326 1406.9 183.326C1405.51 183.325 1404.35 182.174 1404.32 180.789ZM1427.96 198.08L1426.1 198.08C1425.76 199.109 1424.81 199.818 1423.65 199.818C1422.25 199.818 1421.12 198.701 1421.12 197.233C1421.12 196.703 1421.29 196.208 1421.56 195.812L1420.29 194.537C1419.69 195.28 1419.33 196.219 1419.32 197.232C1419.32 199.653 1421.29 201.57 1423.65 201.57C1425.78 201.571 1427.56 200.086 1427.96 198.08ZM1420.84 193.97L1422.11 195.242C1422.54 194.904 1423.07 194.704 1423.66 194.704C1425.12 194.705 1426.24 195.833 1426.24 197.237C1426.24 197.258 1426.23 197.271 1426.23 197.292L1428.04 197.292C1428.04 197.272 1428.04 197.258 1428.04 197.238C1428.04 194.88 1426.08 192.898 1423.66 192.898C1422.59 192.897 1421.6 193.309 1420.84 193.97ZM1361.94 183.136L1363.22 181.859C1362.96 181.452 1362.8 180.981 1362.8 180.474C1362.8 179.069 1363.98 177.887 1365.39 177.892C1366.62 177.892 1367.64 178.802 1367.87 179.973L1369.69 179.973C1369.43 177.843 1367.58 176.142 1365.39 176.142C1362.97 176.141 1361.01 178.11 1361 180.474C1361 181.467 1361.35 182.395 1361.94 183.136ZM1292.39 197.922L1290.58 197.922C1290.41 199.163 1289.37 200.119 1288.08 200.115C1286.67 200.115 1285.49 198.984 1285.5 197.576C1285.5 196.12 1286.68 194.996 1288.08 194.996C1289.34 194.996 1290.37 195.9 1290.57 197.136L1292.38 197.136C1292.17 194.928 1290.35 193.196 1288.08 193.195C1285.66 193.195 1283.75 195.16 1283.75 197.576C1283.75 199.941 1285.66 201.916 1288.08 201.916C1290.38 201.916 1292.22 200.124 1292.39 197.922ZM1369.7 180.764L1367.89 180.764C1367.74 182.038 1366.69 183.071 1365.39 183.071C1364.77 183.064 1364.2 182.828 1363.75 182.45L1362.49 183.717C1363.26 184.39 1364.27 184.808 1365.39 184.814C1367.65 184.814 1369.55 182.998 1369.7 180.764Z" fill="#484D75"/>
<path d="M1454.31 118.782L1420.82 118.758C1420.67 121.671 1418.31 123.988 1415.37 123.988C1413.93 123.983 1412.64 123.422 1411.67 122.514L1400 134.157C1400.18 134.508 1400.29 134.912 1400.29 135.343C1400.29 136.753 1399.16 137.874 1397.75 137.874C1396.56 137.867 1395.54 137.058 1395.25 135.958L1343.51 135.921C1343.33 138.744 1340.99 141.043 1338.07 141.042C1335.02 141.037 1332.61 138.553 1332.61 135.569C1332.61 132.534 1335.04 130.055 1338.07 130.063C1340.96 130.063 1343.29 132.302 1343.5 135.129L1395.19 135.169C1395.27 133.793 1396.41 132.747 1397.76 132.751C1398.46 132.751 1399.09 133.028 1399.54 133.497L1411.12 121.931C1410.37 120.983 1409.92 119.778 1409.92 118.467C1409.92 115.483 1412.34 113.012 1415.38 113.012C1418.25 113.012 1420.56 115.219 1420.8 117.967L1454.43 117.992C1454.75 116.936 1455.74 116.137 1456.89 116.137C1458.36 116.137 1459.48 117.317 1459.48 118.729C1459.48 119.263 1459.31 119.766 1459.03 120.188L1470.03 131.168C1471 130.301 1472.27 129.766 1473.65 129.77C1476.68 129.77 1479.16 132.252 1479.16 135.236C1479.16 135.252 1479.15 135.265 1479.15 135.286L1515.91 135.316C1516 133.986 1517.13 132.898 1518.48 132.898C1519.89 132.898 1521.06 134.08 1521.06 135.486C1521.06 136.95 1519.88 138.073 1518.47 138.072C1517.28 138.072 1516.25 137.253 1515.97 136.099L1479.08 136.074C1478.67 138.715 1476.39 140.746 1473.64 140.746C1470.65 140.736 1468.18 138.263 1468.18 135.226C1468.18 133.903 1468.67 132.68 1469.47 131.73L1458.5 120.738C1458.06 121.096 1457.51 121.319 1456.89 121.319C1455.5 121.319 1454.34 120.167 1454.31 118.782ZM1477.94 136.074L1476.09 136.074C1475.74 137.102 1474.8 137.812 1473.64 137.812C1472.23 137.811 1471.11 136.694 1471.11 135.226C1471.11 134.697 1471.27 134.201 1471.55 133.805L1470.27 132.53C1469.68 133.273 1469.31 134.212 1469.31 135.226C1469.31 137.646 1471.27 139.563 1473.64 139.564C1475.77 139.564 1477.55 138.08 1477.94 136.074ZM1470.82 131.963L1472.09 133.236C1472.52 132.898 1473.06 132.698 1473.65 132.698C1475.1 132.698 1476.23 133.826 1476.23 135.231C1476.23 135.251 1476.22 135.265 1476.22 135.285L1478.03 135.286C1478.03 135.265 1478.03 135.252 1478.03 135.231C1478.03 132.873 1476.07 130.891 1473.65 130.891C1472.58 130.891 1471.58 131.303 1470.82 131.963ZM1411.93 121.13L1413.21 119.852C1412.94 119.445 1412.79 118.974 1412.79 118.467C1412.79 117.063 1413.97 115.88 1415.38 115.885C1416.61 115.886 1417.63 116.795 1417.86 117.966L1419.67 117.966C1419.42 115.836 1417.57 114.136 1415.38 114.135C1412.96 114.135 1410.99 116.103 1410.99 118.467C1410.99 119.46 1411.34 120.388 1411.93 121.13ZM1342.38 135.915L1340.56 135.915C1340.4 137.157 1339.36 138.113 1338.07 138.108C1336.66 138.108 1335.48 136.977 1335.48 135.57C1335.48 134.113 1336.66 132.989 1338.07 132.99C1339.33 132.99 1340.35 133.894 1340.56 135.129L1342.37 135.129C1342.16 132.921 1340.34 131.189 1338.07 131.189C1335.65 131.188 1333.74 133.153 1333.74 135.569C1333.74 137.934 1335.65 139.909 1338.07 139.909C1340.37 139.91 1342.21 138.118 1342.38 135.915ZM1419.69 118.757L1417.88 118.757C1417.73 120.032 1416.68 121.065 1415.37 121.065C1414.75 121.058 1414.19 120.821 1413.73 120.443L1412.48 121.711C1413.25 122.384 1414.26 122.801 1415.37 122.807C1417.64 122.807 1419.54 120.991 1419.69 118.757Z" fill="#484D75"/>
<path d="M1173.38 110.781L1139.89 110.757C1139.74 113.67 1137.38 115.987 1134.45 115.987C1133.01 115.982 1131.71 115.421 1130.74 114.514L1119.08 126.156C1119.25 126.507 1119.36 126.911 1119.36 127.342C1119.36 128.753 1118.23 129.874 1116.82 129.873C1115.63 129.866 1114.61 129.058 1114.33 127.957L1062.58 127.92C1062.41 130.743 1060.06 133.042 1057.14 133.041C1054.1 133.036 1051.68 130.552 1051.68 127.568C1051.68 124.533 1054.11 122.054 1057.14 122.062C1060.03 122.062 1062.36 124.301 1062.57 127.129L1114.26 127.169C1114.35 125.793 1115.48 124.746 1116.83 124.75C1117.53 124.75 1118.16 125.027 1118.62 125.496L1130.2 113.93C1129.44 112.982 1128.99 111.777 1128.99 110.466C1129 107.482 1131.41 105.011 1134.45 105.011C1137.32 105.012 1139.63 107.218 1139.88 109.966L1173.5 109.991C1173.83 108.936 1174.81 108.136 1175.96 108.136C1177.43 108.136 1178.55 109.316 1178.56 110.728C1178.55 111.262 1178.38 111.765 1178.1 112.188L1189.1 123.167C1190.07 122.3 1191.34 121.765 1192.72 121.769C1195.76 121.769 1198.23 124.252 1198.23 127.235C1198.23 127.251 1198.22 127.264 1198.22 127.285L1234.98 127.315C1235.07 125.985 1236.2 124.897 1237.55 124.897C1238.96 124.897 1240.14 126.079 1240.14 127.485C1240.13 128.949 1238.96 130.072 1237.55 130.072C1236.35 130.071 1235.32 129.252 1235.04 128.098L1198.16 128.073C1197.75 130.714 1195.46 132.745 1192.71 132.745C1189.73 132.735 1187.26 130.262 1187.26 127.225C1187.26 125.902 1187.75 124.68 1188.55 123.729L1177.58 112.737C1177.14 113.095 1176.59 113.318 1175.96 113.318C1174.57 113.318 1173.41 112.166 1173.38 110.781ZM1197.02 128.073L1195.16 128.073C1194.82 129.101 1193.88 129.811 1192.71 129.811C1191.31 129.811 1190.18 128.693 1190.18 127.225C1190.18 126.696 1190.35 126.201 1190.62 125.804L1189.35 124.529C1188.75 125.273 1188.39 126.211 1188.38 127.225C1188.38 129.645 1190.35 131.563 1192.71 131.563C1194.84 131.563 1196.62 130.079 1197.02 128.073ZM1189.9 123.962L1191.17 125.235C1191.6 124.897 1192.13 124.697 1192.72 124.697C1194.18 124.697 1195.31 125.825 1195.3 127.23C1195.3 127.25 1195.3 127.264 1195.3 127.285L1197.1 127.285C1197.1 127.264 1197.1 127.251 1197.1 127.23C1197.1 124.872 1195.14 122.891 1192.72 122.89C1191.65 122.89 1190.66 123.302 1189.9 123.962ZM1131 113.129L1132.28 111.851C1132.02 111.444 1131.86 110.973 1131.86 110.466C1131.86 109.062 1133.04 107.879 1134.45 107.885C1135.68 107.885 1136.7 108.794 1136.93 109.965L1138.75 109.966C1138.49 107.835 1136.64 106.135 1134.45 106.134C1132.03 106.134 1130.07 108.103 1130.06 110.466C1130.06 111.459 1130.41 112.387 1131 113.129ZM1061.45 127.915L1059.64 127.914C1059.48 129.156 1058.43 130.112 1057.14 130.108C1055.73 130.107 1054.55 128.976 1054.56 127.569C1054.56 126.113 1055.74 124.989 1057.14 124.989C1058.4 124.989 1059.43 125.893 1059.63 127.128L1061.44 127.128C1061.23 124.92 1059.42 123.188 1057.14 123.188C1054.72 123.188 1052.81 125.152 1052.81 127.569C1052.81 129.933 1054.72 131.908 1057.14 131.909C1059.44 131.909 1061.28 130.117 1061.45 127.915ZM1138.76 110.757L1136.95 110.756C1136.8 112.031 1135.75 113.064 1134.45 113.064C1133.83 113.057 1133.26 112.82 1132.81 112.442L1131.55 113.71C1132.32 114.383 1133.33 114.8 1134.45 114.806C1136.71 114.807 1138.61 112.99 1138.76 110.757Z" fill="#484D75"/>
<path d="M988.43 91.7794L954.937 91.7548C954.79 94.6682 952.432 96.9853 949.494 96.9849C948.054 96.9799 946.759 96.419 945.789 95.5116L934.125 107.154C934.299 107.505 934.41 107.909 934.409 108.34C934.409 109.751 933.281 110.872 931.872 110.871C930.682 110.864 929.663 110.056 929.375 108.955L877.629 108.918C877.456 111.741 875.107 114.04 872.19 114.039C869.144 114.034 866.731 111.55 866.732 108.566C866.732 105.531 869.159 103.052 872.191 103.06C875.078 103.06 877.407 105.299 877.623 108.127L929.309 108.167C929.396 106.791 930.529 105.744 931.879 105.748C932.578 105.748 933.209 106.025 933.665 106.494L945.244 94.9285C944.493 93.9799 944.038 92.7747 944.038 91.464C944.043 88.4803 946.461 86.0087 949.503 86.0091C952.368 86.0096 954.677 88.2163 954.925 90.9637L988.548 90.9893C988.875 89.9336 989.858 89.1338 991.011 89.134C992.477 89.1342 993.601 90.3142 993.604 91.7265C993.601 92.2597 993.43 92.7626 993.152 93.1856L1004.15 104.165C1005.12 103.298 1006.39 102.763 1007.77 102.767C1010.8 102.767 1013.28 105.25 1013.28 108.233C1013.28 108.249 1013.27 108.262 1013.27 108.283L1050.03 108.313C1050.12 106.983 1051.25 105.895 1052.6 105.895C1054.01 105.895 1055.19 107.077 1055.19 108.483C1055.18 109.947 1054 111.07 1052.59 111.07C1051.4 111.069 1050.37 110.25 1050.09 109.096L1013.21 109.071C1012.79 111.712 1010.51 113.743 1007.76 113.743C1004.78 113.733 1002.31 111.26 1002.31 108.223C1002.31 106.9 1002.79 105.678 1003.6 104.727L992.624 93.7353C992.184 94.0927 991.634 94.3162 991.01 94.3161C989.623 94.3159 988.461 93.1643 988.43 91.7794ZM1012.06 109.071L1010.21 109.071C1009.87 110.099 1008.92 110.809 1007.76 110.809C1006.35 110.809 1005.23 109.691 1005.23 108.223C1005.23 107.694 1005.39 107.199 1005.67 106.802L1004.4 105.527C1003.8 106.271 1003.43 107.209 1003.43 108.223C1003.43 110.643 1005.4 112.561 1007.76 112.561C1009.89 112.561 1011.67 111.077 1012.06 109.071ZM1004.94 104.96L1006.22 106.233C1006.65 105.895 1007.18 105.695 1007.77 105.695C1009.23 105.695 1010.35 106.823 1010.35 108.228C1010.35 108.248 1010.34 108.262 1010.34 108.283L1012.15 108.283C1012.15 108.262 1012.15 108.249 1012.15 108.228C1012.15 105.87 1010.19 103.888 1007.77 103.888C1006.7 103.888 1005.7 104.3 1004.94 104.96ZM946.053 94.1267L947.328 92.8494C947.064 92.4421 946.911 91.9714 946.911 91.4644C946.911 90.06 948.093 88.8774 949.498 88.8825C950.732 88.8827 951.749 89.7922 951.981 90.9632L953.795 90.9635C953.541 88.8334 951.692 87.1327 949.503 87.1324C947.079 87.132 945.114 89.1006 945.11 91.4641C945.11 92.4575 945.462 93.3853 946.053 94.1267ZM876.503 108.913L874.686 108.912C874.523 110.154 873.483 111.11 872.19 111.106C870.783 111.105 869.601 109.974 869.604 108.567C869.604 107.111 870.786 105.987 872.191 105.987C873.448 105.987 874.476 106.891 874.68 108.126L876.491 108.126C876.28 105.918 874.463 104.186 872.191 104.186C869.773 104.186 867.859 106.15 867.859 108.567C867.858 110.931 869.772 112.906 872.19 112.907C874.491 112.907 876.327 111.115 876.503 108.913ZM953.813 91.7546L952.001 91.7543C951.853 93.0288 950.802 94.062 949.496 94.0618C948.876 94.0549 948.307 93.8184 947.856 93.4404L946.601 94.7079C947.372 95.3809 948.382 95.7981 949.494 95.8042C951.759 95.8045 953.663 93.9882 953.813 91.7546Z" fill="#484D75"/>
<path d="M792.481 87.779L758.988 87.7544C758.841 90.6678 756.483 92.9849 753.545 92.9845C752.105 92.9795 750.81 92.4186 749.841 91.5112L738.176 103.153C738.351 103.505 738.461 103.908 738.461 104.34C738.46 105.75 737.333 106.871 735.923 106.871C734.733 106.864 733.714 106.055 733.426 104.954L681.68 104.917C681.507 107.741 679.158 110.039 676.241 110.039C673.195 110.034 670.783 107.55 670.783 104.566C670.783 101.53 673.21 99.052 676.242 99.0593C679.129 99.0598 681.458 101.299 681.674 104.126L733.36 104.166C733.447 102.79 734.58 101.743 735.93 101.747C736.629 101.748 737.26 102.025 737.716 102.494L749.295 90.928C748.544 89.9795 748.089 88.7743 748.09 87.4636C748.094 84.4798 750.512 82.0083 753.554 82.0087C756.419 82.0092 758.728 84.2158 758.976 86.9633L792.599 86.9889C792.926 85.9331 793.91 85.1334 795.062 85.1336C796.529 85.1338 797.653 86.3138 797.655 87.7261C797.652 88.2593 797.481 88.7622 797.204 89.1851L808.201 100.164C809.169 99.2974 810.438 98.7624 811.819 98.7665C814.855 98.7669 817.334 101.249 817.333 104.233C817.333 104.248 817.321 104.262 817.321 104.283L854.081 104.313C854.17 102.982 855.302 101.895 856.65 101.895C858.06 101.895 859.237 103.077 859.237 104.482C859.231 105.946 858.056 107.069 856.645 107.069C855.451 107.069 854.423 106.249 854.144 105.096L817.257 105.071C816.845 107.712 814.56 109.743 811.81 109.742C808.828 109.733 806.357 107.26 806.357 104.222C806.357 102.9 806.845 101.677 807.646 100.727L796.675 89.7349C796.235 90.0923 795.686 90.3158 795.061 90.3157C793.674 90.3155 792.512 89.1639 792.481 87.779ZM816.116 105.071L814.26 105.07C813.918 106.099 812.974 106.809 811.811 106.808C810.405 106.808 809.28 105.691 809.283 104.223C809.284 103.693 809.446 103.198 809.718 102.802L808.446 101.527C807.849 102.27 807.485 103.209 807.484 104.222C807.479 106.643 809.447 108.56 811.81 108.561C813.942 108.561 815.723 107.077 816.116 105.071ZM808.996 100.96L810.267 102.232C810.698 101.895 811.229 101.694 811.818 101.694C813.277 101.695 814.404 102.823 814.402 104.227C814.404 104.248 814.394 104.262 814.394 104.282L816.2 104.282C816.2 104.262 816.203 104.248 816.203 104.228C816.203 101.87 814.238 99.8881 811.819 99.8877C810.748 99.8875 809.756 100.3 808.996 100.96ZM750.104 90.1263L751.38 88.849C751.115 88.4417 750.962 87.971 750.962 87.464C750.962 86.0596 752.144 84.877 753.549 84.8821C754.784 84.8823 755.8 85.7918 756.032 86.9628L757.846 86.9631C757.592 84.8329 755.743 83.1323 753.554 83.1319C751.13 83.1316 749.165 85.1002 749.161 87.4637C749.161 88.457 749.513 89.3849 750.104 90.1263ZM680.554 104.912L678.737 104.912C678.575 106.153 677.534 107.109 676.241 107.105C674.834 107.105 673.652 105.974 673.655 104.566C673.656 103.11 674.838 101.986 676.242 101.986C677.499 101.987 678.527 102.89 678.731 104.126L680.542 104.126C680.331 101.918 678.514 100.186 676.242 100.185C673.824 100.185 671.91 102.15 671.91 104.566C671.909 106.931 673.823 108.906 676.241 108.906C678.542 108.906 680.378 107.115 680.554 104.912ZM757.864 87.7542L756.052 87.7539C755.904 89.0284 754.853 90.0616 753.547 90.0614C752.927 90.0545 752.359 89.818 751.907 89.4399L750.652 90.7075C751.423 91.3805 752.433 91.7977 753.545 91.8038C755.81 91.8041 757.714 89.9878 757.864 87.7542Z" fill="#484D75"/>
<path d="M959.437 148.785L925.944 148.761C925.798 151.674 923.439 153.991 920.502 153.991C919.061 153.986 917.767 153.425 916.797 152.518L905.133 164.16C905.307 164.511 905.417 164.915 905.417 165.346C905.417 166.757 904.289 167.878 902.88 167.877C901.689 167.87 900.671 167.062 900.383 165.961L848.636 165.924C848.464 168.747 846.114 171.046 843.197 171.046C840.152 171.04 837.739 168.556 837.739 165.572C837.74 162.537 840.167 160.058 843.199 160.066C846.086 160.066 848.414 162.305 848.631 165.133L900.316 165.173C900.404 163.797 901.537 162.75 902.886 162.754C903.585 162.754 904.217 163.031 904.672 163.5L916.251 151.935C915.501 150.986 915.046 149.781 915.046 148.47C915.051 145.486 917.468 143.015 920.51 143.015C923.376 143.016 925.685 145.222 925.932 147.97L959.555 147.995C959.882 146.94 960.866 146.14 962.018 146.14C963.485 146.14 964.609 147.32 964.611 148.733C964.609 149.266 964.438 149.769 964.16 150.192L975.158 161.171C976.125 160.304 977.394 159.769 978.775 159.773C981.812 159.773 984.29 162.256 984.29 165.239C984.29 165.255 984.278 165.268 984.278 165.289L1021.04 165.319C1021.13 163.989 1022.26 162.901 1023.61 162.901C1025.02 162.901 1026.19 164.083 1026.19 165.489C1026.19 166.953 1025.01 168.076 1023.6 168.076C1022.41 168.075 1021.38 167.256 1021.1 166.102L984.214 166.077C983.801 168.718 981.517 170.749 978.767 170.749C975.784 170.739 973.313 168.266 973.313 165.229C973.314 163.906 973.801 162.684 974.603 161.733L963.632 150.741C963.192 151.099 962.642 151.322 962.018 151.322C960.631 151.322 959.469 150.17 959.437 148.785ZM983.072 166.077L981.217 166.077C980.874 167.105 979.931 167.815 978.767 167.815C977.361 167.815 976.236 166.697 976.24 165.229C976.24 164.7 976.402 164.205 976.675 163.808L975.403 162.534C974.805 163.277 974.441 164.215 974.44 165.229C974.435 167.649 976.403 169.567 978.767 169.567C980.899 169.567 982.679 168.083 983.072 166.077ZM975.952 161.966L977.224 163.239C977.654 162.901 978.185 162.701 978.775 162.701C980.233 162.701 981.361 163.829 981.359 165.234C981.361 165.254 981.351 165.268 981.351 165.289L983.156 165.289C983.156 165.268 983.159 165.255 983.159 165.234C983.16 162.876 981.195 160.895 978.775 160.894C977.705 160.894 976.712 161.306 975.952 161.966ZM917.06 151.133L918.336 149.855C918.071 149.448 917.918 148.977 917.918 148.47C917.919 147.066 919.101 145.883 920.505 145.889C921.74 145.889 922.756 146.798 922.989 147.969L924.802 147.97C924.548 145.839 922.699 144.139 920.51 144.138C918.087 144.138 916.121 146.107 916.117 148.47C916.117 149.464 916.47 150.391 917.06 151.133ZM847.511 165.919L845.693 165.918C845.531 167.16 844.491 168.116 843.198 168.112C841.791 168.111 840.608 166.98 840.612 165.573C840.612 164.117 841.794 162.993 843.198 162.993C844.455 162.993 845.483 163.897 845.688 165.132L847.499 165.132C847.288 162.924 845.471 161.192 843.199 161.192C840.781 161.192 838.866 163.156 838.866 165.573C838.866 167.937 840.779 169.912 843.197 169.913C845.499 169.913 847.335 168.121 847.511 165.919ZM924.82 148.761L923.008 148.76C922.861 150.035 921.809 151.068 920.504 151.068C919.883 151.061 919.315 150.824 918.864 150.446L917.608 151.714C918.38 152.387 919.39 152.804 920.502 152.81C922.767 152.811 924.67 150.994 924.82 148.761Z" fill="#484D75"/>
<path d="M1555.28 5.77024L1521.79 5.74564C1521.64 8.65903 1519.28 10.9762 1516.35 10.9758C1514.91 10.9707 1513.61 10.4099 1512.64 9.50244L1500.98 21.1445C1501.15 21.4961 1501.26 21.8995 1501.26 22.3312C1501.26 23.7414 1500.13 24.8625 1498.72 24.8623C1497.53 24.8553 1496.52 24.0464 1496.23 22.9457L1444.48 22.9085C1444.31 25.7321 1441.96 28.0307 1439.04 28.0303C1436 28.0249 1433.58 25.5409 1433.58 22.5572C1433.58 19.5218 1436.01 17.0433 1439.04 17.0506C1441.93 17.0511 1444.26 19.29 1444.47 22.1174L1496.16 22.1575C1496.25 20.7815 1497.38 19.7346 1498.73 19.7387C1499.43 19.7388 1500.06 20.0162 1500.52 20.4852L1512.1 8.91931C1511.35 7.97079 1510.89 6.76559 1510.89 5.45484C1510.9 2.47113 1513.31 -0.00046322 1516.35 6.51195e-08C1519.22 0.000436431 1521.53 2.20712 1521.78 4.95455L1555.4 4.98017C1555.73 3.92441 1556.71 3.12467 1557.86 3.12485C1559.33 3.12507 1560.45 4.30507 1560.46 5.71733C1560.45 6.25057 1560.28 6.7535 1560 7.17642L1571 18.1557C1571.97 17.2887 1573.24 16.7536 1574.62 16.7578C1577.66 16.7582 1580.13 19.2404 1580.13 22.2241C1580.13 22.2397 1580.12 22.2533 1580.12 22.2739L1616.88 22.3039C1616.97 20.9737 1618.1 19.8858 1619.45 19.886C1620.86 19.8862 1622.04 21.0681 1622.04 22.4736C1622.03 23.9376 1620.86 25.0606 1619.45 25.0604C1618.25 25.0602 1617.22 24.2406 1616.94 23.0872L1580.06 23.062C1579.65 25.7029 1577.36 27.7339 1574.61 27.7335C1571.63 27.7243 1569.16 25.251 1569.16 22.2136C1569.16 20.8912 1569.65 19.6684 1570.45 18.7182L1559.48 7.72618C1559.04 8.08356 1558.49 8.3071 1557.86 8.30701C1556.48 8.3068 1555.31 7.15519 1555.28 5.77024ZM1578.92 23.0618L1577.06 23.0615C1576.72 24.09 1575.78 24.7998 1574.61 24.7996C1573.21 24.7994 1572.08 23.6819 1572.08 22.214C1572.08 21.6847 1572.25 21.1895 1572.52 20.7931L1571.25 19.5183C1570.65 20.2614 1570.29 21.2 1570.28 22.2138C1570.28 24.6339 1572.25 26.5514 1574.61 26.5518C1576.74 26.5521 1578.52 25.0678 1578.92 23.0618ZM1571.8 18.951L1573.07 20.2237C1573.5 19.8858 1574.03 19.6857 1574.62 19.6858C1576.08 19.686 1577.21 20.8143 1577.2 22.2187C1577.21 22.2392 1577.2 22.2528 1577.2 22.2734L1579 22.2737C1579 22.2531 1579 22.2395 1579 22.219C1579 19.8612 1577.04 17.8793 1574.62 17.879C1573.55 17.8788 1572.56 18.2908 1571.8 18.951ZM1512.9 8.11754L1514.18 6.8403C1513.92 6.43301 1513.76 5.96224 1513.76 5.45528C1513.76 4.05083 1514.94 2.86828 1516.35 2.8734C1517.58 2.87359 1518.6 3.78305 1518.83 4.95411L1520.65 4.95438C1520.39 2.82422 1518.54 1.12355 1516.35 1.12321C1513.93 1.12284 1511.97 3.09146 1511.96 5.455C1511.96 6.44832 1512.31 7.37618 1512.9 8.11754ZM1443.36 22.9034L1441.54 22.9031C1441.38 24.1445 1440.34 25.1005 1439.04 25.0964C1437.64 25.0962 1436.45 23.965 1436.46 22.5576C1436.46 21.1015 1437.64 19.9774 1439.04 19.9777C1440.3 19.9778 1441.33 20.8815 1441.53 22.117L1443.34 22.1172C1443.13 19.909 1441.32 18.1771 1439.04 18.1768C1436.63 18.1764 1434.71 20.1411 1434.71 22.5574C1434.71 24.9219 1436.62 26.897 1439.04 26.8974C1441.34 26.8977 1443.18 25.1058 1443.36 22.9034ZM1520.66 5.74547L1518.85 5.74519C1518.71 7.0197 1517.65 8.05286 1516.35 8.05266C1515.73 8.04576 1515.16 7.80924 1514.71 7.43123L1513.45 8.69879C1514.22 9.37177 1515.23 9.78897 1516.35 9.79505C1518.61 9.79539 1520.51 7.97908 1520.66 5.74547Z" fill="#484D75"/>
<path d="M458.223 562.645C458.214 562.066 457.718 561.584 457.135 561.584C456.888 561.584 456.659 561.679 456.472 561.832L451.855 557.212C452.189 556.82 452.394 556.3 452.394 555.746C452.394 554.472 451.353 553.429 450.084 553.429C448.947 553.429 447.984 554.288 447.816 555.39L432.304 555.407C432.191 554.92 431.771 554.578 431.262 554.578C430.671 554.579 430.184 555.055 430.185 555.671C430.185 556.256 430.672 556.754 431.262 556.754C431.842 556.753 432.295 556.296 432.328 555.74L447.782 555.728C447.782 555.737 447.782 555.744 447.782 555.747C447.782 557.003 448.83 558.046 450.088 558.046C450.681 558.046 451.219 557.818 451.622 557.456L456.249 562.067C456.128 562.24 456.064 562.447 456.064 562.669C456.064 563.262 456.544 563.757 457.142 563.757C457.622 563.757 458.04 563.426 458.173 562.978L472.312 562.967C472.421 564.122 473.404 565.048 474.597 565.048C475.872 565.047 476.901 564.004 476.901 562.752C476.901 562.196 476.704 561.693 476.379 561.293L481.231 556.432C481.431 556.627 481.692 556.739 481.99 556.739C482.565 556.739 483.032 556.297 483.065 555.723L504.78 555.704C504.882 556.902 505.867 557.834 507.065 557.834C508.341 557.834 509.362 556.792 509.362 555.514C509.356 554.265 508.338 553.222 507.061 553.222C505.847 553.222 504.855 554.188 504.78 555.378L483.037 555.395C482.922 554.928 482.494 554.59 481.99 554.59C481.395 554.59 480.911 555.061 480.911 555.658C480.911 555.843 480.959 556.005 481.039 556.16L476.154 561.05C475.744 560.667 475.195 560.433 474.592 560.433C473.365 560.433 472.373 561.413 472.307 562.641L458.223 562.645ZM475.808 561.392L475.288 561.924C475.099 561.764 474.861 561.667 474.592 561.667C474.041 561.667 473.587 562.104 473.525 562.64L472.767 562.64C472.833 561.701 473.626 560.931 474.592 560.931C475.06 560.931 475.481 561.109 475.808 561.392ZM505.256 555.704L506.007 555.704C506.102 556.225 506.54 556.602 507.064 556.602C507.668 556.602 508.14 556.131 508.144 555.514C508.144 554.924 507.668 554.454 507.061 554.454C506.522 554.454 506.077 554.855 506.001 555.378L505.256 555.378C505.326 554.45 506.109 553.693 507.061 553.693C508.085 553.693 508.9 554.528 508.9 555.514C508.9 556.532 508.088 557.361 507.065 557.361C506.126 557.361 505.352 556.639 505.256 555.704ZM472.782 562.967L473.538 562.966C473.64 563.462 474.078 563.841 474.597 563.84C475.196 563.84 475.68 563.344 475.68 562.752C475.679 562.534 475.619 562.336 475.512 562.167L476.031 561.64C476.279 561.948 476.424 562.336 476.425 562.752C476.426 563.745 475.615 564.574 474.597 564.574C473.665 564.574 472.883 563.86 472.782 562.967ZM448.254 555.728L449.004 555.728C449.004 555.737 449.004 555.744 449.004 555.747C449.004 556.339 449.493 556.813 450.088 556.813C450.341 556.813 450.57 556.723 450.759 556.577L451.29 557.113C450.967 557.394 450.546 557.57 450.088 557.57C449.087 557.57 448.255 556.744 448.254 555.747C448.254 555.744 448.254 555.737 448.254 555.728ZM451.518 556.878L450.981 556.347C451.106 556.178 451.176 555.971 451.176 555.747C451.176 555.136 450.681 554.66 450.084 554.661C449.618 554.661 449.215 554.963 449.067 555.39L448.287 555.39C448.459 554.55 449.203 553.929 450.084 553.927C451.093 553.927 451.919 554.728 451.919 555.746C451.919 556.169 451.766 556.566 451.518 556.878Z" fill="#484D75"/>
<path d="M163.3 437.631C163.291 437.053 162.795 436.571 162.212 436.571C161.965 436.571 161.736 436.666 161.549 436.819L156.932 432.199C157.266 431.806 157.471 431.287 157.471 430.733C157.471 429.459 156.43 428.416 155.161 428.416C154.024 428.416 153.061 429.275 152.893 430.377L137.381 430.393C137.268 429.907 136.848 429.565 136.339 429.565C135.748 429.565 135.261 430.042 135.261 430.657C135.262 431.242 135.749 431.74 136.339 431.74C136.919 431.74 137.372 431.283 137.405 430.726L152.859 430.715C152.859 430.724 152.859 430.731 152.859 430.734C152.859 431.99 153.907 433.033 155.165 433.032C155.758 433.032 156.296 432.805 156.699 432.442L161.326 437.053C161.205 437.226 161.141 437.433 161.141 437.656C161.141 438.249 161.621 438.744 162.219 438.744C162.699 438.744 163.117 438.413 163.25 437.964L177.389 437.953C177.498 439.109 178.481 440.035 179.674 440.034C180.949 440.034 181.978 438.991 181.978 437.739C181.978 437.183 181.781 436.68 181.456 436.28L186.308 431.419C186.508 431.613 186.769 431.726 187.067 431.726C187.642 431.726 188.109 431.284 188.142 430.71L209.857 430.691C209.959 431.889 210.944 432.821 212.142 432.821C213.418 432.82 214.439 431.778 214.439 430.501C214.433 429.252 213.415 428.209 212.138 428.209C210.924 428.209 209.932 429.175 209.857 430.365L188.114 430.382C187.999 429.915 187.571 429.577 187.067 429.577C186.472 429.577 185.988 430.048 185.988 430.645C185.988 430.829 186.036 430.991 186.116 431.147L181.231 436.037C180.821 435.654 180.272 435.419 179.669 435.42C178.442 435.42 177.45 436.4 177.384 437.627L163.3 437.631ZM180.885 436.378L180.365 436.911C180.175 436.751 179.938 436.654 179.669 436.654C179.118 436.654 178.664 437.091 178.602 437.627L177.844 437.627C177.91 436.688 178.703 435.918 179.669 435.918C180.137 435.918 180.558 436.095 180.885 436.378ZM210.333 430.691L211.083 430.691C211.179 431.211 211.617 431.589 212.141 431.589C212.745 431.589 213.217 431.118 213.221 430.501C213.221 429.911 212.744 429.44 212.138 429.44C211.599 429.44 211.154 429.842 211.078 430.364L210.333 430.365C210.403 429.437 211.186 428.68 212.138 428.68C213.162 428.679 213.977 429.514 213.977 430.501C213.977 431.518 213.165 432.348 212.142 432.348C211.203 432.348 210.429 431.625 210.333 430.691ZM177.859 437.953L178.615 437.953C178.717 438.448 179.155 438.827 179.674 438.827C180.273 438.827 180.757 438.331 180.756 437.739C180.756 437.52 180.696 437.323 180.589 437.154L181.108 436.627C181.356 436.935 181.501 437.323 181.502 437.739C181.503 438.732 180.692 439.56 179.674 439.561C178.742 439.561 177.96 438.847 177.859 437.953ZM153.331 430.715L154.081 430.715C154.081 430.724 154.081 430.731 154.081 430.734C154.081 431.325 154.57 431.8 155.165 431.8C155.419 431.8 155.647 431.71 155.836 431.563L156.367 432.1C156.044 432.381 155.623 432.557 155.165 432.557C154.164 432.557 153.332 431.731 153.331 430.734C153.331 430.731 153.331 430.724 153.331 430.715ZM156.595 431.865L156.058 431.334C156.183 431.165 156.253 430.958 156.253 430.733C156.253 430.123 155.758 429.647 155.161 429.647C154.695 429.647 154.292 429.949 154.144 430.377L153.364 430.377C153.536 429.537 154.28 428.916 155.161 428.914C156.17 428.914 156.996 429.714 156.996 430.733C156.996 431.156 156.843 431.553 156.595 431.865Z" fill="#484D75"/>
<path d="M213.287 499.638C213.278 499.06 212.782 498.577 212.199 498.577C211.952 498.577 211.723 498.672 211.536 498.826L206.919 494.206C207.253 493.813 207.458 493.293 207.458 492.74C207.458 491.465 206.417 490.422 205.148 490.422C204.011 490.423 203.048 491.281 202.88 492.384L187.367 492.4C187.255 491.914 186.835 491.572 186.326 491.572C185.735 491.572 185.248 492.049 185.248 492.664C185.249 493.249 185.736 493.747 186.326 493.747C186.906 493.747 187.359 493.29 187.392 492.733L202.845 492.722C202.845 492.731 202.845 492.737 202.845 492.74C202.846 493.996 203.894 495.039 205.152 495.039C205.744 495.039 206.283 494.811 206.686 494.449L211.313 499.06C211.192 499.233 211.128 499.44 211.128 499.663C211.128 500.255 211.608 500.751 212.206 500.75C212.686 500.75 213.104 500.419 213.237 499.971L227.376 499.96C227.485 501.115 228.468 502.041 229.661 502.041C230.936 502.041 231.965 500.997 231.965 499.745C231.965 499.19 231.768 498.687 231.443 498.286L236.295 493.426C236.495 493.62 236.756 493.732 237.054 493.732C237.628 493.732 238.096 493.291 238.129 492.716L259.844 492.697C259.946 493.896 260.931 494.827 262.129 494.827C263.405 494.827 264.426 493.785 264.425 492.507C264.42 491.258 263.402 490.215 262.125 490.215C260.911 490.216 259.919 491.182 259.844 492.371L238.101 492.388C237.986 491.921 237.558 491.584 237.054 491.584C236.459 491.584 235.975 492.055 235.975 492.651C235.975 492.836 236.023 492.998 236.102 493.153L231.218 498.043C230.808 497.66 230.259 497.426 229.656 497.426C228.429 497.426 227.437 498.406 227.371 499.634L213.287 499.638ZM230.872 498.385L230.352 498.917C230.162 498.757 229.925 498.661 229.656 498.661C229.105 498.661 228.651 499.097 228.589 499.634L227.831 499.634C227.897 498.694 228.69 497.924 229.656 497.924C230.124 497.924 230.545 498.102 230.872 498.385ZM260.32 492.697L261.07 492.697C261.166 493.218 261.604 493.596 262.128 493.596C262.732 493.596 263.204 493.125 263.208 492.507C263.208 491.918 262.731 491.447 262.125 491.447C261.586 491.447 261.141 491.849 261.065 492.371L260.32 492.371C260.39 491.443 261.173 490.686 262.125 490.686C263.149 490.686 263.964 491.521 263.964 492.507C263.964 493.525 263.152 494.354 262.129 494.354C261.19 494.355 260.415 493.632 260.32 492.697ZM227.846 499.96L228.602 499.96C228.704 500.455 229.142 500.834 229.661 500.834C230.259 500.834 230.744 500.338 230.743 499.746C230.743 499.527 230.683 499.33 230.576 499.161L231.095 498.633C231.343 498.942 231.488 499.329 231.488 499.746C231.49 500.739 230.679 501.567 229.661 501.567C228.729 501.567 227.947 500.854 227.846 499.96ZM203.318 492.722L204.068 492.722C204.068 492.73 204.068 492.737 204.068 492.74C204.068 493.332 204.557 493.807 205.152 493.806C205.405 493.806 205.634 493.717 205.823 493.57L206.354 494.106C206.031 494.387 205.61 494.563 205.152 494.563C204.151 494.564 203.319 493.737 203.318 492.74C203.318 492.737 203.318 492.73 203.318 492.722ZM206.582 493.872L206.045 493.341C206.17 493.172 206.24 492.964 206.24 492.74C206.24 492.129 205.745 491.654 205.148 491.654C204.682 491.654 204.279 491.956 204.131 492.384L203.351 492.384C203.523 491.544 204.267 490.923 205.148 490.92C206.157 490.92 206.983 491.721 206.983 492.74C206.983 493.163 206.83 493.559 206.582 493.872Z" fill="#484D75"/>
<path d="M314.261 612.65C314.251 612.072 313.756 611.589 313.173 611.589C312.926 611.589 312.697 611.684 312.509 611.838L307.892 607.218C308.227 606.825 308.432 606.305 308.432 605.752C308.431 604.477 307.391 603.434 306.122 603.434C304.985 603.435 304.022 604.293 303.853 605.396L288.341 605.412C288.229 604.926 287.809 604.584 287.3 604.584C286.709 604.584 286.222 605.061 286.222 605.676C286.222 606.261 286.709 606.759 287.3 606.759C287.88 606.759 288.332 606.302 288.366 605.745L303.819 605.734C303.819 605.743 303.819 605.749 303.819 605.752C303.819 607.008 304.867 608.051 306.126 608.051C306.718 608.051 307.257 607.823 307.66 607.461L312.287 612.072C312.166 612.245 312.102 612.452 312.102 612.675C312.102 613.268 312.582 613.763 313.179 613.762C313.659 613.762 314.077 613.431 314.211 612.983L328.35 612.972C328.459 614.127 329.442 615.053 330.635 615.053C331.91 615.053 332.939 614.01 332.938 612.757C332.938 612.202 332.741 611.699 332.417 611.298L337.268 606.438C337.469 606.632 337.73 606.744 338.028 606.744C338.602 606.744 339.069 606.303 339.103 605.728L360.817 605.709C360.92 606.908 361.905 607.839 363.102 607.839C364.379 607.839 365.399 606.797 365.399 605.519C365.394 604.27 364.376 603.227 363.098 603.227C361.885 603.228 360.892 604.194 360.817 605.383L339.074 605.4C338.96 604.933 338.532 604.596 338.028 604.596C337.432 604.596 336.948 605.067 336.949 605.663C336.949 605.848 336.997 606.01 337.076 606.165L332.192 611.055C331.781 610.672 331.233 610.438 330.63 610.438C329.403 610.438 328.41 611.418 328.345 612.646L314.261 612.65ZM331.845 611.397L331.325 611.929C331.136 611.769 330.899 611.673 330.63 611.673C330.078 611.673 329.625 612.109 329.563 612.646L328.804 612.646C328.871 611.706 329.664 610.936 330.63 610.936C331.098 610.936 331.519 611.114 331.845 611.397ZM361.293 605.709L362.044 605.709C362.14 606.23 362.578 606.608 363.102 606.608C363.705 606.608 364.178 606.137 364.181 605.519C364.181 604.93 363.705 604.459 363.098 604.459C362.559 604.459 362.115 604.861 362.038 605.383L361.293 605.383C361.364 604.455 362.146 603.698 363.098 603.698C364.122 603.698 364.938 604.533 364.938 605.519C364.938 606.537 364.125 607.366 363.102 607.367C362.163 607.367 361.389 606.644 361.293 605.709ZM328.82 612.972L329.575 612.972C329.678 613.467 330.116 613.846 330.635 613.846C331.233 613.846 331.717 613.35 331.717 612.758C331.717 612.539 331.657 612.342 331.549 612.173L332.068 611.645C332.317 611.954 332.462 612.341 332.462 612.758C332.464 613.751 331.653 614.579 330.635 614.579C329.703 614.579 328.92 613.866 328.82 612.972ZM304.292 605.734L305.041 605.734C305.041 605.742 305.041 605.749 305.041 605.752C305.041 606.344 305.53 606.819 306.126 606.818C306.379 606.818 306.608 606.729 306.796 606.582L307.328 607.118C307.005 607.399 306.584 607.575 306.126 607.575C305.124 607.576 304.292 606.749 304.292 605.752C304.292 605.749 304.292 605.742 304.292 605.734ZM307.556 606.884L307.019 606.353C307.144 606.184 307.214 605.976 307.214 605.752C307.214 605.141 306.719 604.666 306.122 604.666C305.656 604.666 305.252 604.968 305.105 605.396L304.325 605.396C304.496 604.556 305.24 603.935 306.122 603.932C307.13 603.932 307.956 604.733 307.957 605.752C307.957 606.175 307.803 606.571 307.556 606.884Z" fill="#484D75"/>
<path d="M479.547 541.886C479.546 540.767 478.651 539.808 477.47 539.808C476.344 539.808 475.437 540.673 475.351 541.72L437.48 541.751C437.233 540.242 435.943 539.051 434.314 539.051C432.576 539.056 431.172 540.515 431.173 542.259C431.173 542.735 431.28 543.186 431.471 543.589L417.544 557.548C417.157 557.177 416.632 556.958 416.05 556.963C414.926 556.963 413.972 557.868 413.973 559.043L376.883 559.074C376.888 559.033 376.896 559 376.896 558.964C376.896 557.774 375.942 556.824 374.754 556.825C374.16 556.825 373.608 557.104 373.226 557.537L360.019 544.305C360.467 543.76 360.745 543.07 360.739 542.314C360.739 540.571 359.331 539.103 357.59 539.104C355.946 539.108 354.645 540.329 354.429 541.869L300.08 541.913C299.985 540.575 298.858 539.488 297.503 539.489C296.1 539.489 294.923 540.678 294.923 542.088C294.923 543.486 296.101 544.668 297.509 544.668C298.838 544.668 299.953 543.609 300.073 542.303L354.387 542.266C354.387 542.286 354.385 542.295 354.387 542.315C354.387 544.063 355.787 545.468 357.591 545.468C358.428 545.467 359.191 545.136 359.755 544.6L372.987 557.863C372.796 558.18 372.676 558.559 372.68 558.965C372.68 560.143 373.638 561.1 374.762 561.099C375.767 561.099 376.602 560.405 376.83 559.471L414.01 559.44C414.195 560.428 415.058 561.183 416.051 561.178C417.232 561.178 418.185 560.224 418.185 559.043C418.185 558.586 418.049 558.185 417.812 557.847L431.674 543.956C432.232 544.83 433.206 545.41 434.329 545.41C436.124 545.41 437.529 544.002 437.528 542.258C437.528 542.219 437.517 542.179 437.517 542.138L475.352 542.112C475.468 543.186 476.367 544.023 477.47 544.023C478.657 544.023 479.547 543.071 479.547 541.886ZM299.517 541.907L298.727 541.914C298.642 541.31 298.128 540.837 297.504 540.837C296.834 540.838 296.273 541.407 296.273 542.088C296.273 542.749 296.834 543.261 297.508 543.261C298.107 543.261 298.614 542.866 298.717 542.303L299.512 542.303C299.401 543.321 298.558 544.104 297.509 544.104C296.382 544.105 295.487 543.202 295.48 542.088C295.48 540.955 296.381 540.056 297.504 540.056C298.575 540.056 299.433 540.864 299.517 541.907ZM355.066 542.265L356.081 542.265C356.081 542.281 356.069 542.295 356.069 542.315C356.069 543.105 356.748 543.781 357.59 543.781C357.952 543.781 358.288 543.629 358.552 543.398L359.281 544.134C358.84 544.564 358.239 544.845 357.591 544.85C356.185 544.85 355.058 543.671 355.058 542.315C355.058 542.295 355.066 542.281 355.066 542.265ZM359.543 543.822L358.813 543.093C358.959 542.865 359.051 542.598 359.051 542.315C359.047 541.468 358.376 540.801 357.59 540.801C356.899 540.801 356.334 541.243 356.148 541.869L355.102 541.869C355.313 540.682 356.334 539.788 357.59 539.781C358.936 539.781 360.064 540.904 360.064 542.314C360.064 542.87 359.86 543.398 359.543 543.822ZM432.132 543.49L432.936 542.69C433.126 543.276 433.683 543.719 434.323 543.721C435.165 543.721 435.84 543.045 435.84 542.258C435.84 542.219 435.835 542.183 435.83 542.145L436.844 542.138C436.845 542.179 436.851 542.219 436.853 542.258C436.853 543.602 435.726 544.791 434.329 544.791C433.374 544.796 432.57 544.253 432.132 543.49ZM436.8 541.751L435.75 541.751C435.543 541.165 434.991 540.734 434.32 540.734C433.549 540.734 432.893 541.386 432.861 542.2L431.952 543.114C431.85 542.839 431.792 542.555 431.792 542.259C431.791 540.853 432.911 539.732 434.314 539.732C435.558 539.727 436.569 540.591 436.8 541.751Z" fill="#484D75"/>
<path d="M184.624 416.873C184.623 415.753 183.729 414.795 182.547 414.795C181.421 414.795 180.514 415.659 180.428 416.706L142.557 416.738C142.31 415.229 141.02 414.037 139.391 414.038C137.653 414.043 136.249 415.502 136.25 417.245C136.25 417.722 136.357 418.172 136.548 418.576L122.621 432.534C122.234 432.163 121.709 431.944 121.127 431.949C120.003 431.95 119.049 432.855 119.05 434.03L81.9597 434.061C81.9655 434.02 81.9733 433.987 81.9733 433.951C81.9731 432.761 81.0187 431.811 79.831 431.811C79.2369 431.811 78.6854 432.091 78.3027 432.523L65.096 419.292C65.5441 418.747 65.8223 418.057 65.8164 417.301C65.8161 415.558 64.4079 414.09 62.6667 414.09C61.0231 414.094 59.7224 415.315 59.5063 416.856L5.1572 416.9C5.06235 415.562 3.93455 414.475 2.58041 414.475C1.17697 414.476 -0.000214341 415.664 2.92708e-08 417.075C0.00021247 418.472 1.17776 419.655 2.58559 419.655C3.9149 419.654 5.03011 418.596 5.15048 417.29L59.4639 417.252C59.4639 417.273 59.4615 417.281 59.4639 417.302C59.4641 419.049 60.8644 420.455 62.6676 420.454C63.5049 420.454 64.2683 420.123 64.8315 419.587L78.064 432.85C77.8732 433.167 77.7527 433.546 77.7572 433.951C77.7574 435.129 78.7153 436.086 79.8395 436.086C80.8445 436.086 81.6787 435.391 81.907 434.458L119.087 434.427C119.272 435.415 120.135 436.17 121.128 436.165C122.309 436.165 123.262 435.21 123.262 434.029C123.262 433.572 123.126 433.172 122.889 432.834L136.751 418.943C137.309 419.817 138.283 420.397 139.406 420.397C141.201 420.396 142.606 418.989 142.605 417.244C142.605 417.205 142.594 417.165 142.594 417.124L180.429 417.099C180.545 418.172 181.444 419.01 182.547 419.01C183.734 419.01 184.624 418.057 184.624 416.873ZM4.59448 416.893L3.8041 416.9C3.71864 416.297 3.20546 415.824 2.58062 415.824C1.91093 415.824 1.34964 416.394 1.34975 417.074C1.34985 417.736 1.9113 418.247 2.58538 418.247C3.18434 418.247 3.69056 417.853 3.79396 417.29L4.58862 417.29C4.47753 418.308 3.63455 419.091 2.58551 419.091C1.45885 419.091 0.563926 418.189 0.556984 417.075C0.556811 415.942 1.45823 415.043 2.5805 415.043C3.65206 415.043 4.50981 415.851 4.59448 416.893ZM60.1425 417.252L61.1579 417.252C61.1579 417.268 61.1457 417.281 61.1457 417.302C61.1458 418.092 61.8254 418.768 62.6674 418.768C63.0287 418.768 63.365 418.616 63.6286 418.384L64.358 419.121C63.9168 419.551 63.3159 419.832 62.6675 419.837C61.2617 419.837 60.1349 418.658 60.1347 417.302C60.1347 417.281 60.1425 417.268 60.1425 417.252ZM64.6201 418.809L63.8897 418.08C64.0356 417.852 64.1284 417.585 64.1283 417.301C64.1243 416.455 63.4535 415.788 62.6669 415.788C61.9758 415.788 61.411 416.229 61.2252 416.855L60.1785 416.856C60.3897 415.669 61.4108 414.775 62.6668 414.768C64.0127 414.768 65.1405 415.891 65.1407 417.301C65.1408 417.857 64.9374 418.384 64.6201 418.809ZM137.208 418.477L138.013 417.677C138.203 418.263 138.76 418.706 139.4 418.708C140.242 418.708 140.917 418.032 140.917 417.245C140.917 417.206 140.912 417.169 140.907 417.131L141.921 417.124C141.922 417.165 141.928 417.205 141.93 417.245C141.93 418.589 140.803 419.777 139.406 419.777C138.451 419.782 137.647 419.24 137.208 418.477ZM141.877 416.738L140.827 416.738C140.62 416.152 140.068 415.72 139.397 415.72C138.626 415.72 137.97 416.373 137.938 417.187L137.029 418.101C136.927 417.825 136.869 417.542 136.869 417.245C136.868 415.84 137.988 414.718 139.391 414.718C140.635 414.713 141.646 415.577 141.877 416.738Z" fill="#484D75"/>
<path d="M234.611 478.879C234.61 477.76 233.715 476.801 232.534 476.801C231.408 476.802 230.501 477.666 230.415 478.713L192.544 478.744C192.297 477.235 191.007 476.044 189.378 476.044C187.639 476.049 186.236 477.509 186.237 479.252C186.237 479.729 186.344 480.179 186.535 480.582L172.608 494.541C172.22 494.17 171.696 493.951 171.114 493.956C169.99 493.956 169.036 494.862 169.037 496.037L131.947 496.068C131.952 496.027 131.96 495.994 131.96 495.957C131.96 494.768 131.006 493.818 129.818 493.818C129.224 493.818 128.672 494.097 128.29 494.53L115.083 481.298C115.531 480.753 115.809 480.064 115.803 479.308C115.803 477.564 114.395 476.097 112.654 476.097C111.01 476.101 109.709 477.322 109.493 478.862L55.1441 478.907C55.0493 477.569 53.9215 476.482 52.5674 476.482C51.1639 476.482 49.9867 477.671 49.9869 479.081C49.9872 480.479 51.1647 481.661 52.5725 481.661C53.9018 481.661 55.0171 480.602 55.1374 479.296L109.451 479.259C109.451 479.279 109.448 479.288 109.451 479.309C109.451 481.056 110.851 482.461 112.655 482.461C113.492 482.461 114.255 482.129 114.818 481.593L128.051 494.856C127.86 495.174 127.74 495.553 127.744 495.958C127.744 497.136 128.702 498.093 129.826 498.093C130.831 498.093 131.666 497.398 131.894 496.464L169.074 496.433C169.259 497.422 170.122 498.176 171.115 498.171C172.296 498.171 173.249 497.217 173.249 496.036C173.249 495.579 173.113 495.179 172.876 494.841L186.738 480.949C187.296 481.823 188.27 482.403 189.393 482.403C191.188 482.403 192.593 480.995 192.592 479.251C192.592 479.212 192.581 479.172 192.581 479.131L230.416 479.106C230.532 480.179 231.431 481.017 232.534 481.017C233.72 481.016 234.611 480.064 234.611 478.879ZM54.5814 478.9L53.791 478.907C53.7056 478.303 53.1924 477.831 52.5676 477.831C51.8979 477.831 51.3366 478.4 51.3367 479.081C51.3368 479.742 51.8982 480.254 52.5723 480.254C53.1713 480.254 53.6775 479.859 53.7809 479.297L54.5756 479.296C54.4645 480.314 53.6215 481.098 52.5725 481.098C51.4458 481.098 50.5509 480.196 50.5439 479.081C50.5438 477.948 51.4452 477.05 52.5674 477.049C53.639 477.049 54.4968 477.858 54.5814 478.9ZM110.129 479.259L111.145 479.259C111.145 479.274 111.133 479.288 111.133 479.308C111.133 480.099 111.812 480.774 112.654 480.774C113.016 480.774 113.352 480.623 113.616 480.391L114.345 481.127C113.904 481.557 113.303 481.839 112.654 481.844C111.249 481.844 110.122 480.664 110.122 479.308C110.122 479.288 110.129 479.274 110.129 479.259ZM114.607 480.816L113.877 480.086C114.023 479.859 114.115 479.591 114.115 479.308C114.111 478.461 113.44 477.794 112.654 477.794C111.963 477.794 111.398 478.236 111.212 478.862L110.165 478.862C110.377 477.675 111.398 476.782 112.654 476.775C114 476.774 115.127 477.897 115.128 479.308C115.128 479.863 114.924 480.391 114.607 480.816ZM187.195 480.483L188 479.683C188.19 480.269 188.747 480.713 189.387 480.715C190.229 480.714 190.904 480.038 190.904 479.251C190.904 479.212 190.899 479.176 190.894 479.138L191.908 479.131C191.909 479.172 191.915 479.212 191.917 479.251C191.917 480.595 190.79 481.784 189.393 481.784C188.438 481.789 187.633 481.246 187.195 480.483ZM191.864 478.744L190.814 478.744C190.607 478.158 190.055 477.727 189.384 477.727C188.613 477.727 187.957 478.38 187.925 479.193L187.016 480.107C186.914 479.832 186.856 479.549 186.856 479.252C186.855 477.846 187.975 476.725 189.378 476.725C190.622 476.72 191.633 477.584 191.864 478.744Z" fill="#484D75"/>
<path d="M335.584 591.891C335.584 590.772 334.689 589.813 333.507 589.813C332.382 589.814 331.475 590.678 331.389 591.725L293.518 591.756C293.27 590.247 291.98 589.056 290.352 589.056C288.613 589.061 287.21 590.521 287.21 592.264C287.21 592.741 287.317 593.191 287.509 593.594L273.581 607.553C273.194 607.182 272.67 606.963 272.088 606.968C270.963 606.968 270.01 607.874 270.01 609.049L232.92 609.08C232.926 609.039 232.934 609.006 232.934 608.969C232.934 607.78 231.979 606.83 230.792 606.83C230.197 606.83 229.646 607.109 229.263 607.542L216.057 594.31C216.505 593.765 216.783 593.076 216.777 592.32C216.777 590.576 215.368 589.109 213.627 589.109C211.984 589.113 210.683 590.334 210.467 591.874L156.118 591.919C156.023 590.581 154.895 589.494 153.541 589.494C152.138 589.494 150.96 590.683 150.961 592.093C150.961 593.491 152.138 594.673 153.546 594.673C154.875 594.673 155.991 593.614 156.111 592.308L210.424 592.271C210.424 592.291 210.422 592.3 210.424 592.321C210.425 594.068 211.825 595.473 213.628 595.473C214.466 595.473 215.229 595.141 215.792 594.605L229.025 607.868C228.834 608.186 228.713 608.565 228.718 608.97C228.718 610.148 229.676 611.105 230.8 611.105C231.805 611.104 232.639 610.41 232.868 609.476L270.047 609.445C270.232 610.433 271.096 611.188 272.089 611.183C273.27 611.183 274.223 610.229 274.223 609.048C274.223 608.591 274.087 608.191 273.849 607.853L287.711 593.961C288.269 594.835 289.243 595.415 290.366 595.415C292.162 595.415 293.566 594.007 293.566 592.263C293.566 592.224 293.555 592.184 293.555 592.143L331.39 592.118C331.506 593.191 332.404 594.029 333.508 594.029C334.694 594.029 335.584 593.076 335.584 591.891ZM155.555 591.912L154.765 591.919C154.679 591.315 154.166 590.843 153.541 590.843C152.872 590.843 152.31 591.412 152.31 592.093C152.31 592.754 152.872 593.266 153.546 593.266C154.145 593.266 154.651 592.871 154.755 592.309L155.549 592.308C155.438 593.326 154.595 594.11 153.546 594.11C152.419 594.11 151.525 593.208 151.518 592.093C151.517 590.96 152.419 590.062 153.541 590.062C154.613 590.061 155.47 590.87 155.555 591.912ZM211.103 592.271L212.118 592.271C212.118 592.286 212.106 592.3 212.106 592.32C212.106 593.11 212.786 593.786 213.628 593.786C213.989 593.786 214.326 593.635 214.589 593.403L215.319 594.139C214.877 594.569 214.276 594.851 213.628 594.856C212.222 594.856 211.095 593.676 211.095 592.32C211.095 592.3 211.103 592.286 211.103 592.271ZM215.581 593.828L214.85 593.098C214.996 592.871 215.089 592.603 215.089 592.32C215.085 591.473 214.414 590.806 213.628 590.806C212.936 590.806 212.372 591.248 212.186 591.874L211.139 591.874C211.35 590.688 212.371 589.794 213.627 589.787C214.973 589.786 216.101 590.909 216.101 592.32C216.101 592.875 215.898 593.403 215.581 593.828ZM288.169 593.495L288.974 592.695C289.164 593.281 289.721 593.725 290.36 593.727C291.203 593.726 291.878 593.05 291.877 592.263C291.877 592.224 291.873 592.188 291.868 592.15L292.882 592.143C292.882 592.184 292.888 592.224 292.89 592.263C292.891 593.607 291.764 594.796 290.366 594.796C289.412 594.801 288.607 594.258 288.169 593.495ZM292.837 591.756L291.787 591.756C291.58 591.17 291.029 590.739 290.358 590.739C289.587 590.739 288.931 591.392 288.898 592.205L287.99 593.119C287.888 592.844 287.829 592.561 287.829 592.264C287.829 590.858 288.949 589.737 290.352 589.737C291.596 589.732 292.607 590.596 292.837 591.756Z" fill="#484D75"/>
<path d="M516.552 585.224L483.059 585.249C482.913 582.336 480.554 580.019 477.617 580.019C476.176 580.024 474.882 580.585 473.912 581.492L462.248 569.85C462.422 569.499 462.532 569.095 462.532 568.664C462.532 567.253 461.404 566.132 459.995 566.132C458.804 566.139 457.785 566.948 457.498 568.049L405.751 568.086C405.579 565.263 403.229 562.964 400.312 562.964C397.267 562.97 394.854 565.454 394.854 568.438C394.855 571.473 397.282 573.951 400.314 573.944C403.201 573.944 405.529 571.705 405.746 568.877L457.431 568.837C457.518 570.213 458.652 571.26 460.001 571.256C460.7 571.256 461.332 570.979 461.787 570.51L473.366 582.075C472.616 583.024 472.161 584.229 472.161 585.54C472.166 588.524 474.583 590.995 477.625 590.995C480.491 590.994 482.8 588.788 483.047 586.04L516.67 586.015C516.997 587.07 517.981 587.87 519.133 587.87C520.6 587.87 521.724 586.69 521.726 585.277C521.724 584.744 521.553 584.241 521.275 583.818L532.273 572.839C533.24 573.706 534.509 574.241 535.89 574.237C538.926 574.237 541.405 571.754 541.405 568.771C541.405 568.755 541.393 568.741 541.393 568.721L578.152 568.691C578.241 570.021 579.373 571.109 580.722 571.109C582.131 571.109 583.308 569.927 583.308 568.521C583.303 567.057 582.127 565.934 580.717 565.934C579.523 565.935 578.494 566.754 578.215 567.908L541.329 567.933C540.916 565.292 538.631 563.261 535.882 563.261C532.899 563.271 530.428 565.744 530.428 568.781C530.429 570.104 530.916 571.326 531.718 572.277L520.747 583.269C520.307 582.911 519.757 582.688 519.133 582.688C517.746 582.688 516.584 583.84 516.552 585.224ZM540.187 567.933L538.332 567.933C537.989 566.905 537.046 566.195 535.882 566.195C534.476 566.195 533.351 567.313 533.355 568.781C533.355 569.31 533.517 569.805 533.789 570.202L532.518 571.476C531.92 570.733 531.556 569.795 531.555 568.781C531.55 566.361 533.518 564.443 535.882 564.443C538.014 564.443 539.794 565.927 540.187 567.933ZM533.067 572.044L534.339 570.771C534.769 571.109 535.3 571.309 535.89 571.309C537.348 571.309 538.476 570.18 538.474 568.776C538.476 568.755 538.466 568.742 538.466 568.721L540.271 568.721C540.271 568.742 540.274 568.755 540.274 568.776C540.275 571.133 538.31 573.115 535.89 573.116C534.82 573.116 533.827 572.704 533.067 572.044ZM474.175 582.877L475.451 584.154C475.186 584.562 475.033 585.032 475.033 585.539C475.034 586.944 476.215 588.126 477.62 588.121C478.855 588.121 479.871 587.212 480.104 586.041L481.917 586.04C481.663 588.17 479.814 589.871 477.625 589.872C475.202 589.872 473.236 587.903 473.232 585.54C473.232 584.546 473.585 583.619 474.175 582.877ZM404.626 568.091L402.808 568.092C402.646 566.85 401.606 565.894 400.313 565.898C398.906 565.898 397.723 567.03 397.727 568.437C397.727 569.893 398.909 571.017 400.313 571.017C401.57 571.017 402.598 570.113 402.803 568.878L404.614 568.878C404.403 571.086 402.586 572.818 400.314 572.818C397.896 572.818 395.981 570.854 395.981 568.437C395.981 566.073 397.894 564.098 400.312 564.097C402.614 564.097 404.45 565.889 404.626 568.091ZM481.935 585.249L480.123 585.25C479.976 583.975 478.924 582.942 477.619 582.942C476.998 582.949 476.43 583.185 475.979 583.564L474.723 582.296C475.495 581.623 476.505 581.206 477.617 581.2C479.882 581.199 481.785 583.016 481.935 585.249Z" fill="#484D75"/>
<path d="M221.629 460.211L188.136 460.236C187.99 457.322 185.631 455.005 182.694 455.006C181.253 455.011 179.959 455.572 178.989 456.479L167.325 444.837C167.499 444.485 167.609 444.082 167.609 443.65C167.609 442.24 166.481 441.119 165.072 441.119C163.881 441.126 162.862 441.935 162.575 443.036L110.828 443.073C110.656 440.249 108.306 437.951 105.389 437.951C102.343 437.957 99.9309 440.441 99.9313 443.424C99.9318 446.46 102.359 448.938 105.391 448.931C108.278 448.93 110.606 446.691 110.823 443.864L162.508 443.824C162.595 445.2 163.729 446.247 165.078 446.243C165.777 446.243 166.408 445.965 166.864 445.496L178.443 457.062C177.693 458.011 177.238 459.216 177.238 460.527C177.243 463.51 179.66 465.982 182.702 465.981C185.568 465.981 187.877 463.774 188.124 461.027L221.747 461.001C222.074 462.057 223.058 462.857 224.21 462.857C225.677 462.856 226.801 461.676 226.803 460.264C226.801 459.731 226.63 459.228 226.352 458.805L237.35 447.826C238.317 448.693 239.586 449.228 240.967 449.224C244.003 449.223 246.482 446.741 246.482 443.757C246.482 443.742 246.47 443.728 246.47 443.708L283.229 443.678C283.318 445.008 284.45 446.096 285.799 446.095C287.208 446.095 288.385 444.913 288.385 443.508C288.38 442.044 287.204 440.921 285.794 440.921C284.6 440.921 283.571 441.741 283.292 442.894L246.406 442.919C245.993 440.279 243.708 438.248 240.959 438.248C237.976 438.257 235.505 440.73 235.505 443.768C235.506 445.09 235.993 446.313 236.795 447.263L225.824 458.255C225.384 457.898 224.834 457.674 224.21 457.674C222.823 457.675 221.661 458.826 221.629 460.211ZM245.264 442.92L243.409 442.92C243.066 441.892 242.123 441.182 240.959 441.182C239.553 441.182 238.428 442.3 238.432 443.767C238.432 444.297 238.594 444.792 238.867 445.188L237.595 446.463C236.997 445.72 236.633 444.781 236.632 443.768C236.627 441.348 238.595 439.43 240.959 439.43C243.091 439.429 244.871 440.914 245.264 442.92ZM238.144 447.03L239.416 445.758C239.846 446.096 240.377 446.296 240.967 446.296C242.425 446.295 243.553 445.167 243.551 443.763C243.553 443.742 243.543 443.729 243.543 443.708L245.348 443.708C245.348 443.728 245.351 443.742 245.351 443.762C245.352 446.12 243.387 448.102 240.967 448.102C239.897 448.103 238.904 447.691 238.144 447.03ZM179.252 457.864L180.528 459.141C180.263 459.548 180.11 460.019 180.11 460.526C180.111 461.931 181.292 463.113 182.697 463.108C183.932 463.108 184.948 462.198 185.181 461.027L186.994 461.027C186.74 463.157 184.891 464.858 182.702 464.858C180.279 464.859 178.313 462.89 178.309 460.526C178.309 459.533 178.662 458.605 179.252 457.864ZM109.703 443.078L107.885 443.078C107.723 441.837 106.683 440.881 105.39 440.885C103.983 440.885 102.8 442.016 102.804 443.424C102.804 444.88 103.986 446.004 105.39 446.004C106.647 446.004 107.675 445.1 107.88 443.864L109.691 443.864C109.48 446.072 107.663 447.804 105.391 447.805C102.973 447.805 101.058 445.84 101.058 443.424C101.058 441.06 102.971 439.084 105.389 439.084C107.691 439.084 109.527 440.876 109.703 443.078ZM187.012 460.236L185.2 460.236C185.053 458.962 184.001 457.929 182.696 457.929C182.075 457.936 181.507 458.172 181.056 458.55L179.8 457.283C180.572 456.61 181.582 456.192 182.694 456.186C184.958 456.186 186.862 458.002 187.012 460.236Z" fill="#484D75"/>
<path d="M271.616 522.218L238.123 522.242C237.977 519.329 235.618 517.012 232.681 517.012C231.24 517.017 229.946 517.578 228.976 518.486L217.311 506.844C217.486 506.492 217.596 506.089 217.596 505.657C217.596 504.247 216.468 503.126 215.059 503.126C213.868 503.133 212.849 503.942 212.562 505.042L160.815 505.08C160.643 502.256 158.293 499.957 155.376 499.958C152.33 499.963 149.918 502.447 149.918 505.431C149.919 508.466 152.346 510.945 155.378 510.937C158.265 510.937 160.593 508.698 160.809 505.871L212.495 505.831C212.582 507.207 213.716 508.253 215.065 508.249C215.764 508.249 216.395 507.972 216.851 507.503L228.43 519.069C227.679 520.017 227.225 521.222 227.225 522.533C227.23 525.517 229.647 527.988 232.689 527.988C235.555 527.988 237.864 525.781 238.111 523.034L271.734 523.008C272.061 524.064 273.045 524.863 274.197 524.863C275.664 524.863 276.788 523.683 276.79 522.271C276.788 521.737 276.617 521.235 276.339 520.812L287.337 509.832C288.304 510.699 289.573 511.234 290.954 511.23C293.99 511.23 296.469 508.748 296.469 505.764C296.469 505.748 296.457 505.735 296.457 505.714L333.216 505.684C333.305 507.014 334.437 508.102 335.786 508.102C337.195 508.102 338.372 506.92 338.372 505.514C338.367 504.05 337.191 502.927 335.781 502.928C334.586 502.928 333.558 503.747 333.279 504.901L296.393 504.926C295.98 502.285 293.695 500.254 290.946 500.255C287.963 500.264 285.492 502.737 285.492 505.774C285.493 507.097 285.98 508.32 286.782 509.27L275.811 520.262C275.371 519.904 274.821 519.681 274.197 519.681C272.81 519.681 271.648 520.833 271.616 522.218ZM295.251 504.926L293.395 504.927C293.053 503.898 292.11 503.188 290.946 503.188C289.54 503.189 288.415 504.306 288.419 505.774C288.419 506.303 288.581 506.799 288.853 507.195L287.582 508.47C286.984 507.727 286.62 506.788 286.619 505.774C286.614 503.354 288.582 501.437 290.946 501.436C293.078 501.436 294.858 502.92 295.251 504.926ZM288.131 509.037L289.403 507.764C289.833 508.102 290.364 508.302 290.954 508.302C292.412 508.302 293.54 507.174 293.538 505.769C293.54 505.749 293.53 505.735 293.53 505.715L295.335 505.714C295.335 505.735 295.338 505.749 295.338 505.769C295.339 508.127 293.374 510.109 290.954 510.109C289.883 510.109 288.891 509.697 288.131 509.037ZM229.239 519.871L230.515 521.148C230.25 521.555 230.097 522.026 230.097 522.533C230.097 523.937 231.279 525.12 232.684 525.115C233.919 525.115 234.935 524.205 235.168 523.034L236.981 523.034C236.727 525.164 234.878 526.865 232.689 526.865C230.266 526.865 228.3 524.897 228.296 522.533C228.296 521.54 228.649 520.612 229.239 519.871ZM159.69 505.085L157.872 505.085C157.71 503.843 156.67 502.888 155.376 502.892C153.97 502.892 152.787 504.023 152.791 505.43C152.791 506.887 153.973 508.011 155.377 508.01C156.634 508.01 157.662 507.107 157.866 505.871L159.678 505.871C159.466 508.079 157.65 509.811 155.378 509.811C152.96 509.812 151.045 507.847 151.045 505.431C151.045 503.066 152.958 501.091 155.376 501.091C157.678 501.09 159.513 502.882 159.69 505.085ZM236.999 522.243L235.187 522.243C235.04 520.968 233.988 519.935 232.683 519.935C232.062 519.942 231.494 520.179 231.043 520.557L229.787 519.289C230.558 518.616 231.569 518.199 232.681 518.193C234.945 518.193 236.849 520.009 236.999 522.243Z" fill="#484D75"/>
<path d="M372.59 635.23L339.097 635.254C338.95 632.341 336.592 630.024 333.654 630.024C332.214 630.029 330.919 630.59 329.949 631.498L318.285 619.856C318.459 619.504 318.57 619.101 318.57 618.669C318.569 617.259 317.442 616.138 316.032 616.138C314.842 616.145 313.823 616.954 313.535 618.054L261.789 618.092C261.616 615.268 259.267 612.969 256.35 612.97C253.304 612.975 250.891 615.459 250.892 618.443C250.892 621.478 253.319 623.957 256.351 623.949C259.238 623.949 261.567 621.71 261.783 618.883L313.469 618.843C313.556 620.219 314.689 621.265 316.039 621.261C316.738 621.261 317.369 620.984 317.825 620.515L329.404 632.081C328.653 633.029 328.198 634.234 328.199 635.545C328.203 638.529 330.621 641 333.663 641C336.528 641 338.837 638.793 339.085 636.045L372.708 636.02C373.035 637.076 374.019 637.875 375.171 637.875C376.637 637.875 377.761 636.695 377.764 635.283C377.761 634.749 377.59 634.247 377.312 633.824L388.31 622.844C389.278 623.711 390.547 624.246 391.928 624.242C394.964 624.242 397.443 621.76 397.442 618.776C397.442 618.76 397.43 618.747 397.43 618.726L434.19 618.696C434.279 620.026 435.411 621.114 436.759 621.114C438.169 621.114 439.346 619.932 439.346 618.526C439.34 617.062 438.164 615.939 436.754 615.94C435.56 615.94 434.532 616.759 434.253 617.913L397.366 617.938C396.954 615.297 394.669 613.266 391.919 613.267C388.937 613.276 386.466 615.749 386.466 618.786C386.466 620.109 386.954 621.332 387.755 622.282L376.784 633.274C376.344 632.917 375.795 632.693 375.17 632.693C373.783 632.693 372.621 633.845 372.59 635.23ZM396.225 617.938L394.369 617.939C394.027 616.91 393.083 616.2 391.92 616.2C390.514 616.201 389.389 617.318 389.392 618.786C389.392 619.315 389.555 619.811 389.827 620.207L388.555 621.482C387.958 620.739 387.594 619.8 387.593 618.786C387.588 616.366 389.556 614.449 391.919 614.448C394.051 614.448 395.832 615.932 396.225 617.938ZM389.105 622.049L390.376 620.776C390.806 621.114 391.338 621.314 391.927 621.314C393.386 621.314 394.513 620.186 394.511 618.781C394.513 618.761 394.503 618.747 394.503 618.727L396.309 618.726C396.309 618.747 396.312 618.761 396.312 618.781C396.312 621.139 394.347 623.121 391.928 623.121C390.857 623.121 389.865 622.709 389.105 622.049ZM330.213 632.882L331.488 634.16C331.224 634.567 331.071 635.038 331.071 635.545C331.071 636.949 332.253 638.132 333.658 638.127C334.893 638.126 335.909 637.217 336.141 636.046L337.955 636.046C337.701 638.176 335.852 639.876 333.663 639.877C331.239 639.877 329.274 637.909 329.27 635.545C329.27 634.552 329.622 633.624 330.213 632.882ZM260.663 618.097L258.846 618.097C258.684 616.855 257.643 615.9 256.35 615.904C254.943 615.904 253.761 617.035 253.764 618.442C253.764 619.899 254.946 621.023 256.351 621.022C257.608 621.022 258.636 620.119 258.84 618.883L260.651 618.883C260.44 621.091 258.623 622.823 256.351 622.823C253.933 622.824 252.019 620.859 252.019 618.443C252.018 616.078 253.932 614.103 256.35 614.103C258.651 614.102 260.487 615.894 260.663 618.097ZM337.973 635.255L336.161 635.255C336.013 633.98 334.962 632.947 333.656 632.947C333.036 632.954 332.468 633.191 332.016 633.569L330.761 632.301C331.532 631.628 332.542 631.211 333.654 631.205C335.919 631.205 337.823 633.021 337.973 635.255Z" fill="#484D75"/>
</svg>
