<svg width="228" height="33" viewBox="0 0 228 33" fill="none" xmlns="http://www.w3.org/2000/svg">
<path d="M3.23438 26.1562C5.27344 26.1562 6.45117 24.9434 6.45117 22.7988V16.3125H13.9043C15.5742 16.3125 16.5938 15.3984 16.5938 13.8516C16.5938 12.2871 15.5391 11.373 13.9043 11.373H6.45117V5.60742H14.7305C16.4355 5.60742 17.5957 4.6582 17.5957 3.00586C17.5957 1.35352 16.4707 0.404297 14.7305 0.404297H3.23438C1.19531 0.404297 0 1.63477 0 3.7793V22.7988C0 24.9434 1.19531 26.1562 3.23438 26.1562Z" fill="black"/>
<path d="M28.4414 26.2266C34.4707 26.2266 38.2324 22.5879 38.2324 16.1895C38.2324 9.91406 34.418 6.16992 28.4414 6.16992C22.5 6.16992 18.6504 9.93164 18.6504 16.1895C18.6504 22.5703 22.4121 26.2266 28.4414 26.2266ZM28.4414 21.6562C26.2969 21.6562 24.9785 19.7051 24.9785 16.207C24.9785 12.7617 26.332 10.7402 28.4414 10.7402C30.5684 10.7402 31.9219 12.7617 31.9219 16.207C31.9219 19.7051 30.5684 21.6562 28.4414 21.6562Z" fill="black"/>
<path d="M43.7695 26.1738C45.668 26.1738 46.8809 25.0488 46.8809 22.9395V15.4688C46.8809 13.2891 47.4961 12.3398 49.6406 12.2871C50.8008 12.2344 51.6797 11.9707 52.2598 11.4434C52.8398 10.9336 53.1387 10.1953 53.1387 9.21094C53.1387 8.08594 52.8223 7.29492 52.207 6.83789C51.8027 6.50391 51.2402 6.3457 50.5371 6.3457C48.6211 6.3457 47.2148 7.7168 46.7402 10.3008H46.6172V9.35156C46.6172 7.33008 45.4219 6.22266 43.6816 6.22266C41.8711 6.22266 40.6406 7.33008 40.6406 9.33398V22.9395C40.6406 25.0488 41.8535 26.1738 43.7695 26.1738Z" fill="black"/>
<path d="M64.9336 32.6426C66.7441 32.6426 68.0449 31.5879 68.0449 29.4082V22.5H68.168C69.0996 24.7148 71.209 26.0508 74.0215 26.0508C78.7852 26.0508 81.5801 22.4473 81.5801 16.207C81.5801 9.94922 78.7676 6.3457 73.9336 6.3457C71.1738 6.3457 69.0996 7.73438 68.1328 10.0371H68.0098V9.43945C68.0098 7.25977 66.7266 6.22266 64.916 6.22266C63.0879 6.22266 61.8047 7.25977 61.8047 9.42188V29.4082C61.8047 31.5879 63.1055 32.6426 64.9336 32.6426ZM71.6133 21.1816C69.416 21.1816 68.0273 19.248 68.0098 16.207C68.0273 13.1836 69.4336 11.2148 71.6133 11.2148C73.8105 11.2148 75.2168 13.166 75.2168 16.207C75.2168 19.248 73.8281 21.1816 71.6133 21.1816Z" fill="black"/>
<path d="M93.2168 26.2266C97.0312 26.2266 100.125 24.873 101.391 22.623C101.672 22.166 101.812 21.6914 101.812 21.2168C101.812 19.8457 100.74 19.0371 99.4746 19.0371C98.7012 19.0371 98.1914 19.248 97.541 19.8633C96.1523 21.2695 94.9746 21.8145 93.2695 21.8145C91.0195 21.8145 89.4902 20.2324 89.4902 17.9121V17.5605H99.8965C101.514 17.5605 102.41 16.6816 102.41 15.0996C102.41 9.93164 98.666 6.16992 92.9707 6.16992C87.1348 6.16992 83.4434 10.0898 83.4434 16.2949C83.4434 22.5176 87.082 26.2266 93.2168 26.2266ZM89.5781 14.0098C89.7363 12.0059 91.1602 10.5996 93.0938 10.5996C95.0449 10.5996 96.4336 11.9355 96.5391 14.0098H89.5781Z" fill="black"/>
<path d="M106.4 20.6367C106.4 24.1875 108.281 26.0156 111.973 26.0156H112.131C114.539 26.0156 116.508 25.1016 116.508 23.291C116.508 21.8496 115.699 21.2344 114.311 21.0762L113.924 21.0234C113.045 20.9355 112.641 20.4609 112.641 19.2656V11.2324H114.152C115.541 11.2324 116.455 10.3184 116.455 8.92969C116.455 7.54102 115.541 6.62695 114.152 6.62695H112.641V5.09766C112.641 3.07617 111.498 1.86328 109.529 1.86328C107.543 1.86328 106.4 3.07617 106.4 5.09766V6.62695H105.715C104.326 6.62695 103.412 7.52344 103.412 8.92969C103.412 10.3184 104.326 11.2324 105.715 11.2324H106.4V20.6367Z" fill="black"/>
<path d="M128.883 26.1738C130.693 26.1738 131.994 25.1191 131.994 22.9395V3.23438C131.994 1.05469 130.693 0 128.883 0C127.055 0 125.754 1.05469 125.754 3.23438V22.9395C125.754 25.1191 127.055 26.1738 128.883 26.1738Z" fill="black"/>
<path d="M144.316 26.2266C150.346 26.2266 154.107 22.5879 154.107 16.1895C154.107 9.91406 150.293 6.16992 144.316 6.16992C138.375 6.16992 134.525 9.93164 134.525 16.1895C134.525 22.5703 138.287 26.2266 144.316 26.2266ZM144.316 21.6562C142.172 21.6562 140.854 19.7051 140.854 16.207C140.854 12.7617 142.207 10.7402 144.316 10.7402C146.443 10.7402 147.797 12.7617 147.797 16.207C147.797 19.7051 146.443 21.6562 144.316 21.6562Z" fill="black"/>
<path d="M164.689 26.1738C167.01 26.1738 168.311 25.1895 169.084 22.9746L173.514 10.7402C173.689 10.2129 173.865 9.54492 173.865 8.96484C173.865 7.41797 172.547 6.22266 170.859 6.22266C169.365 6.22266 168.311 6.99609 167.906 8.66602L164.742 20.5488H164.619L161.42 8.75391C160.998 7.03125 159.979 6.22266 158.432 6.22266C156.674 6.22266 155.303 7.3125 155.303 9C155.303 9.66797 155.461 10.3359 155.654 10.8984L160.084 22.9746C160.875 25.207 162.193 26.1738 164.689 26.1738Z" fill="black"/>
<path d="M184.658 26.2266C188.473 26.2266 191.566 24.873 192.832 22.623C193.113 22.166 193.254 21.6914 193.254 21.2168C193.254 19.8457 192.182 19.0371 190.916 19.0371C190.143 19.0371 189.633 19.248 188.982 19.8633C187.594 21.2695 186.416 21.8145 184.711 21.8145C182.461 21.8145 180.932 20.2324 180.932 17.9121V17.5605H191.338C192.955 17.5605 193.852 16.6816 193.852 15.0996C193.852 9.93164 190.107 6.16992 184.412 6.16992C178.576 6.16992 174.885 10.0898 174.885 16.2949C174.885 22.5176 178.523 26.2266 184.658 26.2266ZM181.02 14.0098C181.178 12.0059 182.602 10.5996 184.535 10.5996C186.486 10.5996 187.875 11.9355 187.98 14.0098H181.02Z" fill="black"/>
<path d="M199.406 26.1738C201.305 26.1738 202.518 25.0488 202.518 22.9395V15.4688C202.518 13.2891 203.133 12.3398 205.277 12.2871C206.438 12.2344 207.316 11.9707 207.896 11.4434C208.477 10.9336 208.775 10.1953 208.775 9.21094C208.775 8.08594 208.459 7.29492 207.844 6.83789C207.439 6.50391 206.877 6.3457 206.174 6.3457C204.258 6.3457 202.852 7.7168 202.377 10.3008H202.254V9.35156C202.254 7.33008 201.059 6.22266 199.318 6.22266C197.508 6.22266 196.277 7.33008 196.277 9.33398V22.9395C196.277 25.0488 197.49 26.1738 199.406 26.1738Z" fill="black"/>
<path d="M218.83 26.2266C224.156 26.2266 227.725 23.6953 227.725 19.6875C227.725 16.8223 225.949 15.2578 221.836 14.4492L218.514 13.7988C216.686 13.4297 216.105 12.9023 216.105 12.0762C216.105 11.0391 217.125 10.3711 218.637 10.3711C220.465 10.3711 221.414 11.3555 222.363 12.3047C222.891 12.7969 223.787 13.0781 224.49 13.0781C226.107 13.0781 226.863 12.1992 226.863 11.0039C226.863 10.7051 226.811 10.4062 226.705 10.1074C226.02 7.99805 223.066 6.16992 218.689 6.16992C213.398 6.16992 210.111 8.57812 210.111 12.4277C210.111 15.3281 212.062 17.3145 215.842 18.0527L219.182 18.7207C220.922 19.0723 221.537 19.5293 221.537 20.373C221.537 21.4102 220.5 22.0254 218.883 22.0254C217.143 22.0254 215.947 21.498 214.893 20.3379C213.996 19.459 213.17 19.0547 212.186 19.0547C210.779 19.0547 209.76 20.0215 209.76 21.3926C209.76 21.709 209.848 22.0781 209.988 22.4473C210.885 24.6445 213.943 26.2266 218.83 26.2266Z" fill="black"/>
</svg>
